/* XPM */
static char *cake[] = {
/* columns rows colors chars-per-pixel */
"64 64 15 1 ",
"  c black",
". c #1B1B1B",
"X c #2C2C2C",
"o c #503000",
"O c #8C1800",
"+ c #AC1000",
"@ c #FC3800",
"# c #E46018",
"$ c #E40060",
"% c #AC8000",
"& c #FCB800",
"* c #FCA048",
"= c #FCE0B4",
"- c gray100",
"; c None",
/* pixels */
";;;;;;;;;;;;;;;;;;;;;;;;;;;;;;;;;;;;;;;;;;;;;;;;;;;;;;;;;;;;;;;;",
";;;;;;;;;;;;;;;;;;;;;;;;;;;;;;;;;;;;;;;;;;;;;;;;;;;;;;;;;;;;;;;;",
";;;;;;;;;;;;;;;;;;;;;;;;;;;;;;;;;;;;;;;;;;;;;;;;;;;;;;;;;;;;;;;;",
";;;;;;;;;;;;;;;;;;;;;;;;;;;;;;;;;;;;;;;;;;;;;;;;;;;;;;;;;;;;;;;;",
";;;;;;;;;;;;;;;;;;;;;;;;;;;;;;;;;;;;;;;;;;;;;;;;;;;;;;;;;;;;;;;;",
";;;;;;;;;;;;;;;;;;;;;;;;;;;;;;;;;;;;;;;;;;;;;;;;;;;;;;;;;;;;;;;;",
";;;;;;;;;;;;;;;;;;;;;;;;;;;;;;;;;;;;;;;;;;;;;;;;;;;;;;;;;;;;;;;;",
";;;;;;;;;;;;;;;;;;;;;;;;;;;;;;;;;;;;;;;;;;;;;;;;;;;;;;;;;;;;;;;;",
";;;;;;;;;;;;;;;;;;;;;;;;;;;;;;;;;;;;;;;;;;;;;;;;;;;;;;;;;;;;;;;;",
";;;;;;;;;;;;;;;;;;;;;;;;;;;;;;;;;;;;;;;;;;;;;;;;;;;;;;;;;;;;;;;;",
";;;;;;;;;;;;;;;;;;;;;;;;;;;;;;;;;;;;;;;;;;;;;;;;;;;;;;;;;;;;;;;;",
";;;;;;;;;;;;;;;;;;;;;;;;;;;;;;;;;;;;;;;;;;;;;;;;;;;;;;;;;;;;;;;;",
";;;;;;;;;;;;;;;;;;;;;;;;;;;;;;;;;;;;;;;;;;;;;;;;;;;;;;;;;;;;;;;;",
";;;;;;;;;;;;;;;;;;;;;;;;;;;;;;;;;;;;;;;;;;;;;;;;;;;;;;;;;;;;;;;;",
";;;;;;;;;;;;;;;;;;;;;;;;;;;;;;;;;;;;;;;;;;;;;;;;;;;;;;;;;;;;;;;;",
";;;;;;;;;;;;;;;;;;;;;;;;;;;;;;;;;;;;;;;;;;;;;;;;;;;;;;;;;;;;;;;;",
";;;;;;;;;;;;;;;;;;;;;;;;;;;;;;;;;;;;;;;;;;;;;;;;;;;;;;;;;;;;;;;;",
";;;;;;;;;;;;;;;;;;;;;;;;;;;;;;;;;;;;;;;;;;;;;;;;;;;;;;;;;;;;;;;;",
";;;;;;;;;;;;;;;;;;;;;;;;;;;;;;;;;;;;;;;;;;;;;;;;;;;;;;;;;;;;;;;;",
";;;;;;;;;;;;;;;;;;;;;;;;;;;;;;;;;;;;;;;;;;;;;;;;;;;;;;;;;;;;;;;;",
";;;;;;;;;;;;;;;;;;;;;;;;;;;;;;;;;;;;;;;;;;;;;;;;;;;;;;;;;;;;;;;;",
";;;;;;;;;;;;;;;;;;;;;;;;;;;;;;;;;;;;;;;;;;;;;;;;;;;;;;;;;;;;;;;;",
";;;;;;;;;;;;;;;;;;;;;;;;;;;;;;;;;;;;;;;;;;;;;;;;;;;;;;;;;;;;;;;;",
";;;;;;;;;;;;;;;;;;;;;;;;;;;;;;;;;;;;;;;;;;;;;;;;;;;;;;;;;;;;;;;;",
";;;;;;;;;;;;;;;;;;;;;;;;;;;;;;;;;;;;;;;;;;;;;;;;;;;;;;;;;;;;;;;;",
";;;;;;;;;;;;;;;;;;;;;;;;;;;;;;;;;;;;;;;;;;;;;;;;;;;;;;;;;;;;;;;;",
";;;;;;;;;;;;;;;;;;;;;;;;;;;;;;;;;;;;;;;;;;;;;;;;;;;;;;;;;;;;;;;;",
";;;;;;;;;;;;;;;;;;;;;;;;;;;;;;;;;;;;;;;;;;;;;;;;;;;;;;;;;;;;;;;;",
";;;;;;;;;;;;;;;;;;;;;;;;;;;;;;;;;;;;;;;;;;;;;;;;;;;;;;;;;;;;;;;;",
";;;;;;;;;;;;;;;;;;;;;;;;;;;;;;;;;;;;;;;;;;;;;;;;;;;;;;;;;;;;;;;;",
";;;;;;;;;;;;;;;;;;;;;;;;;;;;;;;;; ;;;;;;;;;;;;;;;;;;;;;;;;;;;;;;",
";;;;;;;;;;;;;;;;;;;;;;;;;;;;;;;;; ;;;;;;;;;;;;;;;;;;;;;;;;;;;;;;",
";;;;;;;;;;;;;;;;;;;;;;;;;;;;;;;; @ ;;;;;;;;;;;;;;;;;;;;;;;;;;;;;",
";;;;;;;;;;;;;;;;;;;;;;;;;;;;;;; @&@ ;;;;;;;;;;;;;;;;;;;;;;;;;;;;",
";;;;;;;;;;;;;;;;;;;;;;;;;;;;;;;; & ;;;;;;;;;;;;;;;;;;;;;;;;;;;;;",
";;;;;;;;;;;;;;;;;;;;;;;;;;;;     =     ;;;;;;;;;;;;;;;;;;;;;;;;;",
";;;;;;;;;;;;;;;;;;;;;;;;;;; +$$  =  ++$ ;;;;;;;;;;;;;;;;;;;;;;;;",
";;;;;;;;;;;;;;;;;;;;;;;;;;; +$$  =  ++$ ;;;;;;;;;;;;;;;;;;;;;;;;",
";;;;;;;;;;;;;;;;;;;;;;     OO++O.-oOOO+O     ;;;;;;;;;;;;;;;;;;;",
";;;;;;;;;;;;;;;;;;;;  ++$o.=OOO=---=OOO=o.+$$  ;;;;;;;;;;;;;;;;;",
";;;;;;;;;;;;;;;;;;; .OOO+O o+$$o=-= ++$o OO++Oo ;;;;;;;;;;;;;;;;",
";;;;;;;;;;;;;;;;;;  o=OOO=oOO++O =oOOO+O.=OOO=.  ;;;;;;;;;;;;;;;",
";;;;;;;;;;;;;;;;;; o     o.=OOO=o.o=OOO=oo     o ;;;;;;;;;;;;;;;",
";;;;;;;;;;;;;;;;;; o....o                 ooo.o. ;;;;;;;;;;;;;;;",
";;;;;;;;;;;;;;;;;; o....o                 ooo.o. ;;;;;;;;;;;;;;;",
";;;;;;;;;;;;;;;;;; . o..o.ooo..ooo..ooo.oo.... o ;;;;;;;;;;;;;;;",
";;;;;;;;;;;;;;;;;; o..%% o%. oo.%X.%XX.%..o%%o.. ;;;;;;;;;;;;;;;",
";;;;;;;;;;;;;;;;;; o% oo.oo.o..oo.o.oo X.oXooo.o ;;;;;;;;;;;;;;;",
";;;;;;;;;;;;;;;;;; o.o..o .%o..o..%o...o%oo  ..o ;;;;;;;;;;;;;;;",
";;;;;;;;;;;;;;;;;; o..oo.oo....ooXo.XXo...o..%o. ;;;;;;;;;;;;;;;",
";;;;;;;;;;;;;;;;;; .%o..o.oX%oo..ooo%%. .o...o.o ;;;;;;;;;;;;;;;",
";;;;;;;;;;;;;;;;;; .%o..o.oX%oo..ooo%%. .o...o.o ;;;;;;;;;;;;;;;",
";;;;;;;;;;;;;;;;;; .o ..% ..o..%o.%o...o%oo...oo ;;;;;;;;;;;;;;;",
";;;;;;;;;;;;;;;;;; .oooo..o....oX.....o.oo.oo..o ;;;;;;;;;;;;;;;",
";;;;;;;;;;;;;;;;;; ..ooo.oo%.XX.o%Xo%% .oo.oo. . ;;;;;;;;;;;;;;;",
";;;;;;;;;;;;;;;;;; o X....o..%%o . oXXXoX o..... ;;;;;;;;;;;;;;;",
";;;;;;;;;;;;;;;;;; ..ooo. .o...o.o. oo.....%% .o ;;;;;;;;;;;;;;;",
";;;;;;;;;;;;;;;;   o.%XX..o..%%. .%o...%.oXXX...  ;;;;;;;;;;;;;;",
";;;;;;;;;;;;;;;;   o.%XX..o..%%. .%o...%.oXXX...  ;;;;;;;;;;;;;;",
";;;;;;;;;;;;;;;;  #o..ooo..%o...X..o.... .ooo.oo# ;;;;;;;;;;;;;;",
";;;;;;;;;;;;;;;;  *######....oooo.oo..%..o######* ;;;;;;;;;;;;;;",
";;;;;;;;;;;;;;;;;; ******#################****** ;;;;;;;;;;;;;;;",
";;;;;;;;;;;;;;;;;;;      *******    ******      ;;;;;;;;;;;;;;;;",
";;;;;;;;;;;;;;;;;;;;;;;;;       ;;;;      ;;;;;;;;;;;;;;;;;;;;;;"
};
