/* XPM */
static char *companion[] = {
/* columns rows colors chars-per-pixel */
"64 64 9 1 ",
"  c black",
". c #2C2C2C",
"X c #606060",
"o c #FC589C",
"O c #788084",
"+ c #C8C0C0",
"@ c #F4C0E0",
"# c gray100",
"$ c None",
/* pixels */
"$$$$$$$$$$$$$$$$$$$$$$$$$$$$$$$$$$$$$$$$$$$$$$$$$$$$$$$$$$$$$$$$",
"$$$$$$$$$$$$$$$$$$$$$$$$$$$$$$$$$$$$$$$$$$$$$$$$$$$$$$$$$$$$$$$$",
"$$$$$$$$$$$$$$$$$$$$$$$$$$$$$$$$$$$$$$$$$$$$$$$$$$$$$$$$$$$$$$$$",
"$$$$$$$$$$$$$$$$$$$$$$$$$$$$$$$$$$$$$$$$$$$$$$$$$$$$$$$$$$$$$$$$",
"$$$$$$$$$$$$$$$$$$$$$$$$$$$$$$$$$$$$$$$$$$$$$$$$$$$$$$$$$$$$$$$$",
"$$$$$$$$$$$$$$$$$$$$$$$$$$$$$$$$$$$$$$$$$$$$$$$$$$$$$$$$$$$$$$$$",
"$$$$$$$$$$$$$$$$$$$$$$$$$$$$$$$$$$$$$$$$$$$$$$$$$$$$$$$$$$$$$$$$",
"$$$$$$$$$$$$$$$$$$$$$$$$$$$$$$$$$$$$$$$$$$$$$$$$$$$$$$$$$$$$$$$$",
"$$$$$$$$$$$$$$$$$$$$$$$$$$$$$$$$$$$$$$$$$$$$$$$$$$$$$$$$$$$$$$$$",
"$$$$$$$$$$$$$$$$$$$$$$$$$$$$$$$$$$$$$$$$$$$$$$$$$$$$$$$$$$$$$$$$",
"$$$$$$$$$$$$$$$$$$$$$$$$$$$$$$$$$$$$$$$$$$$$$$$$$$$$$$$$$$$$$$$$",
"$$$$$$$$$$$$$$$$$$$$$$$$$$$$$$$$$$$$$$$$$$$$$$$$$$$$$$$$$$$$$$$$",
"$$$$$$$$$$$$$$$$$$$$$$$$$$$$$$$$$$$$$$$$$$$$$$$$$$$$$$$$$$$$$$$$",
"$$$$$$$$$$$$$$$$$$$$$$$$$$$$$$$$$$$$$$$$$$$$$$$$$$$$$$$$$$$$$$$$",
"$$$$$$$$$$$$$$$$$$$$$$$$$$$$$$$$$$$$$$$$$$$$$$$$$$$$$$$$$$$$$$$$",
"$$$$$$$$$$$$$$$$$$$$$$$$$$$$$$$$$$$$$$$$$$$$$$$$$$$$$$$$$$$$$$$$",
"$$$$$$$$$$$$$$$$$$$$$$$$$$$$$$$$$$$$$$$$$$$$$$$$$$$$$$$$$$$$$$$$",
"$$$$$$$$$$$$$$$$$$$$$$$$$$$$$$$$$$$$$$$$$$$$$$$$$$$$$$$$$$$$$$$$",
"$$$$$$$$$$$$$$$$$$$$$$$$$$$$$$$$$$$$$$$$$$$$$$$$$$$$$$$$$$$$$$$$",
"$$$$$$$$$$$$$$$$$$$$$$$$$$$$$$$$$$$$$$$$$$$$$$$$$$$$$$$$$$$$$$$$",
"$$$$$$$$$$$$$$$$$$$$$$$$$$$$$$$$$$$$$$$$$$$$$$$$$$$$$$$$$$$$$$$$",
"$$$$$$$$$$$$$$$$$$$$$$$$$$$$$$$$$$$$$$$$$$$$$$$$$$$$$$$$$$$$$$$$",
"$$$$$$$$$$$$$$$$$$$$$$$$$$$$$$$$$$$$$$$$$$$$$$$$$$$$$$$$$$$$$$$$",
"$$$$$$$$$$$$$$$$$$$$$$$$$$$$$$$$$$$$$$$$$$$$$$$$$$$$$$$$$$$$$$$$",
"$$$$$$$$$$$$$$$$$$$$$$$$$$$$$$$$$$$$$$$$$$$$$$$$$$$$$$$$$$$$$$$$",
"$$$$$$$$$$$$$$$$$$$$$$$$$$$$$$$$$$$$$$$$$$$$$$$$$$$$$$$$$$$$$$$$",
"$$$$$$$$$$$$$$$$$$$$$$$$$$$$$$$$$$$$$$$$$$$$$$$$$$$$$$$$$$$$$$$$",
"$$$$$$$$$$$$$$$$$$$$$$$$$$$$$$$$$$$$$$$$$$$$$$$$$$$$$$$$$$$$$$$$",
"$$$$$$$$$$$$$$$$$$$$$$$$$$$$$$$$$$$$$$$$$$$$$$$$$$$$$$$$$$$$$$$$",
"$$$$$$$$$$$$$$$$$$$$$$$$$$$$$$$$$$$$$$$$$$$$$$$$$$$$$$$$$$$$$$$$",
"$$$$$$$$$$$$$$$$$$$$$$$$$$$$$$$$$$$$$$$$$$$$$$$$$$$$$$$$$$$$$$$$",
"$$$$$$$$$$$$$$$$$$$$$$$$$$$$$$$$$$$$$$$$$$$$$$$$$$$$$$$$$$$$$$$$",
"$$$$$$$$$$$$$$$$$$$$$$$$$$$$$$$$$$$$$$$$$$$$$$$$$$$$$$$$$$$$$$$$",
"$$$$$$$$$$$$$$$$$$$$$$$$$$$$$$$$$$$$$$$$$$$$$$$$$$$$$$$$$$$$$$$$",
"$$$$$$$$$$$$$$$$$$$$$$$$$$$$$$$$$$$$$$$$$$$$$$$$$$$$$$$$$$$$$$$$",
"$$$$$$$$$$$$$$$$$$$$        $$$$$$$$$        $$$$$$$$$$$$$$$$$$$",
"$$$$$$$$$$$$$$$$$$$ XXXXXXXX         XXXXXXXX $$$$$$$$$$$$$$$$$$",
"$$$$$$$$$$$$$$$$$$ XX++++++++ +###+ ++++++++XX $$$$$$$$$$$$$$$$$",
"$$$$$$$$$$$$$$$$$$ X++######+.#####.+######++X $$$$$$$$$$$$$$$$$",
"$$$$$$$$$$$$$$$$$$ X+#######+O##o##O+#######+X $$$$$$$$$$$$$$$$$",
"$$$$$$$$$$$$$$$$$$ X+#######+OO+o+OO+#######+X $$$$$$$$$$$$$$$$$",
"$$$$$$$$$$$$$$$$$$ X+#####++OOO...OOO++#####+X $$$$$$$$$$$$$$$$$",
"$$$$$$$$$$$$$$$$$$ X+####+OOO..   ..OOO+####+X $$$$$$$$$$$$$$$$$",
"$$$$$$$$$$$$$$$$$$ X+###+OOO.  @@@  .OOO+###+X $$$$$$$$$$$$$$$$$",
"$$$$$$$$$$$$$$$$$$ X+###+OO. @@@@@@@ .OO+###+X $$$$$$$$$$$$$$$$$",
"$$$$$$$$$$$$$$$$$$$ ++++OO. @@@###@@@ .OO++++ $$$$$$$$$$$$$$$$$$",
"$$$$$$$$$$$$$$$$$$$  .OOO. @@#######@@ .OOO.  $$$$$$$$$$$$$$$$$$",
"$$$$$$$$$$$$$$$$$$$ +##OO. @@#oo#oo#@@ .OO##+ $$$$$$$$$$$$$$$$$$",
"$$$$$$$$$$$$$$$$$$$ ###+. @@#ooooooo#@@ .+### $$$$$$$$$$$$$$$$$$",
"$$$$$$$$$$$$$$$$$$$ ###oo @@#ooooooo#@@ oo### $$$$$$$$$$$$$$$$$$",
"$$$$$$$$$$$$$$$$$$$ ###+. @@##ooooo##@@ .+### $$$$$$$$$$$$$$$$$$",
"$$$$$$$$$$$$$$$$$$$ +##OO. @@##ooo##@@ .OO##+ $$$$$$$$$$$$$$$$$$",
"$$$$$$$$$$$$$$$$$$$  .OOO. @@###o###@@ .OOO.  $$$$$$$$$$$$$$$$$$",
"$$$$$$$$$$$$$$$$$$$ ++++OO. @@@###@@@ .OO++++ $$$$$$$$$$$$$$$$$$",
"$$$$$$$$$$$$$$$$$$ X+###+OO. @@@@@@@ .OO+###+X $$$$$$$$$$$$$$$$$",
"$$$$$$$$$$$$$$$$$$ X+###+OOO.  @@@  .OOO+###+X $$$$$$$$$$$$$$$$$",
"$$$$$$$$$$$$$$$$$$ X+####+OOO..   ..OOO+####+X $$$$$$$$$$$$$$$$$",
"$$$$$$$$$$$$$$$$$$ X+#####++OOO...OOO++#####+X $$$$$$$$$$$$$$$$$",
"$$$$$$$$$$$$$$$$$$ X+#######+OO+o+OO+#######+X $$$$$$$$$$$$$$$$$",
"$$$$$$$$$$$$$$$$$$ X+#######+O##o##O+#######+X $$$$$$$$$$$$$$$$$",
"$$$$$$$$$$$$$$$$$$ X++######+.#####.+######++X $$$$$$$$$$$$$$$$$",
"$$$$$$$$$$$$$$$$$$ XX++++++++ +###+ ++++++++XX $$$$$$$$$$$$$$$$$",
"$$$$$$$$$$$$$$$$$$$ XXXXXXXX         XXXXXXXX $$$$$$$$$$$$$$$$$$",
"$$$$$$$$$$$$$$$$$$$$        $$$$$$$$$        $$$$$$$$$$$$$$$$$$$"
};
