/* XPM */
static char *result[] = {
/* columns rows colors chars-per-pixel */
"50 50 90 1 ",
"  c #7E330F",
". c #7C380F",
"X c #6D2517",
"o c #6F2C13",
"O c #6C251B",
"+ c #6B281B",
"@ c #732C16",
"# c #7A2E16",
"$ c #73261B",
"% c #752D1A",
"& c #792D19",
"* c #763010",
"= c #7D3214",
"- c #77301B",
"; c #7C321A",
": c #702620",
"> c #762C21",
", c #7F3121",
"< c #81350D",
"1 c #83390D",
"2 c #8C3E0C",
"3 c #983F05",
"4 c #913F0C",
"5 c #813413",
"6 c #853A12",
"7 c #8B3C12",
"8 c #82331B",
"9 c #88361E",
"0 c #863A19",
"q c #8C3B1E",
"w c #903F12",
"e c #9A3F11",
"r c #923F1E",
"t c #8F4007",
"y c #8E410B",
"u c #93420D",
"i c #9B440D",
"p c #95480E",
"a c #8D4313",
"s c #944312",
"d c #994513",
"f c #9D4915",
"g c #96431B",
"h c #9B461A",
"j c #A34C15",
"k c #AC4E15",
"l c #A0461E",
"z c #A44D1A",
"x c #AB4E1B",
"c c #A75017",
"v c #AC5115",
"b c #A6511A",
"n c #AB5119",
"m c #B45314",
"M c #B75B17",
"N c #B3551A",
"B c #B65A1D",
"V c #BC5C1D",
"C c #BF621E",
"Z c #974220",
"A c #9A4523",
"S c #9D4822",
"D c #A44B21",
"F c #AB4E24",
"G c #AE5122",
"H c #AF522A",
"J c #B35423",
"K c #B95724",
"L c #B65822",
"P c #BD5C23",
"I c #BB5B29",
"U c #BE6122",
"Y c #C05E1E",
"T c #C2621E",
"R c #CB631E",
"E c #C15E22",
"W c #C85F26",
"Q c #C55E2A",
"! c #C46223",
"~ c #CD6625",
"^ c #CE6826",
"/ c #C56329",
"( c #CE6728",
") c #CE692A",
"_ c #D16626",
"` c #D16926",
"' c #DD6E27",
"] c #D16629",
"[ c #D16A2A",
"{ c #D86B2A",
/* pixels */
"znnnknnnnnnnnnnnnnnnnnnnnnnxnvnnnnnnxxnj22<#$uwknx",
"/^)[)[[)[)[)[_)[[[[^[[[)[[[[[))[[[)[`~)_!Js2O#7!)]",
"!~~~~^^^^^~^^~^^^^~^~~~~~~~~~~^~~~^~/iU[_(Yu#72!!(",
"!(^___~_____^_____~__]_]_(_]_]()[~_[[))(QKx<@wp![(",
"!~~][)~]](((]^]((([(~~[~()((~~[]~()Bsv^~~~Eu##0KW/",
"!~[~~]_)~[)_(((()]~]~((]~])([~^^~~)EjV~^~_Wu02s!_!",
"/~[(((((((~))_](~]()](~^_)~_~~~_~~!(~~/W!WG1@7s!~~",
"!~~_)]~[_)]](((][~]~(]^~_)))(~~!!QPPLJJxzAr*O@5JE!",
"U(~(]_]((((((~^~_]_`[__^/sj~~_~^~~^)_^_`_`Eu;6e!]~",
"/(](]]]]]](]]]([]_]`))__!fn)^[(_~_]_)^^~Tksy;74nME",
"ITT!YT!E!E!U!V!UE!TY!!ET~TT!YYC!Y!!Y!WPjus4aX0iVT!",
"@@#@$&#&#&@##&@o@#@#@@;@@@@@&##@&#@##@@#&@&$O+&@@$",
"=#===55=#=====XO##5;=5==555====#=5==<#5====5=;= 5=",
"LVEPPEVEEYYEPN0:2u2ufPVPYPVCVYYYVEYEP!PVYYVYEVYEVP",
"!~~__^)[][[)[P7+57uv(((]]_[__[___[_[)^)_([]_((])_~",
"!~^[~~!EE!E!!N1=w3V[~~]()(~)^~~[~)~~_~))(_~(((([^~",
"!~^(]!!WPVNNkj72sU_~^(~([()_()~[((][__~R~^_)()~(~]",
"!~_]]_~_~__~)B71s![~(~[~(((((]_(_))~~(CP)~^)__])_~",
"/(~^_^___~~_~V0#uR](~~~~]((_(]((((~(_(ii(~()~_UN^)",
"!!~/!!PIILGGGh@+5FE!~~([(()(()(]]^__~^~~~(((([Pk!^",
"/(~{[(W(!WEIHZ%@0KW!)[_^~~~^_^~~~~[[))^^(~__[_])[)",
"/~^~(]]~````[P76uL!!!!!~!!~~~^~~^^^~~^^^]~)~`]~))(",
"!~~(_~]Nx/R{)n722uissdddffjccbnNmBBVE!~!))()nB_~_~",
"/((~__]Nk(~Ni20<u!~(^_^______^^^^~_^____^__^xB_^)_",
"P!!!!~Y~!Niyys#5aU~!!!!!~T!!!W!!!RT!!~!!!!!RT!!!!!",
"==5555555=0=#@O@=  5550555550555==5=5<==55555565<5",
"%%%%%%&&%&%&&%%@-%%&&&-%-%-%--&&--%;----%;@@---%%O",
"7ttyytt44442utyayttt2uttttuytuttytyyttyyytaau2446@",
"PY!!/!!!E!!!!!!!!/U!!UT!!!!!/U!!!!!!U!!!!!!!T!Ph6O",
"/~((((~~_~~~~~^^~~~^~()~~R^^~~^_]_[__`[`[]`__)Qh8&",
"!~^~~^^~())((~((_~(^^)~~!!!PVPPBPNNBnnnccczzjjzpu5",
"/~_)](()(~__~^((()((^~!~!/P!PPPPIULP/!!!~!~~(!!ja=",
"/~~)~](])__))^^~(_(]]~)^_)~~!!/EKJFFSZgq998;##8$+$",
"!~~^](((((jaL_~^(((((]_~^^^~))~~`_`]`_((((~/WIJg*-",
"!~~)((((~~viP_~](](](((~^~_^~~mB(!TYVMNmzkffdsgs75",
"/~~]]_](~_[~^~]](_]]](_(((([((~)~~!~~!!!!~!~W!!f6=",
"/!~~!~~~~(~~~~~~~~~~~(~~~(~(((~~~(^~~_~~(~!UPGD,X@",
"wsuusuuuuuupupuuupsuuuuuuuuuuu2ss4ustu4p4pgsuiuy*>",
"@&=&=#=-##%#=&##&&=&##;##&#&#&#=-*###*;#;&==;=#;@X",
"@+@@%@o%@@%o@o%%@o%o%%@@@%%o@@@@+X$%%@@#@@$@oo@@o%",
"BC!UV!YYPEYYEUYYV!YYPTPYYYYCYTVu&#742dBTCNVETE!V!P",
"!/v~(((^~(((~(((((~(((((((^_``[d;.u2z(__)nB~_~~)~~",
"!/V~(~[~[^(_)](~~_~^~(]((~!QKJh&X=2b~~~~)[__~^~~)~",
"!()((~~^~_~~_~^^^^)~~~(~~~~~~!Wu.;4VR^))^_~~_~_[(~",
"!~~~~]~~__~^^__R^_^^[))^^`][_~Ws7 aV_VN[[^^_^~~_]~",
"!~__[~)~~!!!EPIPLVBJGGGnDlDAAAr&@=6FPBLQQ!!!!~~~~~",
"~!~]^)_`___``_```````'```[_`'`]f7#7C^^^~^R[[`_~_(~",
"!~_~^^_R^^^^^^__^^^~~^^^_zN)~~!s762B~^^^^`^^^^R^_~",
"/)[^^_^^^^_^^)^^^^^^`^``^^^~!QK6%&<DJKIEQQW~(~(^_^",
"asdsdsdsddddddddddddddhpdgdgddss8@6ssddeddgddddsds"
};
