/* XPM */
static char *result[] = {
/* columns rows colors chars-per-pixel */
"40 40 51 1 ",
"  c #762D16",
". c #792E16",
"X c #702719",
"o c #742B18",
"O c #792E18",
"+ c #7E3315",
"@ c #7C3218",
"# c #843A0F",
"$ c #8C3D0E",
"% c #823515",
"& c #893712",
"* c #863913",
"= c #8A3A14",
"- c #833419",
"; c #8E3D19",
": c #923E1A",
"> c #94420F",
", c #934112",
"< c #994414",
"1 c #9E4915",
"2 c #96431B",
"3 c #9B461B",
"4 c #9C481B",
"5 c #A44C15",
"6 c #AA4F14",
"7 c #A0471F",
"8 c #A44C1C",
"9 c #A94F1B",
"0 c #A95217",
"q c #A6511A",
"w c #AC521A",
"e c #B3551C",
"r c #B8571E",
"t c #B6591E",
"y c #BB5A1E",
"u c #A44A21",
"i c #AA4F21",
"p c #AE5222",
"a c #B45521",
"s c #B95723",
"d c #B65821",
"f c #BD5B22",
"g c #C05D1F",
"h c #C15E22",
"j c #C56123",
"k c #CC6625",
"l c #CF6825",
"z c #CF6728",
"x c #D06626",
"c c #D06825",
"v c #D06629",
/* pixels */
"jkkkkkkkkkkkzjkkkkkkkkkkkkkkjkhjje1% &ej",
"kkkkkkkkkkkkkklkkzzkkkzkkzkzzjdjkje$%$rk",
"kkkccllkcczccczzzkzzzzzzzzzzjtjzkjw&.&ej",
"kkzzzzzzzzzzzzzzkzkzzzklklkkjqtkkky,%$rj",
"kzzzzzzvzzvzvkkxzzlkllkkklkkjjjjjhw&+,ek",
"kzzzzczzzzzkxvxxzkkkjkzkkjjjjfddaw7- -qh",
"kkzzzzzzzzvxkvkkzkkh4elkkkklzkzzkge=+=ej",
"jjkjjjkkkjjjkjkkkjkjttjkjjkjjkjhe5>$%$0y",
"2:::::::::::::::2:;2;::2222::::;=+%@X@=:",
"+------%%-%X ..++%%%-%%%++%%%-%%%%%--@%%",
"ryryfdfffr5O@$$>qyfyyyyytfyyyfyrdytyyryt",
"kkkkkkjkkke%.$5rjzkkkkzkkzkkkkkklzzkkzzk",
"kkkkjhhftt5$=5ykzkzzzczckzkzzvkzzkzzkzlk",
"kkzzkkjjjf0=$ekkkzzzzzzzzzzvkcjhjkkzzzzz",
"kkckkkkkkje-*ekzkkkkzzzzzzzcxkj0gzzzkkgj",
"jkkjhhhsap2O.5hjkvzzzczzzzkxckkjjkzzljyj",
"zxvkkkkjjs4+%qjjkkkkkkklkkllllzllzkzzkzz",
"jxkxzhjxvzw=$1wwweeettyyyggjjjkkkzzkjkzk",
"kxkkjrejhw<*$5ttyyyyygghjjgjjjkjkkkjwjlk",
"fhhghye61$$+=qgfgfhgghhhghygjgghhfhgtygg",
"-%=&=&=%%+ X **======***+,+,*,****=====*",
"%%+%%%@-%+-+++++++++++*++++++++@++@++++ ",
"000000q0000000000000w0000000000q00qw05<*",
"jjkkjkkkjkjkkjkkkkjkkjkjkljkkkjkkkkkjh8-",
"kxkxkzzzkxxkckxvkkkjjjjhfggftddtteeeew1,",
"kkzczzkxxkkvzzzvkkkkjjfhfffddddddadtdt4=",
"kkczzzzjygxxzzzzzzkkzkkjjjhfddpiuu7722-.",
"kkzzvxxy1ekxzzzzzkkkkzkkfjkjjjfgydtw992-",
"kxkkzvxkgjccvvxxzkzckzzzjjkjjjggfffyfw1#",
"ghjjhjhhjjjgjhjhjjjjjjjjjjjjjjjjjhjfai2 ",
",,>,>><:<:$><::><,,,,,,,>,,,,>>>$<,,$,= ",
"o.. ................+        ....@..... ",
"3444411333433744444443432%o@%&=<3<244414",
"fykkjkkjjkkjjjkjjjkjjkkkf,+*$5ykktyjjkjk",
"jjkkkkkkzzkvxkzzkzzzzjhsp% #5ykxkkkkkkkk",
"kkkkkllkzkxkkxkkzzzzkzzjt,+*ejjkxkxklxck",
"jzzzkkkkkjkjjjhjhhffssssw;+*9hyfzkkjkkkx",
"kzczckkkkkjkjkjhjjhfffffp;+%5hhjkjkkkkkk",
"kkkkkkclklkcllkccckkffkkh<*$wjkkkkzvllll",
"jjjjkjjkjjjjjkjjjjjjhjjfw;@+3aadffhhjjjj"
};
