/* XPM */
static char *result[] = {
/* columns rows colors chars-per-pixel */
"50 50 211 2 ",
"   c #000000",
".  c #000708",
"X  c #000A0C",
"o  c #000D11",
"O  c #001216",
"+  c #00161C",
"@  c #00181E",
"#  c #001C23",
"$  c #002027",
"%  c #00232C",
"&  c #012631",
"*  c #012934",
"=  c #012E3B",
"-  c #01313E",
";  c #7D320B",
":  c #6D2817",
">  c #6C251C",
",  c #732C16",
"<  c #7A2E16",
"1  c #73261B",
"2  c #742C1A",
"3  c #792C19",
"4  c #7D3215",
"5  c #75331A",
"6  c #7C311A",
"7  c #762C21",
"8  c #6D392A",
"9  c #763624",
"0  c #653D33",
"q  c #7C4E28",
"w  c #664738",
"e  c #715639",
"r  c #013342",
"t  c #013748",
"y  c #013A4C",
"u  c #013D52",
"i  c #014255",
"p  c #01445B",
"a  c #01495D",
"s  c #014B65",
"d  c #014C6C",
"f  c #01526D",
"g  c #014A76",
"h  c #015374",
"j  c #01537C",
"k  c #015A7A",
"l  c #3A6777",
"z  c #3F737D",
"x  c #5B4A45",
"c  c #56524D",
"v  c #4E5359",
"b  c #545958",
"n  c #685B47",
"m  c #62544D",
"M  c #736248",
"N  c #566F6C",
"B  c #456878",
"V  c #4B747A",
"C  c #547A7B",
"Z  c #68776B",
"A  c #747769",
"S  c #7B7C6B",
"D  c #657C76",
"F  c #797C71",
"G  c #82350D",
"H  c #8C3E0D",
"J  c #913F0C",
"K  c #813413",
"L  c #853A13",
"P  c #8B3C11",
"I  c #82331B",
"U  c #873A19",
"Y  c #943F13",
"T  c #823A25",
"R  c #8E410C",
"E  c #93420D",
"W  c #97460D",
"Q  c #8D4213",
"!  c #944312",
"~  c #994513",
"^  c #9A4618",
"/  c #9B501C",
"(  c #A34C15",
")  c #AC4E15",
"_  c #A44D1A",
"`  c #AB4E1B",
"'  c #AC5016",
"]  c #A6521D",
"[  c #AB5119",
"{  c #B75B17",
"}  c #B3551C",
"|  c #B65C1C",
" . c #BC5C1D",
".. c #824E25",
"X. c #84522A",
"o. c #975429",
"O. c #875836",
"+. c #A44B22",
"@. c #AA5928",
"#. c #B35423",
"$. c #B75924",
"%. c #BC5C23",
"&. c #A95D31",
"*. c #89633C",
"=. c #92643C",
"-. c #BD6223",
";. c #B8642B",
":. c #A7693B",
">. c #B26934",
",. c #BD6C35",
"<. c #B46E3C",
"1. c #B96E3A",
"2. c #B5703E",
"3. c #BA723B",
"4. c #C05E1E",
"5. c #C2621D",
"6. c #C15D22",
"7. c #C55E2A",
"8. c #C46224",
"9. c #CD6625",
"0. c #CE6926",
"q. c #C56329",
"w. c #CE6728",
"e. c #C56A2D",
"r. c #CD692A",
"t. c #D16726",
"y. c #D16925",
"u. c #D06629",
"i. c #D06A2A",
"p. c #D86B2A",
"a. c #C36A32",
"s. c #CA6A31",
"d. c #866346",
"f. c #9C6C42",
"g. c #956B48",
"h. c #96724C",
"j. c #836F57",
"k. c #8B7354",
"l. c #88785B",
"z. c #947655",
"x. c #9C7652",
"c. c #997955",
"v. c #957B5A",
"b. c #A66E44",
"n. c #B36E42",
"m. c #A17046",
"M. c #AD7344",
"N. c #A4754C",
"B. c #AA734A",
"V. c #B17242",
"C. c #B97140",
"Z. c #A07952",
"A. c #847A62",
"S. c #857B67",
"D. c #5C817C",
"F. c #67837B",
"G. c #74837A",
"H. c #82826D",
"J. c #024E85",
"K. c #015382",
"L. c #015A84",
"P. c #02548A",
"I. c #015C8A",
"U. c #015B94",
"Y. c #01648C",
"T. c #016392",
"R. c #026A95",
"E. c #01639D",
"W. c #02699B",
"Q. c #1F759E",
"!. c #2E6C8C",
"~. c #37748B",
"^. c #287796",
"/. c #387A97",
"(. c #025DA8",
"). c #015FB6",
"_. c #0167A7",
"`. c #0165AA",
"'. c #1B6BA6",
"]. c #0176A6",
"[. c #1A73AB",
"{. c #0766BB",
"}. c #0364BC",
"|. c #156BB6",
" X c #0576B8",
".X c #2976A3",
"XX c #2B72A9",
"oX c #4A7F87",
"OX c #587F84",
"+X c #015DC9",
"@X c #0465C4",
"#X c #0967C7",
"$X c #056CC5",
"%X c #136BC3",
"&X c #067AC9",
"*X c #2B899D",
"=X c #348D9B",
"-X c #1A8BA9",
";X c #0686B7",
":X c #158CB8",
">X c #0897BE",
",X c #1898B6",
"<X c #2987A8",
"1X c #2192B0",
"2X c #4A8187",
"3X c #578588",
"4X c #478694",
"5X c #678583",
"6X c #0786C3",
"7X c #0799C5",
"8X c #04A0C9",
/* pixels */
"_ ' [ [ [ ' [ [ [ ' [ ' [ [ [ ' [ ' [ [ ] ] @.] ' ' ] ] ] [ ' [ ' [ [ [ ` ' ' _ J H G < 1 R Y ) [ ` ",
"q.0.0.i.i.r.i.i.i.i.r.i.i.i.i.r.r.i.i.a.2.V.2.M.3.3.2.2.3.3.s.i.r.r.i.i.y.r.r.t.q.} ! H 1 < P q.r.u.",
"q.9.9.9.0.9.9.0.9.0.0.9.0.0.9.9.e.3.M.2.3.V.M.l.j.k.k.h.x.2.M.e.r.9.0.9.q.W %.i.t.u. .E 5 P H 6.8.r.",
"8.9.0.t.t.t.t.t.t.t.t.t.9.t.t.r.2.3.,.3.B.Z =X,X,X,X-X*XoXA.M.M.N.a.t.i.i.r.i.w.7.#.` G , H W 9.u.w.",
"8.9.9.i.9.t.r.t.t.w.u.t.r.r.2.M.B.h.l.D.,X>X].Y.Y.Y.R.W. X-XC N.M.N.1.@.! } y.9.9.9.6.Q 3 < U #.4.q.",
"8.9.t.w.r.u.u.w.r.u.w.r.r.e.,.3.f.l.3X>X].L.u = t = s u h E.;XC z.N.n.;.( 4.5.0.y.t.6.E U H R 9.t.9.",
"8.r.9.u.t.r.r.t.0.w.r.r.1.v.N.x.A.=X7XR.a - - # % o @ * i s U.&XoXz.m.<.9.9.8.7.6.6.#.G , P ! 8.9.9.",
"8.9.i.9.u.w.u.w.u.w.r.V.N.N.N.v.=X>XY.r & + O         . @ - i j  X/.j.:.@.#.#.` _ +.Y 3 > 3 4 #.%.8.",
"-.9.w.u.u.t.w.w.w.w.,.r.z.,.,.D.8XY.u +                   % & t g &XoXZ.V.a.y.y.y.y.6.E 3 L Y 8.t.t.",
"q.9.u.u.u.u.u.u.u.u.a.C.a.M.F.>XR.u +                       O * i U.%XS N.M.,.9.5.) ! R 4 Y J ` { 6.",
"$.5.5.8.4.4.8.4.8.4.;.-.:.l.-X;Xf * # .                       + * a `..Xz.m.:./ E ! Y Q : L W  .4.6.",
", , 3 3 3 3 3 3 3 3 3 2 8 l >XL.= &                             * s I.{.l x 0 8 3 , 3 1 > > 2 3 3 2 ",
"4 < K 4 4 4 4 4 < 4 K 9 x ^.].s % .                             + t f `.^.c w w 5 4 < K K 6 4 ; K 4 ",
"$. .%.6.6.6.6.4.4.4.;.f.g.7XR.-                                 . r i K.$XZ h.f.b. .4.4.6. .4.6. .%.",
"8.9.0.9.t.0.r.i.i.r.C.i.D.;Xf % .                                   & k }./.v.M.M.a.y.t.9.w.i.u.y.t.",
"8.9.0.y.9.9.8.6.6.;.-.f.*X].s +                                     o y _.XXH.x.B.a.9.w.r.r.w.r.5.y.",
"8.w.t.w.9.9.8.6.%.| &.d.:XY.r                                       . t I.|.F.h.M.e.0.0.w.w.9.u.9.w.",
"8.9.9.w.u.u.t.t.y.e.M.D.;Xh - o                                       & k {.D.k.m.3.0.r.u.t.u.r.0.9.",
"8.r.u.y.9.9.u.t.y.e.m.2X].k p X                                       # k }.^.M N.<.0.r.t.t.-.} 0.w.",
"8.8.9.8.8.8.%.%.$.&.d.*X].f - .                                       # p _.[.H.x.M.r.u.w.y.%.) 8.0.",
"q.9.t.p.w.w.7.w.9.>.h.-XW.y +                                         # a W.%XG.v.M.r.w.i.t.t.i.r.w.",
"q.9.9.9.w.u.t.i.t.1.c.:XR.u X                                         o a I.#XF.v.B.r.w.u.t.r.r.i.t.",
"q.9.9.r.t.9.r.} ` n.l.7XL.%                                           X r I.#X5Xv.B.r.0.[ | y.9.t.9.",
"8.9.u.9.y.t.9.} ) n.A.6Xj $ X                                         . - T.{.F.v.V.,.r._ } y.y.t.r.",
"%.8.9.8.8.6.9.8.8.=.M ;Xj & o                                         . r L.@XOXH.b.>.8.5.8.9.8.8.8.",
"4 4 K K G K K G 6 w x 6Xd #                                           . a Y.}.z b w 9 K K ; K I ; K ",
"2 3 3 2 3 2 3 3 7 0 x 6XI.i .                                         . a L.@X~.c w 5 2 5 5 2 5 , > ",
"H H R R R R R H P ..e  XI.p o                                         . y k $X~.n q Q Q J J J Y L 3 ",
"$.4.8.8.8.8.8.8.-.:.f.:XU.t o                                         . s I.#X3Xh.>.5.8.5.8.%.^ L 1 ",
"8.9.w.u.w.w.9.9.e.<.M.1XI.r O                                         @ i U.%X5XN.s.y.y.y.y.-.^ K 2 ",
"q.0.0.9.0.9.0.0.e.B.<.<X_.t X                                         $ a _.'.N *.] ] ( ~ ( _ W ! 4 ",
"8.9.t.r.u.w.w.w.r.B.,.4X`.p #                                         * k {.<XS <.8.9.0.9.9.q.( Q 4 ",
"8.9.0.w.u.r.t.r.a.M.2.F. Xh r                                       O = h {.^.m ..T I I < I 3 2 : > ",
"q.0.9.w.w.u.w.u.w.N.O.n  Xj p =                                     o - L.#X3XB.a.u.9.8.7.%.$.Y 4 4 ",
"8.9.0.u.w.9.w.u.t.M.*.X./._.p * X                                   & u U.|.D =.` ` ( ~ ^ ~ ^ P P 4 ",
"q.9.9.u.u.u.u.u.9.,.V.2.3X$Xh p * .                               o t k }..XF ;.8.9.7.9.9.6.q.^ L 4 ",
"8.9.9.9.9.8.t.9.9.,.>.<.A.6XI.p - @                               + r U.%X3XB.9.9.r.8.8.$.#.+.3 : : ",
"P Q E E W E E E E W ..q e [.`.f & O                             . # f ).Q.N q E E ! ! E J W ! E < 2 ",
"< 5 < < 3 4 4 5 4 4 8 x 0 v $XT.k i % +                         * u P.+X!.x 2 < 3 6 < 4 4 < < 5 , : ",
", > , 2 2 , , : , : : v v x !.@Xh i * o                       # - s ).'.B 0 , < , , 2 , : , , < , 2 ",
"| 4.5.-. .8.4.6.-.4.4.;.k.h.Z '.E.s - @                   o % r u U.{.V n X.| 8.4.|  .6.4.4.8. .8.%.",
"q.8.) 9.w.w.9.9.w.0.w.w.,.N.c.D.$XP.y * # O           X + = = r P.+X^.N o.q.t.t.r.' | r.t.9.w.r.9.w.",
"8.q.4.9.r.9.i.9.0.w.i.t.e.3.N.G./.#XK.t t - # .   . o # = = u J.).'.V d.8.t.9.t.w.i.t.t.y.9.9.9.u.9.",
"8.r.r.r.u.9.0.0.0.9.9.9.e.<.2.2.H..X@XL.p r t - - & t = t p J.+X'./.n $.5.y.i.r.9.t.9.9.9.9.y.u.9.9.",
"8.5.t.9.w.u.9.9.y.y.9.9.e.2.3.2.M.S .X#X(.K.d u r & r u g (.#X'.oXx ..$.u. .} i.y.9.9.9.9.9.9.9.u.9.",
"9.9.t.u.u.9.w.9.8.8.8.q. .$.>.=.@.g.A ~.'.+X(.P.g g J.(.#X|.!.oXx 8 K +.%.| } 7.7.q.5.9.9.9.9.9.w.9.",
"8.9.t.w.9.t.9.y.y.y.y.y.y.y.y.y.0.r.3.x.F.2X/.XX%X+X|.XX4X5XS.O.U K Y | 9.0.0.0.0.5.i.i.y.y.9.0.t.9.",
"8.9.t.9.9.9.t.y.y.y.9.9.0.0.9.0.9.9.r.e.<.v.S D OXOXC G.S.N.>.! L K J %.0.0.0.y.y.y.9.9.9.0.9.9.9.9.",
"q.9.r.0.0.0.0.0.0.y.r.0.0.y.y.0.0.0.0.0.0.0.s.M.Z.x.N.,.7.7.#.P 3 6 G +.#.#.%.7.7.7.7.9.t.9.9.9.y.9.",
"! ! ~ ! ! ~ ~ ! ~ ~ ~ ~ ! ~ ~ ~ ~ ~ ~ ~ ~ ~ ~ ~ ~ ^ ~ ~ ^ ~ ~ Y I 3 L Y ! ! ~ Y ~ ~ ~ ^ ~ ~ ~ ~ ~ ~ "
};
