/* XPM */
static char *result[] = {
/* columns rows colors chars-per-pixel */
"40 40 200 2 ",
"   c #000000",
".  c #000709",
"X  c #00090C",
"o  c #000E12",
"O  c #001116",
"+  c #00141A",
"@  c #00181F",
"#  c #001D24",
"$  c #001F28",
"%  c #00232D",
"&  c #002632",
"*  c #002935",
"=  c #002F3D",
"-  c #00303E",
";  c #6F281C",
":  c #732C16",
">  c #792E16",
",  c #73271A",
"<  c #742B19",
"1  c #7A2D18",
"2  c #7D3315",
"3  c #7B341A",
"4  c #6A3A2B",
"5  c #7D3C24",
"6  c #733E31",
"7  c #6C442E",
"8  c #71432C",
"9  c #6B4531",
"0  c #003243",
"q  c #01364A",
"w  c #00394C",
"e  c #013C54",
"r  c #013B58",
"t  c #004156",
"y  c #02435C",
"u  c #014563",
"i  c #014A65",
"p  c #024C6B",
"a  c #014B72",
"s  c #004A79",
"d  c #035170",
"f  c #0D5777",
"g  c #035479",
"h  c #09537B",
"j  c #175278",
"k  c #28577B",
"l  c #59524B",
"z  c #565558",
"x  c #654C42",
"c  c #71524E",
"v  c #614F53",
"b  c #775B55",
"n  c #77665E",
"m  c #796A6B",
"M  c #78736E",
"N  c #6B6C77",
"B  c #7B6E77",
"V  c #6F7079",
"C  c #7C7579",
"Z  c #787879",
"A  c #83360D",
"S  c #8D3D0E",
"D  c #823613",
"F  c #863916",
"G  c #8B3C12",
"H  c #873A19",
"J  c #95460F",
"K  c #964212",
"L  c #9C4614",
"P  c #9D4816",
"I  c #9B4619",
"U  c #99471C",
"Y  c #A24B16",
"T  c #A54B1A",
"R  c #A94E19",
"E  c #AD5217",
"W  c #AD541B",
"Q  c #B2551C",
"!  c #B8571C",
"~  c #B6581C",
"^  c #BC5D1D",
"/  c #994F26",
"(  c #9A522A",
")  c #954E31",
"_  c #875E3E",
"`  c #9B5E30",
"'  c #A44A20",
"]  c #AC4E20",
"[  c #AD5321",
"{  c #A65925",
"}  c #AA5C29",
"|  c #A9592C",
" . c #B45725",
".. c #B15A22",
"X. c #BC5C22",
"o. c #A45B34",
"O. c #AF5F30",
"+. c #8D623E",
"@. c #986239",
"#. c #B66128",
"$. c #AC6335",
"%. c #A86339",
"&. c #AD6A3C",
"*. c #B36331",
"=. c #B66934",
"-. c #BD6D35",
";. c #B56E3C",
":. c #BA6D39",
">. c #B4713D",
",. c #C05D1E",
"<. c #C1611F",
"1. c #C25E23",
"2. c #C15F28",
"3. c #C56224",
"4. c #CD6626",
"5. c #CE6825",
"6. c #C76729",
"7. c #CE6728",
"8. c #C6692D",
"9. c #CD6829",
"0. c #D06725",
"q. c #D06825",
"w. c #D16729",
"e. c #D06828",
"r. c #C26A33",
"t. c #876549",
"y. c #94674A",
"u. c #9E744F",
"i. c #8A6B5A",
"p. c #956C54",
"a. c #8C765B",
"s. c #9A7856",
"d. c #99775B",
"f. c #B76F44",
"g. c #A67247",
"h. c #AD7143",
"j. c #A4744C",
"k. c #A97249",
"l. c #B17141",
"z. c #A46F54",
"x. c #A67554",
"c. c #8D7567",
"v. c #82796C",
"b. c #947464",
"n. c #997A63",
"m. c #857977",
"M. c #A47860",
"N. c #7C8075",
"B. c #024E82",
"V. c #065485",
"C. c #065987",
"Z. c #03548B",
"A. c #165A88",
"S. c #1A5C89",
"D. c #0A599F",
"F. c #0C5A9D",
"G. c #1A5C95",
"H. c #295B81",
"J. c #225B8B",
"K. c #3F5F80",
"L. c #275C91",
"P. c #0C6A8B",
"I. c #0B6792",
"U. c #146D92",
"Y. c #1C619A",
"T. c #26628A",
"R. c #3E658F",
"E. c #2B6A94",
"W. c #256598",
"Q. c #3A699A",
"!. c #297499",
"~. c #357A98",
"^. c #0C5FA6",
"/. c #0B60A3",
"(. c #1863A5",
"). c #2867A5",
"_. c #3568A3",
"`. c #2C78A2",
"'. c #455A8E",
"]. c #466584",
"[. c #516586",
"{. c #426699",
"}. c #5C6D95",
"|. c #4B7A94",
" X c #487798",
".X c #507695",
"XX c #696F88",
"oX c #706582",
"OX c #6D7B85",
"+X c #60728F",
"@X c #69708E",
"#X c #727284",
"$X c #696B92",
"%X c #6A7298",
"&X c #476BA2",
"*X c #837B89",
"=X c #846A90",
"-X c #3F869E",
";X c #4E8595",
":X c #66848D",
/* pixels */
"W Q Q Q Q Q Q Q Q Q Q Q Q Q Q Q { { { Q W } [ [ Q Q Q Q Q Q Q E L S A , S Y  .Q ",
"3.4.5.9.7.5.7.4.9.e.5.9.5.8.r.r.>.x.n.n.M.d.x.h.-.9.7.9.4.3.1.e.1.Q S 1 D Y 3.7.",
"3.4.4.0.4.0.0.4.q.5.q.q.8.:.h.s.m.OX;X X;X X.XOXs.>.-.4.4.3.1.7.3.1.S > S Y 4.e.",
"3.7.e.5.e.9.0.e.5.9.9.:.>.u.v.;X~.T.i i i d g W.|.c.j.;...R 3.4.0.1.Y > D I 1.1.",
"3.4.0.7.0.7.e.7.9.9.-.-.h.Z -XU.i 0 % % @ % q i I. XM k.#.W 3.4.4.1.Y F S R q.<.",
"3.4.7.w.7.e.7.e.9.:.j.s.N.-XP.q % + X .   . O * r C.Q.C &.3.X.X.X.[ S : D Y 3.4.",
"3.7.4.e.e.7.7.7.r.>.j.c.;XP.q +               O % q C..Xp.*.3.1.1. .K : D T 3.3.",
"3.4.7.7.w.e.e.0.r.-.x.:XU.t # .                 X % r W.#Xj.:.7.,.E J 2 G K ~ 3.",
"[ ~ Q ~ ~ ~  .Q [ } M -Xd * O .                   o q g {.i.y./ S G F : D L Q Q ",
"< 1 1 1 1 1 1 1 > 6 R.I.w +                       . % y G.].x 4 3 > > , , > : 3 ",
"T T T T T T R R ( t.~.f $                           O q h {.n _ ( T R T T R T T ",
"1.4.4.4.7.7.9.8.>.v.!.y +                             + r Y.V g.h.6.4.4.5.5.4.3.",
"3.4.5.4.4.1.1.X.*.OXS.0 X                             . 0 A.@Xs.&.8.9.7.7.4.4.4.",
"3.4.0.7.4.3.3.X.y.|.f & .                               $ j }.a.h.8.9.5.4.7.4.4.",
"3.7.7.4.4.0.5.8.c.!.g - .                               + p _.M g.-.9.4.4.1.4.4.",
"3.3.4.3.3.X.X.*.C !.i % .                               + y ).#Xx.:.7.7.5.! X.4.",
"3.0.w.e.4.4.3.=.*XE.w O                                 O t W.%Xs.>.9.e.e.e.e.0.",
"3.4.0.e.7.4.3.;.*XT.= .                                 X w J.%Xs.>.9.3.4.5.4.4.",
"3.7.0.0.4.1.Q =.*XH.% .                                 X = J.%Xs.>.9.W ! q.5.4.",
"1.3.,.4.1.3.<.@.*Xk % X                                 . - J.$Xa.>.#.<.<.3.4.<.",
"3 2 D > 2 2 2 9 [.A.%                                   X w S.'.z 7 3 2 2 2 2 2 ",
"> D D D D 2 3 8 [.S.q X                                 . w A.'.l 8 F 2 D 2 2 , ",
"R Q W W W E W ` #XJ.w o                                 . q J.$Xt.{ W W E Y G > ",
"3.3.4.4.4.4.6.;.*XL.0 o                                 o e L.=Xh.8.0.4.7.[ H : ",
"3.4.4.4.4.4.7.h.m.W.q o                                 # y W.oX` [ R W R P K D ",
"3.4.e.7.e.e.8.h.b.{.y +                                 $ p ).B o.[ [ [ [ T F > ",
"3.4.4.e.7.e.9.h.y.+Xj = X                             X * s ).B | [ [ T ' U : < ",
"6.4.0.9.e.e.4.l.+.XXA.e #                             O 0 C.).i.[ E R T I I G D ",
"3.4.0.4.4.w.4.r.h.v.).p - X                           $ i /..Xz.3.4.3.1.X.W F 2 ",
"[ ~ ~ ! ~ ! ~  .@.t.&Xh w # .                       X * g (.V o.! ~ Q W T K : ; ",
"D D D D D D D D 4 x N Y.y & o .                   . + r ^.W.c H D D F D F D 2 : ",
"; , : : : : : : 4 z z Q.C.y * o                   o 0 s ^.K.9 < : : : : : : : < ",
"^ ^ 3.<.3.,.<.3.1.$.a.N Q.p = O               . O * r F.{.b | 1.X.! 1.3.<.<.<.1.",
"3.X.X.5.4.4.0.0.0.8.>.a.@XJ.r % O X       . o $ * e Z.(.N $.0.0.4.^ 3.4.4.4.0.4.",
"3.3.4.5.e.e.4.0.4.5.-.>.c.&XV.e - % O X X O % - r B.(.[.y.8.4.4.5.4.4.0.5.4.4.4.",
"3.4.4.4.e.q.<.0.4.5.-.>.z.m._.C.u w - * & = q u Z.(.R.b X.1.! 7.q.5.4.4.4.4.0.4.",
"4.4.4.e.4.4.4.3.3.3.1.*.O.%.B &X/.Z.a r r u B.F.).].v 5 [ X.X.2.3.3.3.3.4.4.4.4.",
"3.4.5.5.7.0.q.e.q.q.e.q.4.9.:.b.+XQ.(.F.D.(.`..Xm c H S X.9.0.4.q.e.e.0.4.0.4.4.",
"3.5.5.5.4.4.5.5.e.5.5.4.0.e.4.r.f.d.C XXoXXXm.z.o.H D A ] X.2.2.1.4.4.3.4.5.5.4.",
"P P P Y Y Y Y Y Y Y Y Y Y Y Y Y Y / ( ( ) ) ( P L H , D I I Y L Y Y T T Y Y Y Y "
};
