/* XPM */
static char *result[] = {
/* columns rows colors chars-per-pixel */
"50 50 212 2 ",
"   c #0B0301",
".  c #0D0C0C",
"X  c #1C0000",
"o  c #150904",
"O  c #140A09",
"+  c #270706",
"@  c #2D0202",
"#  c #360603",
"$  c #2F160C",
"%  c #3A1A06",
"&  c #33130A",
"*  c #3A160B",
"=  c #241717",
"-  c #2E2727",
";  c #3F2929",
":  c #3F3834",
">  c #470805",
",  c #550302",
"<  c #5B0101",
"1  c #461708",
"2  c #441A0C",
"3  c #4B1C0C",
"4  c #57190A",
"5  c #461B14",
"6  c #4D1D11",
"7  c #541516",
"8  c #531F12",
"9  c #630100",
"0  c #6D0000",
"q  c #6A0E0E",
"w  c #740101",
"e  c #7B0100",
"r  c #651708",
"t  c #751508",
"y  c #49220A",
"u  c #4B250D",
"i  c #562505",
"p  c #5C2A07",
"a  c #55220C",
"s  c #5A230E",
"d  c #552A0F",
"f  c #5C2B0B",
"g  c #4D2511",
"h  c #542212",
"j  c #5C2312",
"k  c #552A11",
"l  c #5C2D12",
"z  c #552619",
"x  c #652D07",
"c  c #62250E",
"v  c #6C240E",
"b  c #642C0B",
"n  c #6B2C0C",
"m  c #74290E",
"M  c #6B310C",
"N  c #73340B",
"B  c #7D3609",
"V  c #7B360C",
"C  c #622413",
"Z  c #6C2517",
"A  c #632C13",
"S  c #6D2B14",
"D  c #6C251C",
"F  c #6B2A18",
"G  c #732B15",
"H  c #7A2D16",
"J  c #722718",
"K  c #742C1A",
"L  c #792C19",
"P  c #643111",
"I  c #6C3414",
"U  c #6E3817",
"Y  c #743513",
"T  c #7C3215",
"R  c #753A15",
"E  c #7C3C15",
"W  c #7C311A",
"Q  c #77381A",
"!  c #7D3D18",
"~  c #522E25",
"^  c #463B38",
"/  c #6F342B",
"(  c #7E411A",
")  c #5C443A",
"_  c #6B4A36",
"`  c #714C35",
"'  c #70523B",
"]  c #434040",
"[  c #564945",
"{  c #5D5A5B",
"}  c #6F594E",
"|  c #615E5E",
" . c #6F615B",
".. c #7A7576",
"X. c #840101",
"o. c #8C0000",
"O. c #830F05",
"+. c #8E0C03",
"@. c #930000",
"#. c #9C0000",
"$. c #9D0909",
"%. c #831106",
"&. c #8B1508",
"*. c #921810",
"=. c #A40000",
"-. c #AB0000",
";. c #A60F05",
":. c #B40000",
">. c #BB0000",
",. c #B30903",
"<. c #A21407",
"1. c #94230D",
"2. c #82350D",
"3. c #833B0C",
"4. c #8C3E0D",
"5. c #913F0C",
"6. c #842B11",
"7. c #813413",
"8. c #833C13",
"9. c #8B3B12",
"0. c #81321A",
"q. c #843C18",
"w. c #943F13",
"e. c #943E1B",
"r. c #932D2D",
"t. c #C30000",
"y. c #CB0100",
"u. c #D40000",
"i. c #DC0100",
"p. c #E30000",
"a. c #EB0000",
"s. c #F40000",
"d. c #FD0000",
"f. c #8E410C",
"g. c #93420D",
"h. c #99450C",
"j. c #95480E",
"k. c #844216",
"l. c #8C4416",
"z. c #854219",
"x. c #8C451A",
"c. c #8E491A",
"v. c #954313",
"b. c #994513",
"n. c #9A4817",
"m. c #93451A",
"M. c #944A1B",
"N. c #9C4D1C",
"B. c #9E5017",
"V. c #9F501E",
"C. c #A14611",
"Z. c #A44C15",
"A. c #AD4E15",
"S. c #A24E1B",
"D. c #AB4E1B",
"F. c #AB5017",
"G. c #A4521D",
"H. c #AB521B",
"J. c #B75B17",
"K. c #B3561C",
"L. c #B45A1D",
"P. c #BB5C1D",
"I. c #974620",
"U. c #9A4523",
"Y. c #9D4822",
"T. c #89512E",
"R. c #9F5427",
"E. c #A34A21",
"W. c #A55221",
"Q. c #AC5521",
"!. c #AF5820",
"~. c #B35523",
"^. c #BA5623",
"/. c #B55A22",
"(. c #BC5D23",
"). c #BB5D29",
"_. c #BE6122",
"`. c #C05E1E",
"'. c #C1621D",
"]. c #C15E22",
"[. c #C85F26",
"{. c #C55E2A",
"}. c #C46224",
"|. c #CD6625",
" X c #CE6825",
".X c #C56329",
"XX c #CF6728",
"oX c #CE682A",
"OX c #D06726",
"+X c #D26A25",
"@X c #D06628",
"#X c #D06A2A",
"$X c #DB6D29",
"%X c #927C6F",
"&X c #848282",
"*X c #9C8D8C",
"=X c #999695",
"-X c #A99B99",
";X c #ABA9A7",
":X c #BAB2AD",
">X c #B2B0B0",
",X c #BDBBBB",
"<X c #C0BEBE",
"1X c #CDCBCA",
"2X c #D2CFCE",
"3X c #D9D7D7",
"4X c #E4E2E2",
"5X c #ECEBEB",
"6X c #F0EFEF",
"7X c #F4F3F3",
"8X c #F8F7F6",
"9X c #FDFDFD",
/* pixels */
"S.A.D.F.F.F.F.F.F.F.F.F.F.F.F.F.F.F.F.F.F.F.F.F.F.H.D.F.F.F.F.F.F.F.F.F.D.F.H.Z.4.4.2.H J 4.w.A.H.D.",
".X X X#XoX#X#X#X#X#X#X#XoX#X#X#X#X#X#X#X#X#X#X#X#X#X#X#X#X#XoX#X#X#X#X#X$X.XoXOX.XK.v.4.Z L 9..XoX@X",
".X|.|.|.|.|. X X|.|.|. XoX|. X|.|.|.oX X|.|.|.#XXX|.|.OX|. XoX|.|.|. X|..Xh._.#XOXXXP.g.W 4.5.].}..X",
".X|. X+X#X|.#X@XOX#XOXOX#XOXOXOX#XOX#X|.@XOXOX.X.X@XOXOX@X@XXXoX XOX#X#X#XoX#XXX].^.D.2.L 4.j.}.@X@X",
"}.|.|.#XOX@XoXOXXXXX@XXX@X@XXX#XOX|.#XXX|.|.Q.U R !..XoX|.XXOX@X|.XXoX^.w.K.|.OX|.|.[.f.L H q.^.].|.",
".X|.OX@XOX|.XXXX@X|.oXOXoX|.XX@X@XOX@X@X|.Q.z.z.c.M.M.(.#X|. X X|. XoX(.Z.J.OXOXOXOX}.g.q.4.f.|.|.OX",
".X|.#X|.oX@X#X|.XX#X#X@X|.#X#X|.oXXXXX}.W.z.G.x.M.(.G.E x./.}.|.|.].]..X|.|..X[.[.].D.2.G 9.v.}.|.|.",
".X|.|.XXOXXXXX@X@X|.XX|.XX@X|.oX|.}.Q.x.! m.9.r r H 6.6.S I R 8.q.R k z.K.Q.Q.D.E.Y.e.T D L T ~.(..X",
"_. X|.|.@X@XOX@XXXXXXX.XW.M.N.N.c.z.x.R m <.,.y.=.@.u.y.,.&.G M.W.k.x.M._.|.+X+X+X#X`.g.W 9.w.}.OXXX",
".X|.OX@X@X@X@X@X@X@X@X(.P R I.W.~.!.q.%.y.d.d.d.>.=.s.d.d.a.t.t R M..XM.Q. X X|.`.A.v.4.L 4.5.D.J.].",
").'.'.}.`.].'.].}.].}.F.l.k.8.S.G.R %.i.d.d.d.a.#.w u.d.d.d.s.y.t v.'.G.l.(.(.Z.g.v.w.l.Z q.h.P.'.].",
"G G G L L L L L G L L C C 8 & & * , -.d.d.d.i.:.#.w #.:.p.d.d.p.#.t J G h 8 G L H G L K D Z L L K L ",
"T H 7.T T 7.7.H T T T c G s 2 & , =.y.d.p.=.-.i.>.#.i.>.+.#.y.:.-.>.v T H a a T T H 7.7.7.W T V 7.T ",
"^.P.(.`.].`.`.`.].`./.M.L.( c 7 =.>.=.-.-.y.a.d.t.#.a.s.a.y.y.#.#.u.1.K.P.L.x.k.F.L.P.`.].P.`.].P.P.",
".X X|.OX|.#X#X#X#X#X/.Q. XE M 4 y.:.#.u.a.d.d.d.t.=.a.d.d.d.s.t.#.t.;.z.(..X.XW.M.I.E.(..XoX@X@X+X|.",
"}.|. X#X|.}.}.].].P.x.H.(.I n %.u.@.#.s.d.d.d.d.t.=.s.d.d.d.d.:.:.>.+.Y x.M._..X_.H.c.I U (.XXoX|.|.",
".X|.|.XXOX}.}.].H.E v.G.8.M n +.t.=.@.a.d.d.d.d.t.-.s.d.d.d.a.-.y.s.,.9./.S.M.c.k.R R ( I (.XXoX|.oX",
".X|.XX|.OXOX#X/.c.N.}.(.U M.n +.p.u.-.a.d.d.d.a.o.e u.d.d.d.p.=.a.d.t.G G.N.x.k.R f M.R.z.|.@XoX#X|.",
"}.|.|. XOX|.!.z.V.}.].l.c.K.m :.d.a.#.i.d.d.i.-.X.X.=.y.d.d.u.=.s.d.t.a I k i B c.8.}.M.G. X}.H. X X",
".X}.|.|.}.N.k A ! ! S I m.Y 3 t.i.a.#.=.t.:.-.y.>.:.y.=.=.>.-.:.d.s.t.4 z.! M._.z.N..XE (.+X(.A.}. X",
".X X|.$X@XQ.I E.S.d Y Q l 2 2 -.#.i.o.e :.y.a.d.t.:.s.a.y.>.X.>.i.-.-.v W.x.(.].( Q.}.R .XOX#XoXoXOX",
"}.|. X|.@XXXR /.}.P /.].z.M 4 w 9 -.@.-.a.d.d.d.t.-.s.d.d.u.-.t.#., 9 6.G.z.|.}.z.W..XR ].OX|.|.#X|.",
".X|.|.XX X'.U n.N.l K.+XR.8.c # @ =.i.:.p.d.d.d.>.=.s.d.d.t.u.s.-.@ + n M.z.|.}.z.M..XE n.P.+X|.OX|.",
".XoX|.|. X XI n.C.A /.K.N x s X X =.s.:.y.d.d.s.=.X.y.a.i.:.a.d.-.X   P G.k.'.|.V.x.}.m.E K.+X|.#XoX",
"P.}.|.}.}.P.P !.K.f f.l.p N 8 o   w a.u.:.a.p.>.X.X.-.:.@.:.s.s.0   . g U g z.N.c.I P.G.R }.}.|.}.].",
"T T 7.7.2.v 1 T A a T T 1 C 8 o . @ >.i.X.$.=.>.:.t.a.y.o.#.p.y.# - = ; 2 2 a a % % a s 1 n 2.0.2.7.",
"K L L L F y j K 8 j K C 8 S 6 - { = < #.w @.u.s.t.t.d.y.=.>.-.0 : &X) ) z I F g 6 j C h * g K K K D ",
"4.4.f.f.V p f.V b 3.B i x n % : >X| O < :.#.u.d.t.>.s.:.t.a.#.$ &X,X[ ' N f.N x 3.4.k.M p x 5.5.4.K ",
"(.`.}._.( c.l.P R k.I u u P l } 3X1X: + -.>.=.p.t.-.u.=.s.y.q { 3X1X_ T.N._.M.G.}.(.N.l.G._.^.n.9.Z ",
".X|.|..XU E ( U I R c.M.c.k.x.} 3X9X<X{ 7 -.-.:.=.@.-.t.i.r...3X8X<X' R.N.|.B.H.OXH.N..X X|.}.M.L K ",
"}.|. X|.H.z.k.G.!.M.z.R._./.x.) 2X9X9X2X&X~ O.e e @.@.$.r.-X4X9X8X;X~ ( I G.k.( n.N v.Z.Z.Z.Z.g.g.7.",
"}.|.OXoX#X.XM.z./.|.H.E M.}.}./ :X8X9X9X7X=X5 w #.:.@.z ;X8X9X9X6X=X' k d G.V.z.L.E }..X|.|..XZ.c.T ",
"}.|. XXXXX@X|.G.z.^.|.(.( M.].G.%X4X9X9X5X..q :.-.=.#.*.*X8X9X9X3X ./ R l A A g F 8 W W W W 0.K D D ",
".X|. XXXXXXXXX.XE.z.n.l.G.k.Q.}._ ;X7X6X=X; #.t.u.p.t.t./ ,X7X6X-X` !.}.|.K.( k U z.G..X].(.~.e.T T ",
".X|.|.XXXXXXXXXX|.k.k.g.(.G.c.(.g ] ;X=X^ < -.-.i.p.>.t.w [ =X&X) c.'.P.Z.R M R n y b b.b.v.m.w.9.T ",
".X|.|.@XOX@X@XXX X(.c.P.+X^.z.x.P $ = O < y.:.X.>.>.o.@.:.w $ . y K.}.N.k.N.L.G.M.R k.}.[.[..Xn.9.T ",
"}.}.|.|.XXXX|.XXXX|.N.H. X(.U I N.Y > 0 -.s.:.>.a.p.:.-.s.y.0 > R (.G.k./.].N.M.W./._._.P.~.U.L S J ",
"w.v.g.f.g.g.g.f.g.g.2.N g.N 2 p V N r >.>.u.-.p.d.d.p.-.p.:.-.%.Y V i 7.B b M f.g.g.v.v.h.h.j.v.G K ",
"G K T T H T T T H T S 8 C 3 s s u 8 * e t.o.o.:.t.t.y.-.@.>.@.4 n s s S s c T T L W T T W T H W K G ",
"S K J K K G F K G K A 2 & 6 A S F j 2 # @.#.@.:.y.>.:.X.e =.> * 8 5 Z j j K G G G K K J G S G G S K ",
"L.'.}._.P.}.`.`.(.'.L.k.I I R c.G.P.P.k.4 @.p.d.d.d.d.u.#.t i y * s V n 3.b.P.(._.J.P.].}.`.}.P.}.(.",
"}..XA.|.XXXX|.oXXXXX|.|.OX|.(.n.z.M./..Xm.r :.i.a.s.a.u.*.M./.c * f b N Z.|.OXOXoXF.P.|.|.|.|.oX|.XX",
".X.XP.|.#X|.oX|.|.@X@X#X|.#XXXXX}.N.x.H.(.A 1 t t &.%.1.w.Y.e.F 1 3 p Z.|.OX|.OXXX#XOX|.#X|.|.|.@X|.",
"}. XoXXX@X|.|. X X|.|.|.OX|.|. X X|.W.! H.z.! G.x.Y E M.H.H.S.N 3 $ n `.'. X#XXX|.OX|.OX|.|.OX#X|.|.",
"}.'.+XOXOX#XXX|.+XOX|.+X X#X+X'.OX+X'.G.k.( c.k.z.^..X#X@XOX[.w.T n 4.(.OXP.K.#X#X X XOX|.+X+XOXXX|.",
"}.|.OXOX@X|.|.|.}.}.}.].].(.).]./.P.^.Q.! h I c.E.S.Y.Y.U.m.e.L G T 8.E.].L.K.{.[.}.}.}.}.'.|.OX@X|.",
"}.|.OX@X|.OX|.+X+X+X#X+X+XOX+X+X+X+X+X+X|._.|.+X$X#XOX$X$X+X#Xb.9.H v.L.|. X+X'. X'.#X#X X+XOX|.OX|.",
".X|.OX|.|. XOXOXOXOX|.|.|.XXOXOX|. X#X|.|. X|.|. XZ.A.oX|.XX.X5.9.7.g.P.|.#X#X+X+X#X|.OX X|.OX|.OX|.",
".X|.#X X X#X X|.#X#X X X XoX+XoX+XoX X#X X X X X#X X XXX[.].^.9.L W V E.~.^.^.{.{.{.[.XXXXXXOX XOX X",
"l.v.b.h.v.v.g.b.b.b.h.b.b.b.g.b.g.n.h.n.b.b.b.b.b.m.b.b.b.b.b.e.W L 9.v.w.v.b.v.b.b.b.b.b.b.v.v.v.b."
};
