/* XPM */
static char *result[] = {
/* columns rows colors chars-per-pixel */
"40 40 190 2 ",
"   c #130604",
".  c #1C0200",
"X  c #1F1715",
"o  c #230300",
"O  c #300C0C",
"+  c #3C200F",
"@  c #2F2929",
"#  c #3E2B23",
"$  c #470806",
"%  c #540302",
"&  c #43170C",
"*  c #4F1308",
"=  c #441A0B",
"-  c #4A1D0C",
";  c #58190A",
":  c #481B18",
">  c #6E0503",
",  c #630F07",
"<  c #760201",
"1  c #7C0201",
"2  c #7E0902",
"3  c #780E0E",
"4  c #661908",
"5  c #771507",
"6  c #7C1B0A",
"7  c #671616",
"8  c #7A1C1C",
"9  c #4D200C",
"0  c #53230D",
"q  c #5C250E",
"w  c #5A2A0C",
"e  c #482416",
"r  c #452818",
"t  c #5D2311",
"y  c #51311C",
"u  c #65260E",
"i  c #6A220C",
"p  c #642B0D",
"a  c #6B2E0D",
"s  c #762309",
"d  c #6F320D",
"f  c #74330E",
"g  c #7A360E",
"h  c #622510",
"j  c #642B11",
"k  c #6C2C12",
"l  c #742D14",
"z  c #792E15",
"x  c #752B19",
"c  c #752D19",
"v  c #673211",
"b  c #6B3413",
"n  c #62341C",
"m  c #6D3C1E",
"M  c #743413",
"N  c #7C3314",
"B  c #753915",
"V  c #7C3C15",
"C  c #7C3118",
"Z  c #7D3B19",
"A  c #463937",
"S  c #503333",
"D  c #783839",
"F  c #5A4339",
"G  c #744224",
"H  c #744F36",
"J  c #4C4545",
"K  c #554F4D",
"L  c #614243",
"P  c #6B4F4F",
"I  c #6B5C53",
"U  c #735050",
"Y  c #6E5F60",
"T  c #686462",
"R  c #830201",
"E  c #8B0000",
"W  c #830D0D",
"Q  c #890D08",
"!  c #930100",
"~  c #9C0100",
"^  c #940904",
"/  c #9C0C08",
"(  c #8B1609",
")  c #821C0A",
"_  c #9B1206",
"`  c #991708",
"'  c #A30101",
"]  c #AC0100",
"[  c #A60802",
"{  c #AE0B04",
"}  c #B40000",
"|  c #BB0000",
" . c #B20E05",
".. c #B91919",
"X. c #8C230D",
"o. c #8A2A0F",
"O. c #98270F",
"+. c #81390F",
"@. c #8E3E0F",
"#. c #842E12",
"$. c #8D2B10",
"%. c #972D11",
"&. c #823515",
"*. c #8A3513",
"=. c #843B14",
"-. c #8B3C13",
";. c #833419",
":. c #843E19",
">. c #8C3C19",
",. c #963C14",
"<. c #923E1A",
"1. c #A32727",
"2. c #C30000",
"3. c #CB0100",
"4. c #C10D04",
"5. c #D50100",
"6. c #DB0000",
"7. c #E40000",
"8. c #EB0000",
"9. c #F30000",
"0. c #FB0000",
"q. c #844116",
"w. c #8C4316",
"e. c #864219",
"r. c #8C4419",
"t. c #89481B",
"y. c #924213",
"u. c #984413",
"i. c #964914",
"p. c #9B4916",
"a. c #94461A",
"s. c #9B451B",
"d. c #94491B",
"f. c #9C4C1C",
"g. c #9D501F",
"h. c #A44D15",
"j. c #A0471E",
"k. c #A24E1C",
"l. c #AC4F1D",
"z. c #A95116",
"x. c #A5511D",
"c. c #AC541D",
"v. c #B2551D",
"b. c #B8571E",
"n. c #B5591E",
"m. c #BA5A1E",
"M. c #884923",
"N. c #87502F",
"B. c #80543B",
"V. c #975E3B",
"C. c #A94F21",
"Z. c #A45623",
"A. c #AB5420",
"S. c #B45621",
"D. c #B95722",
"F. c #B45921",
"G. c #BC5C22",
"H. c #C15E22",
"J. c #C56223",
"K. c #CC6625",
"L. c #CF6826",
"P. c #CF6728",
"I. c #D06725",
"U. c #D0672A",
"Y. c #954242",
"T. c #875C5C",
"R. c #905556",
"E. c #826757",
"W. c #94735F",
"Q. c #816060",
"!. c #867368",
"~. c #B27373",
"^. c #8C827E",
"/. c #96857B",
"(. c #A2938C",
"). c #A29E9E",
"_. c #ABA6A5",
"`. c #B2AEAE",
"'. c #B9AEA8",
"]. c #B9B6B6",
"[. c #C5BBBA",
"{. c #CAC4C4",
"}. c #D6CECE",
"|. c #D7D5D5",
" X c #DEDBD9",
".X c #EEECEC",
"XX c #F0EFEF",
"oX c #F4F4F4",
"OX c #F8F7F7",
"+X c #FBFAFA",
/* pixels */
"J.K.K.K.K.J.K.K.K.J.P.J.P.K.J.K.K.K.J.P.K.K.K.K.K.K.K.K.J.K.G.J.J.v.u.+.z *.v.J.",
"K.K.K.L.K.L.K.P.L.L.K.L.K.K.L.L.P.K.P.K.P.P.K.K.K.K.K.P.P.J.F.J.K.J.v.@.&.@.b.K.",
"K.K.L.L.L.P.L.L.P.L.L.P.L.L.L.P.P.J.Z.x.G.K.K.P.P.P.P.P.J.n.J.P.K.J.v.*.z @.v.J.",
"K.K.P.P.P.P.P.P.P.P.P.P.P.P.P.P.J.A.e.q.f.F.K.K.P.P.K.P.H.z.n.K.K.K.m.,.&.-.v.H.",
"K.P.P.P.P.P.P.P.P.P.P.U.P.K.K.G.C.r.r.r.k.d.d.c.G.J.J.F.G.G.J.J.H.H.l.+.&.@.b.J.",
"K.I.P.P.P.P.P.P.P.J.J.J.H.G.A.a.-.,.X.6 X.O.#.N =.r.r.V t.F.G.F.b.v.j.&.c &.x.H.",
"K.P.P.P.P.P.P.P.J.g.d.f.f.f.e.#.` 4.3.{ ] 5.3. .X.-.r.d.d.F.K.K.K.H.v.-.&.-.v.J.",
"J.J.J.J.K.J.J.K.F.e.Z r.C.f.$. .7.0.9.} ' 7.0.9.5.` &.c.x.f.H.H.z.h.u.-.N @.z.m.",
"<.<.<.<.a.<.<.<.;.l h 0 q i / 7.0.9.5.' E } 7.9.9.3.( #.=.l N >.&.&.&.z x c -.y.",
"&.&.&.&.&.&.&.&.l k q + $ 1 } 8.5.| 3.} ' 2.} } 3.2.] ( z z u a N &.&.&.;.;.&.&.",
"b.D.D.m.F.D.D.v.f.k.N q 5 ] ] | 2.6.9.3.} 7.8.5.3.] ]  .,.c.x.r.a.k.c.v.b.D.m.n.",
"K.K.I.K.K.K.K.G.A.F.V i ^ } ' 5.8.0.0.3.} 8.0.0.8.| ] { *.x.G.G.c.f.f.Z.F.K.P.L.",
"K.K.K.K.J.H.c.f.x.p.f s [ ] ' 7.0.0.0.3.} 9.0.0.8.| 3.} o.s.f.c.Z.a.e.B t.J.K.L.",
"K.K.K.K.J.n.f.k.c.w.=.s } 3.} 7.0.0.8.} ' 7.0.0.6.| 7.6.X.s.d.w.q.b w.r.f.K.P.L.",
"K.I.K.K.S.d.g.n.g.a.y.) 3.7.} 5.9.8.2.~ ! } 7.9.5.| 9.6.6 b b f e.e.Z.f.F.J.G.J.",
"J.K.K.A.B B q.Z B Z b 5 | 6.] ] 2.2.3.} } 2.} | ] 2.8.3.) V q.g.f.d.F.d.G.K.m.J.",
"P.I.P.G.e.x.y.B r.B 0 , E } ~ ~ 3.7.9.3.2.8.7.3.' } } ! ) d.f.G.g.f.F.r.J.L.K.P.",
"J.K.P.J.r.g.f.w.G.f.f ; % E } } 8.0.0.3.} 9.0.6.3.3.E O i y.f.J.x.d.F.r.n.K.L.L.",
"K.K.L.K.e.y.w.w.b.r.d - o < 6.2.7.0.8.} ' 6.7.3.6.7.1 . 0 e.d.G.c.d.n.r.f.J.L.L.",
"G.H.H.n.V f.w.M y.f u =   % 5.3.2.7.3.~ ! } } } 7.5.>   + b v d.d.V f.d.r.m.m.H.",
"&.-.&.N q M p k l q q & X O E } ! } 2.} 2.6.] ' 3.] : @ # e 0 q 0 9 q q q &.=.=.",
"&.&.N p v d h k p q t : K J $ R E } 7.3.3.6.} | ' 7 Y T F n b k q p k 0 - k N C ",
"z.z.w.V V d d V w w v y ^.).A % ' } 6.3.2.3.3.5.( P `.^.H t.p.q.i.h.i.V q.p.u.*.",
"J.J.x.V V B B q.V B V G (. X_.L W ] } } ' } 3...R.`.|./.N.g.n.k.F.n.x.n.G.H.k.&.",
"K.K.F.d.r.d.f.d.d.c.x.M./..X.X].Q.8 R E ~ ^ 1.~.{.XX X!.G Z x.w.s.r.p.c.v.c.h.-.",
"K.L.P.J.Z.a.F.D.d.d.F.Z.W. X+XOX{.U 3 ~ ' W T.}.OX+X{.E.n v r.e.r.:.k.F.n.v.s.-.",
"K.L.K.P.K.A.d.c.c.d.f.F.V.'.oX.X_.D ~ } } [ Y.[.oX.X).B.t.e.Z v j b :.s.s.s.;.c ",
"K.K.L.I.P.J.Z.w.y.x.f.x.M.I ].`.P 3 ] 5.5.2./ T.`._.E.A.G.c.r.M v v =.z.l.k.u.&.",
"K.I.P.P.P.U.J.k.k.m.c.r.V r A S 3 ] ' | | ' ] 3 S # m n.c.d.i.f.d.B V c.b.v.p.*.",
"H.J.H.H.H.H.H.v.k.m.x.B V b * > ] 3.} 5.6.] 2.2.< * =.x.d.f.x.i.s.k.c.m.S.l.<.l ",
"@.y.y.y.y.@.y.-.f +.f 0 p a 4 ~ | } 2.8.8.3.| | ~ 5 N a f f d g -.w.<.y.@.y.=.M ",
"c z z z z z z l t - 0 h t 0 = < ' ! ] 2.2.} ! ' 2 ; ; t h h k M z z z z z z N l ",
"s.s.f.s.s.s.s.y.B w j M :.e.=.u R ' 5.7.6.3.~ Q ; & - u u f -.s.s.u.s.j.s.s.s.s.",
"H.m.J.K.J.K.K.K.G.S.A.k.d.f.S.x.z ^ 5.7.8.7. .$.-.q = p g u.m.J.J.m.m.J.K.J.K.K.",
"J.H.P.K.K.I.K.K.K.K.P.K.G.Z.f.c.d.i 6 ` _ ` %.s.a.a = 0 w.m.K.I.K.K.K.I.I.K.K.K.",
"K.K.P.P.I.K.I.K.K.L.L.K.L.J.c.d.d.V >.e.>.a.c.n.k.f 0 w h.J.J.K.I.K.I.K.K.I.I.I.",
"K.K.K.P.I.K.K.K.J.J.J.J.J.J.H.k.V B e.d.A.S.D.D.l.*.N g k.H.m.G.K.J.J.K.K.K.I.K.",
"K.K.I.K.I.K.K.K.L.K.J.K.J.J.J.G.g.i.c.G.G.D.D.m.S.>.N *.l.H.H.H.J.K.K.K.K.K.K.K.",
"K.K.K.I.K.L.I.I.L.L.L.L.L.L.L.L.K.K.L.K.D.H.I.K.H.u.&.+.z.J.K.K.K.K.K.P.I.K.I.I.",
"J.J.J.J.J.J.J.K.J.J.J.J.J.J.J.J.J.J.J.J.H.H.H.H.S.*.C &.s.v.D.D.H.H.H.H.J.J.J.J."
};
