/* XPM */
static char *result[] = {
/* columns rows colors chars-per-pixel */
"40 40 218 2 ",
"   c #170F0E",
".  c #1D110A",
"X  c #131212",
"o  c #1B1415",
"O  c #1E1817",
"+  c #1E1C1C",
"@  c #2C170C",
"#  c #361D0F",
"$  c #3D1D0F",
"%  c #2A1815",
"&  c #241A1A",
"*  c #2D1D1B",
"=  c #331B16",
"-  c #321E1B",
";  c #361A1C",
":  c #2C211F",
">  c #3D271B",
",  c #201F20",
"<  c #361A20",
"1  c #262424",
"2  c #2C2525",
"3  c #2E2827",
"4  c #2C2C2C",
"5  c #322424",
"6  c #3A2525",
"7  c #3A2629",
"8  c #342C2B",
"9  c #3C2C2B",
"0  c #362E30",
"q  c #333232",
"w  c #3D3C3C",
"e  c #431D17",
"r  c #4C1B1C",
"t  c #57181A",
"y  c #49241B",
"u  c #542413",
"i  c #5B2612",
"p  c #552914",
"a  c #572C16",
"s  c #5D2C15",
"d  c #532B19",
"f  c #6D2C13",
"g  c #67261A",
"h  c #732C16",
"j  c #792D16",
"k  c #73271A",
"l  c #742B19",
"z  c #7A2D18",
"x  c #65341D",
"c  c #6A371B",
"v  c #743112",
"b  c #7E3314",
"n  c #72391C",
"m  c #7A3918",
"M  c #4A1B26",
"N  c #541F2B",
"B  c #63192A",
"V  c #78152C",
"C  c #771D31",
"Z  c #7C1D33",
"A  c #462927",
"S  c #4A2B23",
"D  c #582727",
"F  c #552925",
"G  c #4E3021",
"H  c #45322A",
"J  c #553324",
"K  c #5F3525",
"L  c #55332B",
"P  c #592B35",
"I  c #443332",
"U  c #493433",
"Y  c #443C3B",
"T  c #4B3D3C",
"R  c #543432",
"E  c #583737",
"W  c #5C333C",
"Q  c #543C3B",
"!  c #5C3C3B",
"~  c #6C2824",
"^  c #642D2A",
"/  c #6D2D2A",
"(  c #752623",
")  c #643925",
"_  c #693921",
"`  c #69332B",
"'  c #613A29",
"]  c #743D21",
"[  c #77362A",
"{  c #692A35",
"}  c #682A38",
"|  c #782639",
" . c #643634",
".. c #623C3A",
"X. c #683939",
"o. c #743936",
"O. c #7B3936",
"+. c #773C39",
"@. c #7E401E",
"#. c #5E4338",
"$. c #7D4123",
"%. c #7D462E",
"&. c #73423F",
"*. c #553C41",
"=. c #5A3D44",
"-. c #6A3A44",
";. c #763644",
":. c #454344",
">. c #4D4242",
",. c #4B4846",
"<. c #4E4B4C",
"1. c #534443",
"2. c #5C4544",
"3. c #5B4847",
"4. c #544A4B",
"5. c #5C4C4C",
"6. c #584F51",
"7. c #545353",
"8. c #5E5555",
"9. c #5D595A",
"0. c #634645",
"q. c #6D4745",
"w. c #634947",
"e. c #634C4A",
"r. c #764947",
"t. c #64514F",
"y. c #6B4C53",
"u. c #625454",
"i. c #625857",
"p. c #625C5B",
"a. c #84380E",
"s. c #8C3D0E",
"d. c #823513",
"f. c #863914",
"g. c #8B3C12",
"h. c #8B3918",
"j. c #820F2A",
"k. c #970D2D",
"l. c #871C35",
"z. c #981433",
"x. c #833D22",
"c. c #873D3A",
"v. c #95460F",
"b. c #874318",
"n. c #8A431C",
"m. c #954212",
"M. c #9C4614",
"N. c #9D4816",
"B. c #95421C",
"V. c #9B4619",
"C. c #984B1D",
"Z. c #A24B16",
"A. c #A44B1A",
"S. c #A94E19",
"D. c #AD5217",
"F. c #A45019",
"G. c #AD541A",
"H. c #B2551C",
"J. c #B8571C",
"K. c #B6591C",
"L. c #BB5B1D",
"P. c #884726",
"I. c #934D26",
"U. c #9A4D22",
"Y. c #82413E",
"T. c #90563C",
"R. c #A44C21",
"E. c #AC4E20",
"W. c #A55223",
"Q. c #AD5321",
"!. c #B25522",
"~. c #B65C25",
"^. c #BC5C23",
"/. c #B55B28",
"(. c #BE6125",
"). c #C05D1E",
"_. c #C1611F",
"`. c #C25E23",
"'. c #C15F28",
"]. c #C56224",
"[. c #CD6625",
"{. c #CE6825",
"}. c #C46129",
"|. c #CE6728",
" X c #CF6828",
".X c #D06626",
"XX c #D16824",
"oX c #D16729",
"OX c #D06828",
"+X c #8C2C42",
"@X c #874845",
"#X c #934F4C",
"$X c #81514F",
"%X c #915943",
"&X c #955856",
"*X c #A35F5B",
"=X c #A7635F",
"-X c #9D6A67",
";X c #A96966",
":X c #AC7F7D",
">X c #BF9695",
",X c #B9A09E",
"<X c #C29B99",
"1X c #C0A19F",
"2X c #CBA6A5",
"3X c #CFAAA8",
"4X c #C9B6B5",
"5X c #D1B8B6",
"6X c #CBC4C4",
"7X c #D8CAC9",
"8X c #DBD7D7",
"9X c #E5DCDA",
"0X c #E9E0DF",
"qX c #ECE5E4",
"wX c #ECEAE9",
"eX c #F2EFEF",
"rX c #F6F4F3",
"tX c #FAF7F6",
/* pixels */
"G.H.H.H.H.H.H.H.H.H.H.H.H.H.H.G.H.H.H.H.H.H.H.H.H.G.H.H.H.H.H.D.M.s.d.k s.Z.H.H.",
"}.[.{. X|. X X[.{.OX[. X X[.|.(.~.~.~.~.~.~.~.(.[. X{.OX X}.`..X`.H.v.j d.Z.].|.",
"].[.[..XXXOX[.OX[.OX.X.X[.~.W.] ) ' ' ' ' ' K x I.~.]..X{.].].[.].`.s.j s.D..XoX",
"].{.OX{.[.[.OX[. X.X.X].~.$.J A U ,.1.1.,.:.*.I S x W.|.H.S.].[..X`.Z.j d.g.`.`.",
"}.[..X|..XOX|.OX X|.[./.$.R 1.1.1.8.8.8.8.8.8.1.#.w ) W.^.H._.{.|.`.S.f.s.S.{.{.",
"}.[.|.|. X|.OX|.|.|./.P.E 4.i.e.2.u.u.8.t.u.8.*.,.7.#.) W.^.`.^.!.G.g.h d.N.`.[.",
"].{.|..XOX|.|.|.|.}.P.L #.8.u.5.0.u.i.i.i.8.u.2.4.4.<.9 c ~.].`.`.^.m.l d.Z.].].",
"].{.|.oX|.OXOX|.|.Q.` I ! t.i.i.2.u.p.p.p.p.t.5.8.7.>.9 y U.[.[.).S.v.b g.M.J._.",
"Q.H.H.K.K.!.K.K.H.x.H I ..e.p.i.0.0.u.u.u.u.w.w.i.i.1.9 5 c W.Z.g.g.g.h d.M.G.!.",
"j j z z z z z z j g A U 3.w.e.u.3.0.u.i.i.u.w.q.t.5.1.I 7 y z z b z z k l j b l ",
"A.A.A.S.A.S.S.A.R.m F U 4.X...u.u.5.i.p.p.i.t.u.u...Q Y 8 x Z.A.A.A.S.A.Z.A.A.A.",
"`.].|.|.[.|.|.|.[.P.F I ! c.o.u.i.0.e.u.u.t.e.i.y.Y. .H 7 n ^.[.[.[.[.[.[.|.[.[.",
"}.{.{.[.[.].`.).W._ S F @X<X;X+.w.0.w.u.u.q.w.q.&X<X&XF - d W. X[..XOX|.|.[.[.[.",
"].{..X[.[.].].`.I.S 5 F =X9X7X;X .5.0.u.u.0.! $X1X9X1X/ % - n.].[.[.|.|.[.OX{.[.",
"].[..X{.[.[..X[.T.U - r ;XqXtX5XO.E #.0.0.! / :X0XrX3X/ % 2 %.F.|.[.|.[..X`.[.[.",
"].].[.}.].^.^.^.%X2.6 e ;XqXtXqX;X^ ..X.! ^ @X5XtXrX2X/ & 8 T.].|.|.|.|.[.K.^.[.",
"`.|.oXoX|.|..X].I.Q y r ;X8XrXtX4X+.X.` ^ / >X9XtXwX2X/ % 9 P.[.[.[..XOX.XOX|.[.",
"].|..X.X|.[.`.[.G.x > t ;X7XwXrX0X;X~ ^ g ;.4XeXeX9X<X~ = d I.}..X[.|.].]. X.X[.",
"].OXXXXX[.`.D.].`.C.c r c.,X6X8X7X;X( L L c.3X9X7X4X-XD p b.L.].[..X{.G.L.XX[..X",
"`.].`..X_.`.).H.Z.m.b d F @X*X;X;X@X&.Y #.X.#X;X-X#X^ d b.H._.].[.].]._.).{.].].",
"b b b d.b b b b b b h e A ^ ( +.Y.r.y.T 1.e.X.o. .^ y $ h b b b b b d.b b b b b ",
"z d.d.b d.b d.d.d.d.v f e M R 2.0.&.0.1.2.2...Q U 6 = u v d.d.b d.m b b d.b b k ",
"G.D.G.G.H.G.G.G.G.G.F.m e   O 6 R E Q Q Q Q R 5 & X # b.G.G.G.G.G.G.G.H.D.Z.g.l ",
"`.|.].[.[.].{.[.[.`.R.k t % o & = - : - * : * % o ; r P.^.{.{.XX.X.X.X{.}.!.h.v ",
"}.[.{.[.{.|.|.|.].I.[ l.k.j.B M 1 + o o o X , 6 B V Z { [ G.G.G.D.D.G.G.S.Z.m.b ",
"].[..X|.|.OX.X}.C.G I 0.;.l.k.l.6.*.0 5 8 *.4.;.z.l.-.*.K R.!.!.E.!.Q.Q.Q.V.h.b ",
"].{.{. X|. X|.W.J 3 q :.:.7 V z.y.6.P B P <.8.+XV M :.*.J W.^.!.!.Q.E.E.R.h.d.l ",
"}.OXOX.X|.[.`.P.8 4 1 3 1 X < V ;.=.=.V } =.;.C M 4 w w H b.K.H.H.D.A.Z.N.V.h.d.",
"}.[..X X.X|.~.a 1 2 : p p @ + N V Z =.C P } | M 8 4 :.<.:.] ].}.[.].].}.^.G.f.b ",
"H.K.K.K.K.J.G.a : * u a.m.g , 0 =.Z } *.W | } 9 , , w 7.,._ H.J.J.J.K.D.A.B.z l ",
"b d.d.d.d.d.b f u i f d.d.s 5 w *.-.} *.} } 2.:.1 X 1 w 9 i b a.d.d.f.d.d.d.v l ",
"f l h l h h h h f h h f h u , :.<.0 M N } *.<.<.4 X % = u f h j h h h h h j h l ",
"^.L._._.].).]._.].).`._.).b.= w 7.:.1 + 2 w :.<.4 # i v a.m.D.).(.K.`._.).)._.`.",
"}.^.].{.[.[.[.[.[..X[.[.[.W.y w 7.9.w X X , w #.9 p v s.Z.L..X.X[.L.[..X[.[..X[.",
"}.[.].OX[.[.XXXX.X[..X{.{._.I.H :.7.w O . % 3 5 p v v s.J.XX.X.X{.[.[.[.{.[.{.[.",
"_.[.[.[.OXOXXX_.{.{.{.XX{.{.(.x q w q > c n n @.b.g.d.g.`.`.J.oX.X{.{.[..X[.[.[.",
"].XX|.[.|.[.[.}.}.].`.].(.].(.@.L #.L c E.A.R.R.V.z j d.!.`.^.'.].].].].{.[.|.[.",
"].{. X[.[..XXXXXOX{.{.XX_.XX{.L././.~.(.^..XoXXX].s.d.s.L.]..X`.{..XOX|.{.XX[.[.",
"].{.{.[.OX[.{.{.{.{.{.{.{.{.{.{.|.{.[.[.`.].].`.!.f.b a.!.`.'.'.`.]..X|.[.{.{.[.",
"N.N.Z.Z.Z.Z.Z.Z.Z.Z.Z.Z.Z.Z.Z.Z.Z.Z.Z.Z.A.Z.Z.Z.Z.h.j d.g.Z.Z.Z.Z.A.A.Z.Z.Z.Z.Z."
};
