/* XPM */
static char *result[] = {
/* columns rows colors chars-per-pixel */
"50 50 221 2 ",
"   c #040404",
".  c #0D0606",
"X  c #0D0B0B",
"o  c #140B0A",
"O  c #1C0C0B",
"+  c #141414",
"@  c #1B1516",
"#  c #1F1718",
"$  c #1C1C1C",
"%  c #270B0B",
"&  c #2B1305",
"*  c #36180A",
"=  c #241A1B",
"-  c #281A18",
";  c #381C19",
":  c #2C221C",
">  c #372219",
",  c #381B21",
"<  c #232323",
"1  c #2C2423",
"2  c #2C2A2A",
"3  c #332524",
"4  c #3A2622",
"5  c #342A2A",
"6  c #3B2E2D",
"7  c #3C302F",
"8  c #333333",
"9  c #3B3435",
"0  c #3B3B3B",
"q  c #4C171D",
"w  c #49230D",
"e  c #532A0E",
"r  c #472516",
"t  c #4D2D1A",
"y  c #532B12",
"u  c #562A17",
"i  c #57321B",
"p  c #7D340D",
"a  c #6D2517",
"s  c #6C251C",
"d  c #692B19",
"f  c #732C16",
"g  c #7A2E16",
"h  c #79241E",
"j  c #752D1A",
"k  c #792D19",
"l  c #663519",
"z  c #763010",
"x  c #7D3215",
"c  c #76321C",
"v  c #7C311A",
"b  c #5A1D2A",
"n  c #7E0F29",
"m  c #462425",
"M  c #422D2C",
"N  c #4A2C2A",
"B  c #562B2A",
"V  c #4B312F",
"C  c #55332A",
"Z  c #5B2E37",
"A  c #413232",
"S  c #4D3432",
"D  c #433D3C",
"F  c #4C3D3C",
"G  c #533433",
"H  c #5C3432",
"J  c #533D3D",
"K  c #5D3C3B",
"L  c #6D2926",
"P  c #792823",
"I  c #673826",
"U  c #793226",
"Y  c #792437",
"T  c #633532",
"R  c #6C3633",
"E  c #683939",
"W  c #743633",
"Q  c #743A37",
"!  c #7C3A36",
"~  c #7C3D3A",
"^  c #7F441F",
"/  c #4D403F",
"(  c #57403E",
")  c #734025",
"_  c #63413F",
"`  c #73413E",
"'  c #7B413E",
"]  c #5A3D43",
"[  c #693641",
"{  c #434242",
"}  c #4D4342",
"|  c #4C4B4B",
" . c #534443",
".. c #5C4342",
"X. c #554448",
"o. c #544B4B",
"O. c #5B4D4D",
"+. c #5C504F",
"@. c #535353",
"#. c #5C5555",
"$. c #5C5C5C",
"%. c #634544",
"&. c #6B4543",
"*. c #654848",
"=. c #644B4B",
"-. c #6C4C4B",
";. c #744643",
":. c #7C4643",
">. c #744946",
",. c #7B4946",
"<. c #744D4A",
"1. c #7D4D4B",
"2. c #69504F",
"3. c #72504E",
"4. c #7F504D",
"5. c #645251",
"6. c #6C5454",
"7. c #6B5A5A",
"8. c #735553",
"9. c #7B5553",
"0. c #735B5A",
"q. c #636262",
"w. c #951711",
"e. c #82370C",
"r. c #8C3E0C",
"t. c #913F0C",
"y. c #93221D",
"u. c #813413",
"i. c #853A13",
"p. c #8B3B12",
"a. c #82331B",
"s. c #88391B",
"d. c #923F14",
"f. c #8B122E",
"g. c #A5072B",
"h. c #B5052E",
"j. c #852723",
"k. c #90242D",
"l. c #8A3729",
"z. c #863A36",
"x. c #933B36",
"c. c #B83528",
"v. c #8E410C",
"b. c #93420D",
"n. c #9A450E",
"m. c #95480E",
"M. c #8D4313",
"N. c #88481F",
"B. c #944312",
"V. c #994513",
"C. c #9A471A",
"Z. c #A44D15",
"A. c #AC4E15",
"S. c #A44E1B",
"D. c #AB4E1B",
"F. c #AB5119",
"G. c #A9541A",
"H. c #B75B17",
"J. c #B3551B",
"K. c #B55B1D",
"L. c #BC5C1D",
"P. c #844427",
"I. c #8A4525",
"U. c #9A4522",
"Y. c #82423E",
"T. c #93423C",
"R. c #A74923",
"E. c #AB4D24",
"W. c #AB5322",
"Q. c #A85626",
"!. c #AE5925",
"~. c #B35423",
"^. c #B45A22",
"/. c #BC5C23",
"(. c #BB5926",
"). c #BF6122",
"_. c #B4622D",
"`. c #C05E1E",
"'. c #C2621D",
"]. c #CE631E",
"[. c #C25D22",
"{. c #C85F26",
"}. c #C55E2A",
"|. c #C46224",
" X c #CD6625",
".X c #CE6826",
"XX c #C56329",
"oX c #CE6728",
"OX c #CE692A",
"+X c #D16726",
"@X c #D26925",
"#X c #D16629",
"$X c #D16A2A",
"%X c #D86B2A",
"&X c #8B4541",
"*X c #874945",
"=X c #894A46",
"-X c #824E4B",
";X c #974743",
":X c #954A46",
">X c #9B4A45",
",X c #934D49",
"<X c #85514E",
"1X c #8B514D",
"2X c #92514D",
"3X c #845452",
"4X c #8C5552",
"5X c #825A57",
"6X c #935552",
"7X c #A66C69",
"8X c #B87976",
"9X c #BA7E7C",
"0X c #C4817E",
"qX c #BD8684",
"wX c #B4B2B1",
"eX c #C88481",
"rX c #C8C7C7",
"tX c #D8D6D5",
"yX c #DBDBDB",
"uX c #EDECEC",
"iX c #FFFDFC",
/* pixels */
"S.F.F.F.A.F.F.F.F.F.F.F.A.F.F.F.F.F.F.F.F.F.F.F.F.F.F.F.A.F.F.F.F.F.A.F.D.F.F.Z.r.r.e.g s b.B.A.D.D.",
"XX.XOX$X$XOX$X$X$X$X$X$X$XOX$X$XOX$X$X$X$X$X$X$XOX$X$XOXOX$X$X$X$X$XOX$X$XoXOX@X|.~.B.r.s k p.|.OX#X",
"|. X X X.X X.X X X.X X X.X.X X X X X X X.X X XoX XoX X X.X.X X X X X.X.XXXn./.@X+X#XL.b.x r.r.[.|.oX",
"|. X.X+X+X+X.X+X X+X@X@X+X X@X+X@X+X@X X/.!.!.^.^.!.^.!.!.(.oXOXoX+X+X$X$XOX$X X{.~.D.u.k p.m. X#XoX",
"|. X.X#XoX X#XoXoX$X XoX XoX.XOX X#XXX/.) 1 1 3 3 4 3 3 1 C /.|. XoXOX^.M.J. X+X X X{.v.k g p.~.[.|.",
"XX XoXoXoX$X$XoXoX+X#XoXOXoXoX.XXX).P.B K E &.=XT.T.T.:...2 $ i ^.).OX[.Z.H.@X@X+X+X[.b.s.p.M.|..X X",
"|. X+XoXoX#X X#X#XOX$X X#X XOXXXP.M K ' &X>X;X>X4X7.+.=.1.1.%.5 $ i /.oX X X|.}.|.[.~.e.f r.B.{. X X",
"XX X X$XoX.XoXoX XoXoX#XoX$XXXl 2 ] 4.6X3X7.6.9.4X9.5.O.-.<X,XY.G 2 r W.~.~.W.D.S.U.d.g s k x ^./.XX",
"). X XOXoXoXoXoXoXoXoXoX.X|.I 2 ] 1.1X,X3X6.#.#.6.<X,X1X<X<X*X*X` S 5 t /. X@X@X@X@X/.b.k p.d.|.+X X",
"XX X+X#X#X#X#X#X#X#XoX#X@XI 5 %.-X1.2.2.9.3X9.6.8.3X>X&X1.=.o.=.` R G 5 i  X X X|.A.B.v.v t.t.F.H.[.",
"/.`.'.|.[.`.|.`.[.[.|.|./.) ( 1X2X1.+.@.5.1.:X>X4X6.6.8.>.=.| o.-.` R N i (./.Z.b.v.b.M.a i.b.L.`.[.",
"f f k k g g k k k g g f r N ;.1.1.3.3.6.9.3X,X,X1.5.@.o...>...| O.[ W R N r k k g k k h s s j g g j ",
"g x x x u.x x x g x x x L E >.+.#.<.;X>X5X6.#.5.3.2.o.} O.>.1.>.-.~ z.z.T r g u.x x u.x x v x p u.v ",
"^.L.[./.`.[.[.[.[.`.L.[.I.' 1.3.3.<X2X4X6.X.O.2.1.=X1.>.1.*X&XT.-X,.Q Q T 4 t L.[.L.`.`.[.L.`.[.L.L.",
"|. X X+X+X@X$X$X#X$X$XOXI.` <X2X<X8.5.8.1.z.l.3X2X:X&X>.*.*.>.&.O. .J T R m t @XoX$X X#XoXOX$X#X@X X",
"|. X.X$X X|.|.[.|.`.[.|.P._ <X2X<X9.9.0.! 8XqXl.3.-.%.} / / ....} J V T T N t OXoX+X XoXoXoXoXOX X X",
"XX X XoXoX X|.{./.L.J.F.l.~ =X,X>X9.q.! 6XyXuX9XP %.../ 0 F ( %. .J N H T N t ]. XOX.XOXoXoX XoX X$X",
"XX X+X#XoX+X X+X+X+X+X@XE.x.&X>.3.7.H 5XyXiXuX9Xh %._ / { / _ _ F A S H T N t |. X X.XOX#X+X#XOX@XoX",
"|. XoX.X X X+X+X@X X X XR.k.z.:.6.q.! eXiXiXuX9Xj.%.E } 5 - ; m M 7 S H T N ; n.oX+X XOX X+X).J..XoX",
"XX|. X|.|.|./.(.(.(.~.W.W.l.~ *X8.H 5XtXiXiXuX9XP &...9 + 1 m m 3 A N H T N y  XoX XOX#XoX@X/.A.|..X",
"XX X X%X#XoX{.oX|.|.[.(.~.U E &X8.! eXiXiXuXyX9Xj.3.=.6 $ D &.G 3 7 G H T N t  X X X+X#X#X#X+XOXOX#X",
"|. X.X XoX#X#XOX@X+X#X#X$XP.Q &Xh 5XtXiXiXuXyX9Xy.x.x.*X>.;.<XG - 9 J E T m t .XoXoX.X X#X+XOXOX$X X",
"|. X XOX X XOXJ.D.oX].@XOXI.E ( L 0XiXuXyXyXrX7Xj.;.-.*.&.! x.U L ! ! ! T l |. XOXOXoXOXG.L.@X X+X X",
"XXOX X X@X+X XJ.A.oX#XJ.n.c _ +.#.! 8XyXrXwX7Xj.` %.} { J H B 3 A H z.U m u ].+X+X+X X.XF.J.@X X+XOX",
"/.'.|.|.|.`.]. X|.J.n.M.i C <.3X0.q.z.w.w.w.y.x.;.} { } G q > 2 M H W B e [.'.|.|.{.|.'.'.|. X|.|.|.",
"x x u.u.u.u.u.u.x u.u.u.r 6 =.4X6X3.#.} ( :.=X:X-X>.%.E T A 2 5 C T C - % u.u.u.u.u.u.u.u.e.u.u.p u.",
"j j k j j k k k k j j g r < 9 =.3X<X&...;.;...|  .;.x.x.Q S A G T N = & k g c j j j c g j c U j f L ",
"p.b.v.v.b.v.r.t.t.r.t.t.r.* @ 0  .>.*X=X;./ { / _ ' Q E E ~ z.R M + & e.r.r.v.v.b.v.M.v.r.t.t.t.p.j ",
"/.`.|.|.|.|.|.|.|.|.).|.|.^.e # 1 F <.=X' &.&.:.' H 6 6 S E E ; . w W.).'.|.|.|.|.|.'.|.'.|./.C.e.a ",
"XX XoXoX X X X.X X+X X X X X|.i @ - N H W W ! z.R S 6 3 = o o w ^./. XOX#X@X@X@X@X#X%X@X.XOX/.C.a.k ",
"|. X.X X.X X.X XoXOXOXoX#X XoX[./.l O O % % % % % o o X X t S.G.K.J.J.J.G.G.F.F.G.Z.S.Z.Z.Z.S.V.b.u.",
"|. X.X#XoXoXoXOXoX X+X+X+X XoX X X|.l = 2 9 Z f.h.f.Y K 0 1 i (././././.}.|.|.|.|. X|. X X|.|.Z.B.z ",
"XX X XOX#XoXoX.XOX#X@XOXOX X X X@X^ 6 X.#.O.f.h.f.O.q.#.{ < i ).(.~.E.E.U.C.s.s.l.s.a.a.g g j.f s s ",
"XX X.X XoX#XoX#XoXoXZ.M.K.+XoX#X+Xl.b [ 6.*.f.f.< 2 ] @.{ 1 i .X@X@X@X@X%X@X$X$X X+X|.{.}./.!.C.z x ",
"XX X XOXoX X#XoX+X XF.n./.@X X#XoXc.g.Y ] [ f.q $ 8 2 8 2 $ y J.XX'.|.`.`.H.H.F.A.D.Z.Z.V.V.C.p.p.x ",
"|. X+X+X#XoX#XoX X X@X X.X XoX#XoXc.n b N , # @ $ < 8 8 < > /.oX.X X X|.|.|.|.|.|.|.|. X X|.|.V.i.x ",
"XX|. X X X XoX X X X X X X X X X+X{.j , : < 8 { 0 2 8 2 + r  X X XoX.X X X+X.X XoXoX|.|.(.~.U.a.a j ",
"p.B.b.v.B.b.b.v.b.B.b.b.b.b.b.b.t.t.y @ < 0 @.q.$.0 2 < $ $ e M.B.B.b.p.v.b.v.b.b.B.V.B.t.n.V.v.z j ",
"g j x k g x c x g g c g x k g v g y - @ $ 0 @.q.$.0 < +     % x g g g g g g x g k c z x x x g c f a ",
"a j f f f f f f f f f f f f f f h * % %   $ 0 0 < X   + 2 $ ; j d a j j g f f g f g j a f f f f f j ",
"L.`.'.|.L.|.`.`.[.|.[.L.'.[.L.|.'.) + = + + X X $ 0 0 8 8 < i b.k z p.r.r.V.K.'.L.H.L.[.[.L.|.L.|./.",
"|.|.F.|.oXoX XOXoX XoXoXoXoXoX XN.: $ < < $ X   + | $.@.{ 1 i V.v p B.r.A.XX+X+XoXF.L.oX.X X XOX XoX",
"XX|.`. XoX X$X XoXoX X@X X XoXN.: + $ < < + w C.I 0 q.$.{ < r j a x r.G. X X X+XoXOX@X XoX X.XoX X X",
"|.OXOXOX#X X X.X X.X X X.X X^ 3 2 < < < + e !..XK.) 0 @.{ 2 : w i.v t.L.]..XOXoX X+X X X@X.X+X+XoX X",
"|. X X X X$X X X].+X X.X.X+Xl $ 2 8 < < + l .X.XN.: 2 0 8 8 $ * i.x b./.#XL.J.$X$X X.X+X X X X+XoX X",
"|. X+X+X#XoXoX X XXX|.|.[./.Q.t + $ < + w C.Q.W.l 2 { { D < * d f x u.W./.K.~.XX}.|.|.|.|. X X XoX X",
"|. X XoXoX X X@X@X@X@X@X@X.X@XL.Q.Q.Q.G./.@X@X@X).Q._._._.G.^.V.p.x v.K..X.X.X]..X].$X$X@X@X X.XoX X",
"XX X+X X X.X+X.X.X X XoX X X X X X X X X X.X.X.X.XG.G.OX X X|.d.p.x b./.OX.X.X.X.X.X X.X.X.X]. X X X",
"XX XOX.X.X X.X.X.X.XOX.X.X.X.X.X.X.X.X.X.X.X.X.X.X.XOX|.|.{.~.p.j c e.R.J.(.(.(.}.}.{.{.#X X X.X@X X",
"M.B.V.V.V.V.V.V.V.b.V.V.V.V.V.V.V.V.V.V.V.V.V.V.V.C.C.C.V.V.V.d.a.k p.d.t.B.V.V.V.V.V.C.V.V.V.V.V.V."
};
