/* XPM */
static char *result[] = {
/* columns rows colors chars-per-pixel */
"40 40 213 2 ",
"   c #151515",
".  c #181515",
"X  c #1D1D1C",
"o  c #210E12",
"O  c #211514",
"+  c #2A1714",
"@  c #231D1C",
"#  c #2C1B1D",
"$  c #351817",
"%  c #3B1E1B",
"&  c #3F200C",
"*  c #3D2315",
"=  c #2E1E21",
"-  c #222222",
";  c #2E2523",
":  c #2B2B2B",
">  c #332525",
",  c #372725",
"<  c #342A29",
"1  c #3E2D2C",
"2  c #3B332F",
"3  c #343434",
"4  c #393331",
"5  c #3E3E3E",
"6  c #4C0F18",
"7  c #58250F",
"8  c #4A2918",
"9  c #5B2A13",
"0  c #562B18",
"q  c #5E341D",
"w  c #6D2C15",
"e  c #662918",
"r  c #732C16",
"t  c #7A2E16",
"y  c #73271A",
"u  c #742B19",
"i  c #7A2D18",
"p  c #683418",
"a  c #7D3314",
"s  c #743C18",
"d  c #7E3B1B",
"f  c #5D1D2A",
"g  c #631527",
"h  c #472625",
"j  c #452C24",
"k  c #462C2B",
"l  c #4D2C2A",
"z  c #5A2C25",
"x  c #572D29",
"c  c #46302F",
"v  c #4C332E",
"b  c #5B3127",
"n  c #553128",
"m  c #5A312F",
"M  c #443534",
"N  c #4C3433",
"B  c #453A3B",
"V  c #493C3B",
"C  c #553432",
"Z  c #5D3432",
"A  c #5A3637",
"S  c #533C36",
"D  c #5B3D3B",
"F  c #622E2A",
"G  c #6D3B20",
"H  c #64312E",
"J  c #6A352C",
"K  c #6C3D2A",
"L  c #763628",
"P  c #6C2837",
"I  c #792538",
"U  c #623431",
"Y  c #643A35",
"T  c #6D3A36",
"R  c #663C3A",
"E  c #6C3D3A",
"W  c #703532",
"Q  c #7B3835",
"!  c #743D3B",
"~  c #7A3E3A",
"^  c #7F411C",
"/  c #5A413F",
"(  c #6E402B",
")  c #7B4222",
"_  c #764229",
"`  c #7D4229",
"'  c #67413F",
"]  c #6D403E",
"[  c #7A4D37",
"{  c #74423E",
"}  c #7A433C",
"|  c #5E3C44",
" . c #6D3945",
".. c #414141",
"X. c #4C4242",
"o. c #4A4A4A",
"O. c #534242",
"+. c #5C4342",
"@. c #504D4D",
"#. c #5A4A4A",
"$. c #595959",
"%. c #634442",
"&. c #6C4442",
"*. c #644847",
"=. c #6C4947",
"-. c #654C4A",
";. c #6B4C4A",
":. c #724543",
">. c #7C4643",
",. c #724846",
"<. c #7D4946",
"1. c #754D4B",
"2. c #7B4D4B",
"3. c #75514F",
"4. c #7C514F",
"5. c #624D51",
"6. c #645150",
"7. c #6C5452",
"8. c #725553",
"9. c #7B5452",
"0. c #83360D",
"q. c #8D3D0E",
"w. c #833613",
"e. c #863915",
"r. c #8B3C12",
"t. c #873C1B",
"y. c #940E2D",
"u. c #861630",
"i. c #902228",
"p. c #8A3B36",
"a. c #8E3934",
"s. c #953B37",
"d. c #93440E",
"f. c #8E4415",
"g. c #8B451C",
"h. c #964212",
"j. c #9C4614",
"k. c #9D4815",
"l. c #94421C",
"z. c #9B4619",
"x. c #934A1E",
"c. c #9B4C1C",
"v. c #A24B15",
"b. c #A94E15",
"n. c #A44B1A",
"m. c #A84D1C",
"M. c #AD5217",
"N. c #A0501D",
"B. c #AD541B",
"V. c #B2551C",
"C. c #B8571C",
"Z. c #B6581C",
"A. c #BB5B1D",
"S. c #844523",
"D. c #89492B",
"F. c #964B22",
"G. c #974827",
"H. c #9E4E2A",
"J. c #965026",
"K. c #995027",
"L. c #83403C",
"P. c #8A4638",
"I. c #9D4831",
"U. c #A44C21",
"Y. c #AC4E20",
"T. c #B64E22",
"R. c #A55323",
"E. c #AC5323",
"W. c #A9562A",
"Q. c #B25522",
"!. c #BC5525",
"~. c #B25B27",
"^. c #BC5C23",
"/. c #AB5E34",
"(. c #C25E1F",
"). c #C2611E",
"_. c #C25E23",
"`. c #C15F28",
"'. c #C56224",
"]. c #CD6625",
"[. c #CE6825",
"{. c #C16228",
"}. c #CE6728",
"|. c #CF6828",
" X c #D06626",
".X c #D16825",
"XX c #D16729",
"oX c #D06828",
"OX c #854844",
"+X c #844C49",
"@X c #8B4D4A",
"#X c #83514F",
"$X c #8A504D",
"%X c #97504C",
"&X c #875452",
"*X c #955450",
"=X c #A05C59",
"-X c #956764",
";X c #A77573",
":X c #B1807E",
">X c #B48987",
",X c #BDA2A1",
"<X c #C19C9B",
"1X c #C9A8A6",
"2X c #CDA8A7",
"3X c #D1B5B3",
"4X c #D6C1BF",
"5X c #D9CAC9",
"6X c #D4D0D0",
"7X c #E0D2D0",
"8X c #E7E5E4",
"9X c #F1EFEE",
"0X c #F8F5F5",
/* pixels */
"B.V.V.V.V.V.V.M.V.V.V.V.V.M.V.V.V.V.V.V.B.B.V.V.V.B.V.V.Q.V.V.m.h.q.0.y q.z.Q.V.",
"'.].[.[.|.|.oX|.|.|.|.|.oX|. X|.{.{.{.{.{.{.'.].[.oX|.|.|.'._. X'.Z.d.i w.v.'.'.",
"'.|.].|.]. X|.|. X X XoX|.].].^.J.` ` ` ` _ _ K.^.].|.oX|.'._.].'.A.h.t q.v.].].",
"{.|. X X X X].|.].|.oXoX]._.W.D.' D E ! ! ] Y T D.W.{.}.V.b.'.|.].'.j.t w.z._.].",
"'.].].XX X|.|. X|.|.|.'.W.S.T { &.=.-.4.$X$X#XOX} } D.~.^.B.).|.].'.v.e.r.b.].].",
"'.|. X}.|.|.|.|.|.|.{.R.( Z } +X4.1.3.4.9.7.7.#X$X2./ ( R.{._.^.!.Y.r.r w.k._.'.",
"{.|.].XXXX}.|.|.|.].R.( C E ,.=.1.OX@X#X7.7.8.4.4.4.,.D ( R._._._.^.h.r w.n.'.].",
"_.].}.XX].}.XX}. X{.S.m Y ' #.#.=.1.4.4.#X$X$X7.6.6.+X+XD D.'. XA.M.d.a r.j.A.).",
"Q.V.Z.V.Z.V.Q.Z.B.F.J W ! *.#.*.=.#.5.6.4.@X#X8.3.1.1.4.] K x.k.q.r.r.r w.j.V.V.",
"r i t t t r t t y 0 F W ! ,.,.>.,.%.#.;.3.;.6.9.$X@X4.6.,.T d a t i i y u r t u ",
"z.n.m.m.m.m.m.n.d x U T &.=.>.>.,.=.<.+X2.1.,.1.4.4.4.4.4.} G.m.n.m.m.m.n.n.v.n.",
"'.].].].].].|.|.x.z U Z V #.%.%.+.+.:.<.OX*X=XOX3.3.9.$X+X{ W.].].].].oX|.]. X|.",
"'.|.|.].'._.(.(.g.b m C C X.+.D | ..+.%.OX>X3X;X4.7.4.@X@XP.~.|.]. X}.'.].].].|.",
"'.].].|.].]._._.x.b H C N V D C 3 B +.R p.2X9X5X-X=.8.<.L.I._.'.].|.|.}. X].|. X",
"'.|.].|.]. X]. Xx.b Z C k 1 h , ; 4 / ' p.2X0X0X<X1.7.1.~ I.b.M.].].|.|.]._.'. X",
"{.].]._.'.^.^.^.g.n U C c , k N > < +.] a.1X9X0X7X-X&.OX~ R.A.(.}.].].].|.C.A.|.",
"'. XXXoX].].].'.c.F U U N , C &.A C :.L.s.<X8X0X0X,XOX>.~ H.].].|.|. XoX X X|.|.",
"'.]. X X].]._.].A.L F W Y x F ~ ] &.:.~ a.>X6X7X9X4X&XE T H.'.].|.[.|._.'.|.|.].",
"'.|. X X]._.M.'.'.g.z W W C h x Z O.O.%.! %X>X,X1X:X9.-.' G.'.].[.[.[.B.A..X X].",
"^.'.'._.]._.).A.j.f.e x H N , , l D O.+.>.p.a.p.p.1.8.9.;.Y N.'.'.].).'.(.'.].'.",
"a a t w.0.a a a a a 7 % l C c 1 C E { :.,.>.>.R / -.9.4.+.1 p a a a a a a w.a t ",
"a w.w.a a a w.a w.a t 7 $ h b Y Y T Q  ./ O.+.:.>.1.,.O.< 8 w a w.a a w.w.a a y ",
"m.M.B.B.B.B.M.B.B.B.M.b.s 0 8 H U N N R ] ' ' &.>.&.M j q f.b.B.B.B.B.V.M.v.r.r ",
"'.].].|.].].[.].].].[.'.^.B.d q $ = ; h H W J H b l q g.^.].[.[. X X X X{.Q.e.i ",
"'.|.].|.].|.|.].].|.].XX|.].{.x.h . + $ 6 6 $ $ + 8 g.M.V.B.V.B.M.B.B.M.m.v.h.w.",
"{.].].|. X X|. X X|.].].|.XX].g.4 |  .I y.u.A B k p R.!.Q.Q.Q.Q.Y.V.Y.E.R.n.t.i ",
"'.|.|.|.XX}.}.].V.B.'.].].}.].L 3 o.@.| f y. .5.| F W._._.^.^.~.Q.Q.Y.U.U.t.w.i ",
"'.|.|.|.|.oX].].b.v.].].oXXX`.S.> 3 3 : = g P | P i.T.).).A.A.V.V.m.n.v.j.z.r.w.",
"'.].].|.]. XXX]. X X[.|.}.|. XR.8 : : : - = = k f i.!.].].'.'.].].'.'.]._.B.e.a ",
"V.A.V.Z.V.C.C.C.C.C.A.Z.Z.A.A.n.0 - : 3 ..5 : = % t.V.V.Z.Z.C.C.Z.A.V.M.n.l.r y ",
"a w.e.w.w.w.w.w.w.w.w.w.w.w.w.7 .   - 5 $.$.| - # 9 w.0.w.0.w.0.w.w.w.w.w.w.a w ",
"w y r r r y r r r r r r u r w 8 .     - 5 o.: . o + e u u r t r r r r r r r r r ",
"^.A.).'.(.(.)._.).'.(.).(.(.A.s : : : : X     . O + p d.d.h.M.(.A.Z._.).).).)._.",
"'.^.).[.|.|. X|.|.|.|. X|.|.{.) 2 o.$./ 8 & . - - - 8 d.j.A.|.|.].^.].oX].].|.|.",
"'.'.].|. XoX]. X]..XXX X[.[.^.G 3 o.$.[ R.x.0 X X - @ p B.].|.|.].].].].]..X[.].",
"'.].].]..X.X)..X].)..X.X).].f.1 3 5 / J.'.[.x.* X - ; ; ^ Z.Z.|.[.[.].].].].|.].",
"'.|.|.|.|.|.].'.'.'.^.'.'.^.c.p v / S ) Q.U.U.p 8 1 1 8 g.A.^._.].'.].'.].].].].",
"'.].[.[.].]..X XoX.XoX.X.X.X].~.E././.~.^.]. X^.N.f.g.f.B.].[..X[.].XXXX].|.].].",
"'.[.[.[.|.].].].[.[.[.[.[.[.].].].[.].|.A.'.]._.~.w.a 0.E.^._._._.].].'.].].].].",
"k.k.n.k.v.v.v.v.v.v.v.v.v.v.v.k.v.v.v.v.n.n.v.v.j.r.i e.z.k.z.z.v.v.v.v.v.v.v.v."
};
