/* XPM */
static char *result[] = {
/* columns rows colors chars-per-pixel */
"50 50 224 2 ",
"   c #030202",
".  c #0C0604",
"X  c #0D0804",
"o  c #0A0A0A",
"O  c #170C0A",
"+  c #1A100F",
"@  c #181717",
"#  c #1C1515",
"$  c #1C1C1C",
"%  c #270E07",
"&  c #251206",
"*  c #341909",
"=  c #211915",
"-  c #271A16",
";  c #2C1E16",
":  c #321A13",
">  c #381917",
",  c #2F231D",
"<  c #372317",
"1  c #32211B",
"2  c #3B231B",
"3  c #232323",
"4  c #2C2323",
"5  c #2C2C2C",
"6  c #322524",
"7  c #3C2526",
"8  c #332B2B",
"9  c #3C2C2C",
"0  c #323232",
"q  c #3B3232",
"w  c #3A3A3A",
"e  c #4E1E0E",
"r  c #511F0E",
"t  c #461A17",
"y  c #651E1E",
"u  c #751919",
"i  c #5D2A08",
"p  c #44261A",
"a  c #592618",
"s  c #692E08",
"d  c #7D340D",
"f  c #6D2517",
"g  c #6C2A15",
"h  c #6C251C",
"j  c #732C16",
"k  c #7A2E16",
"l  c #73261B",
"z  c #752D1A",
"x  c #792D19",
"c  c #6B3717",
"v  c #7D3214",
"b  c #783717",
"n  c #7C311A",
"m  c #541724",
"M  c #442423",
"N  c #4C2623",
"B  c #462824",
"V  c #4C2A24",
"C  c #442D2C",
"Z  c #492B2B",
"A  c #572524",
"S  c #5A2423",
"D  c #542A27",
"F  c #522C2C",
"G  c #5A2E2C",
"H  c #53312F",
"J  c #5E3329",
"K  c #443231",
"L  c #4C3433",
"P  c #4C3F3F",
"I  c #553432",
"U  c #5B3533",
"Y  c #563836",
"T  c #5A3836",
"R  c #5C3C3A",
"E  c #642926",
"W  c #642B29",
"Q  c #792823",
"!  c #742B2A",
"~  c #7C2D2D",
"^  c #63312E",
"/  c #6C352A",
"(  c #7B3228",
")  c #672C38",
"_  c #702536",
"`  c #643533",
"'  c #6B3633",
"]  c #643836",
"[  c #68373B",
"{  c #643D3B",
"}  c #6D3C39",
"|  c #733533",
" . c #793331",
".. c #773739",
"X. c #7B3D3B",
"o. c #76401F",
"O. c #5C413F",
"+. c #7A4325",
"@. c #69413E",
"#. c #71423F",
"$. c #7A423E",
"%. c #613E40",
"&. c #733946",
"*. c #454343",
"=. c #4B4343",
"-. c #4B4B4B",
";. c #524443",
":. c #5C4342",
">. c #5A4847",
",. c #524D4D",
"<. c #5B4B4B",
"1. c #5B504F",
"2. c #545353",
"3. c #5C5353",
"4. c gray36",
"5. c #634443",
"6. c #6D4543",
"7. c #6D4946",
"8. c #634A49",
"9. c #6C4D4B",
"0. c #754542",
"q. c #7C4442",
"w. c #744946",
"e. c #734B49",
"r. c #7C4C4A",
"t. c #6B504F",
"y. c #76514F",
"u. c #635453",
"i. c #6B5453",
"p. c #675857",
"a. c #6B5857",
"s. c #645D5D",
"d. c #6B5D5C",
"f. c #725554",
"g. c #7C5553",
"h. c #755857",
"j. c #7B5A57",
"k. c #755B5A",
"l. c #626262",
"z. c #851414",
"x. c #881717",
"c. c #8E1D1D",
"v. c #901F1F",
"b. c #883F07",
"n. c #81340D",
"m. c #81380D",
"M. c #8C3E0C",
"N. c #903F0C",
"B. c #813413",
"V. c #853A13",
"C. c #8B3B12",
"Z. c #82331B",
"A. c #883A1C",
"S. c #903F12",
"D. c #953F19",
"F. c #8D0F2C",
"G. c #930A2A",
"H. c #951935",
"J. c #A00A2C",
"K. c #B70832",
"L. c #862727",
"P. c #8C2323",
"I. c #912020",
"U. c #873937",
"Y. c #8E410B",
"T. c #93420D",
"R. c #9B450D",
"E. c #95480E",
"W. c #8D4313",
"Q. c #87451D",
"!. c #8A451E",
"~. c #944312",
"^. c #994513",
"/. c #96441B",
"(. c #9B4719",
"). c #924B1C",
"_. c #A44D15",
"`. c #AC4E15",
"'. c #A44D1A",
"]. c #AB4E1B",
"[. c #AB5119",
"{. c #AA541C",
"}. c #B75B17",
"|. c #B3551B",
" X c #B65B1C",
".X c #BC5C1D",
"XX c #884821",
"oX c #944220",
"OX c #954B22",
"+X c #9D4A26",
"@X c #9E4D26",
"#X c #9D5121",
"$X c #87413E",
"%X c #A44B22",
"&X c #A94C23",
"*X c #A85324",
"=X c #B45423",
"-X c #BA5623",
";X c #B65923",
":X c #BC5D23",
">X c #BB5D29",
",X c #BE6123",
"<X c #C05E1E",
"1X c #C2621D",
"2X c #C25E22",
"3X c #C85F26",
"4X c #C55E2A",
"5X c #C46223",
"6X c #CD6625",
"7X c #CE6825",
"8X c #C56329",
"9X c #CE6728",
"0X c #CE682A",
"qX c #D16625",
"wX c #D26925",
"eX c #D16629",
"rX c #D16A2A",
"tX c #DB6D29",
"yX c #824442",
"uX c #894A47",
"iX c #8B4E4B",
"pX c #83514F",
"aX c #8C514E",
"sX c #845452",
/* pixels */
"'.[.[.[.`.[.[.[.[.[.[.[.[.[.[.[.[.[.[.[.[.[.[.[.[.[.[.[.[.[.[.[.[.[.[.[.].].{._.N.M.n.k l Y.N.].].`.",
"8X7X0XrXrX0XrXrXrXrXrX0XrXrXrX0XqXrX0XrXrXrXrX0XrXrX0XrXrXrXrXrXrXrXrXrXrX6X0XqX5X=X^.M.h x S.5X0X0X",
"5X6X6X6X6X7X6X7X7X6X7X6X6X7X6X7X6X6X7X7X0X6X6X9X6X9X6X0X6X7X6X6X6X6X7X7X5XR.>XqXqXeX.XT.n M.M.4X8X0X",
"5X9X7XqXqXqXqXqXqXqXqXqXqXqXqXqXqX5XOX@X@X@X%X%X@X@X%X@X*XeX6X0XrXqXqXqXrXrXrX6X4X-X'.n.j M.E.6XeX9X",
"5X6X6XeX7X6XeX9X9XrX6X9XeX9X9X5XOXXXZ F U U U I U T U F J OX#XeX6X6XrX;XY.|.6XqX6X6X2XY.x k A.|.3X8X",
"5X6XrX6X9XrXeX9X9X9X6XeX0X9X,X+.C Y } 6.e.e.9.9.e.e.e.5.} N V #X6X6X0X2X_.}.qX6X6XqX3XT.A.M.T.5XqX5X",
"8X6XrX9XeX9X0X6X6X9X6X6X9X>X+.7 { r.iXsXf.f.i.f.a.h.j.j.aXyXU 2 @X6X8X0X6X6X8X4X5X<X|.n.j M.~.5X6X1X",
"8X6X6XqX0XeX6XrXeX6X0X7X>X+.8 R e.pXiXg.d.i.i.p.i.i.d.k.aXsXe.Y 1 ).:X:X=X=X=X{.'.+XD.x h j Z.=X2X6X",
",X7X6X9XeX9X9X9X9X9X9X>Xc 5 Y w.y.i.g.g.3.3.u.3.3.u.p.d.sXk.k.e.L , (.0XqXqXqXqXqX7X3XT.k C.D.5XeX5X",
"8X6XqXeXeXeXeXeXeXeXeXXX4 H @.y.u.3.f.g.u.u.u.u.u.u.u.a.sXs.d.h.R C ; 0X0X0X7X6X1X`.~.Y.n M.N.[.}.3X",
">X1X1X5X<X<X5X<X5X5X=Xc C ..w.3.1.3.g.iXa.i.t.9.i.t.i.g.aXd.l.d.8./ 1 ).5X5X:X_.T.~.N.W.f V.T..X1X2X",
"j j j x k x x x j z a 3 I $.0.2.u.i.sXaXf.i.t.t.t.t.i.sXaXk.d.s.<. .C = j k k k x j x l h h x x k z ",
"k k B.v v B.v v v v a 6 T { e.u.f.g.g.sXp.u.3.2.1.<.u.g.sXh.j.d.t.} Y = n.k B.v v v B.v v n v d B.x ",
";X.X:X<X:X2X2X2X5X2XQ.7 I L y.g.f.i.a.g.p.3.2.2.2.2.3.g.h.a.h.h.e.Y K ; .X5X:X:X2X<X<X<X3X.X<X<X1X.X",
"5X6XqXrXqX6X0XrX0XrX*XF C K q.yXi.3.p.h.f.3.3.2.1.3.u.pXp.3.i.e.$XL 0 p 0XrX7XqX9XrX6XqXqX9XrXeXqX6X",
"5X6X7XqX6X6X5X2X1X2X&X^ 8 K q.q.3.2.p.sXpXi.i.t.t.u.i.iXp.3.2.w.U.U 8 V qX6X0X0X9XqX6X9X8X0X0X0X6X6X",
"8X6X6X9XqX5X5X3X:X{.A.E 9 Y 0.6.<.2.i.sXiXa.f.y.t.f.g.uXt.<.;.9.0.` 6 M *XqX6X1XwXqXqXrX9X9XqX9X6X7X",
"8X6XqXqXeXeXqX6X5Xo.M E Z ` :.8.9.5.7.g.iXp.u.u.u.t.g.yX5.5.8.r.;.G Z p ; *X5X1X0XqX6X0XqXqXeX0XqX6X",
"5X6XqX7X6X6XqXeXQ.$ C W W I 0 :.yX6.5.5.w.<.2.,.=.O.5.7.:.5.q.q.5 K G W 3 # R.R.0XqX0X0X7XqX,X|.7X0X",
"8X5X8X6X5X5X:X>Xo.3 ;.^ E 9 9 5.$X6.=.;.7.>.*.w *.*.7.>.*.>.$X$.0 9 D | -.# 1XwX6X9X9XeX0XqX:X`.5X7X",
"8X7X6XtXeX9X3X9XV.$ =.U S 8 9 [ $.6.*.=.9.7.=.O.P ;.0.*.*.:.X.] Y 8 M | w . 6X6X6X6XqXeXeXeXeX0X0XeX",
"5X6X6X6X9XeXeX7X).; q D S K I U K { >.;.7.$.:.O.O.5.q.O.P T I K ` C M ` 4 * 7X7X6X9X7X9XeXqX7X0XrX6X",
"5X6X9X9X6X6XrX|.].!.: a E ' T K 8 Y ] Y 6.$.5.O.O.#.X.I Y ' 8 8 T ` S a * 5X6X6X0X0X9X0X{. XqX7XqX6X",
"8X9X7X6XwXqXqX|.`.9XOX> p ` ` 6 5 H  .] H ` L 8 C ] U L | ' 8 5 L / t a qXqXwX1XqXqXqX7X].|.wX7XqX0X",
":X5X5X5X5X3X1X6X5X|.R.c 2 D U 6 9 F ! ` 9 Y L 5 9 ] 9 K  .^ C 9 C E e 1X5X5X5X6X5X5X8X1X1X5X6X5X5X5X",
"v v B.B.n.B.B.B.v B.V.n e - ` U U L I T K I ' K I / 9 T U Z U Y U t d b B.B.B.B.n.B.B.B.B.n.B.Z.d B.",
"z z x x z x x x x z x x r O M ` ' C 8 H ' ` ' I ` ' T ` 8 9 { ' Z % z z x z z z x x j z z n z z j h ",
"C.Y.Y.Y.Y.Y.Y.N.N.M.N.M.N.s + Z ^ C 8 Z | ' ' U ` '  .` 5 9 U D * b.Y.Y.Y.Y.Y.Y.Y.Y.W.W.Y.Y.N.N.C.z ",
">X<X5X5X5X5X5X5X2X5X1X5X,X:Xb O > B Z H I ' ' ' ' [ I I B > > : *X{.5X5X5X5X1X5X5X5X5X5X5X,X;X(.V.h ",
"5XqX6XeX6XeX6X7XeX6X6X6X6XOX# # +   o $ 6 ' ` ' ` U = @   . @ $ # > 6XrXqXwXrXqXrXeXtXwX7X7X5X(.B.z ",
"5X7X0X6X6X6X6X7XeX0X0X3XXXm K.H.F.m > o   + ' ` A     O Z Z F &.G.G.; [.{.{.[.[._._._._._._.'.T.~.B.",
"5X6X6XqXrX0X9X9X9X6XeXQ.6 &.&._ F.K.H...! A y u y A  .%.) _ J.K.K.G.%.- :X5X5X5X6X6X8X0X6X6X5X_.W.v ",
"8X6X6X0XrX6XeXrX0XeX7XQ.$ w -.*.w ,.<.yXU.v.I.I.I.I.U.q.-.-.0 -.-.5 5 3 ; !./.A.A.Z.Z.v k Z.( l h h ",
"8X6X7X6X9XeX9X9X9X6Xc $ 5 0 5 5 5 -.<.&.U.I.I.I.I.P.U.&.-.*.$ 0 5 0 0 0 5 = 7X9X9X0X6X3X4X:X=X~.v n ",
"5X6X6X0X9X6X0X9XqX6Xb $ 5 0 5 3 $ w O.L.P.I.c.x.v.P.L.~ *.5   X 3 0 -.-.0 # [.|.].'._.(.^.^.~.S.C.B.",
"8X6X6XeXeXeXqX9X6X6X!.@ 3 0 5 $ @ 3 9 E L.P.c.x.v.P.~ A 0 = < ;X  0 2.l.4.5 # 5X5X6X5X6X3X5X5X(.V.v ",
"5X5X6X8XqX6X6X6X6X9XQ.$ 3 3 3 $ @ 3 Z L.P.v.c.x.v.I.L.Q 5 $ <  X  0 w l.4.5 = 6X0X8X5X,X-X=X+Xk f g ",
"S.~.~.Y.T.T.T.T.T.T.T.i o 3 @   $ 3 K }  .c.z.z.x.P. .` 8 $ ; m.  5 $ ,.-.5 # T.T.^.^.~.R.R.^.Y.v z ",
"j z n v k v n z k n k k e   & a $ w <.{ P.~ L.v.L. .P.:.-.5 - k c   @ 5 5 @ n k x n k v v v k n j f ",
"j l j j j j j j j j g j j j j p o 3 0 9 t 4 9 C 9 9 S 8 3 $ . l h a     . j j k j j j j j g j j g z ",
" X1X1X,X.X2X<X1X:X1X2X1X.X2X1XQ.          o 3 $ 3 0 5 $     & T.x v S.N.M.^. X1X1X|..X2X<X1X5X.X5X:X",
"8X5X[.6X9X9X9X6X9X9X9X9X9X9X6X5X!.$ 0 -.*.w o 3 @     o 3 < 5X^.n d M.M.`.8XqXqX0X[. X0XqX6X9X9X6X9X",
"5X5X.X6X0X6XrX6X6XrX6XqXqX0XeX9XOX@ 3 3 0 5 @   o $ 5 5 $ 1 (.x f b M.[.6X6X6XqX7XrXqXqXqX7X6X9XeX6X",
"5X9X0X0XeX9X6X7XqX6X6X6X6XqX6X6X7X).$ w -.*.5 o   o 3 $   & 4X~.m.n S.<X1X7X0X9X6XqX6X6X7X6XqX9X6X6X",
"5X6X6X6X9XeX6X6X1XqX7XqXqX7XwX1X7X).$ w l.2.5 2 ).  3 $ & 4X5X~.C.d ~.;XqX.X|.rXrX7X7XqX6X6XqX6X9X6X",
"8X6XqXqXeXqX0X6X6X8X5X5X2X:X>X4X;XQ.$ 0 0 0 5 < %X/.oXoXD./.D.x j n V.&X2X;X=X8X4X5X5X5X8X6X1X6X9X6X",
"6X5X6XqX6X6X6XwXtXwXwXqXwXwXwXwXwXwX1X7X1XwX7X5XwXrX7XwXtXtXeX(.C.v Y. X5XwXwX7X7X1XrXrXwXqXwXwX9X6X",
"5X6XqX6X7X7X6XwXqX6X7X6X6X6XqXqX7X7X7X7X7X7X7X7XwX[.[.0X6X6X5X~.C.B.N.:X7X7X7XqXwXwX9X7X7X6XqXqX6X6X",
"8X0XrX6X7X6X7X7X7X7X7X7X0X7X7X7X7X7X7X7X7X7XwX7X7X7X7X0X4X2X-XV.x n d %X=X-X-X4X4X4X3X9X9X6X6X7XqX7X",
"W.~.^.^.^.^.~.^.^.^.^.^.^.^.^.^.^.^.^.^.^.^.(.^.^./.^.^.^.^.^.S.n x C.~.S.^.^.S.^.^.^.^.^.^.^.^.^.^."
};
