/* XPM */
static char *result[] = {
/* columns rows colors chars-per-pixel */
"50 50 215 2 ",
"   c #030202",
".  c #0D0D0D",
"X  c #170B09",
"o  c #130D0B",
"O  c #131213",
"+  c #1C1514",
"@  c #1C1B1B",
"#  c #240E0B",
"$  c #2C0D0E",
"%  c #25110F",
"&  c #35170C",
"*  c #3C160C",
"=  c #211514",
"-  c #291917",
";  c #231B1B",
":  c #341E1C",
">  c #391B18",
",  c #3C2117",
"<  c #32201D",
"1  c #3D241C",
"2  c #242323",
"3  c #2D2525",
"4  c #2B2A2A",
"5  c #332424",
"6  c #392324",
"7  c #392827",
"8  c #342C2C",
"9  c #3B2D2D",
"0  c #343333",
"q  c #3A3535",
"w  c #3C3C3C",
"e  c #431F09",
"r  c #5F120D",
"t  c #451918",
"y  c #581A19",
"u  c #78130E",
"i  c #4B240B",
"p  c #512308",
"a  c #42221F",
"s  c #47281A",
"d  c #592818",
"f  c #573219",
"g  c #6A2C0D",
"h  c #7C360D",
"j  c #6D2517",
"k  c #662915",
"l  c #6C251D",
"z  c #732C16",
"x  c #7A2D16",
"c  c #73261B",
"v  c #752D1A",
"b  c #792D19",
"n  c #663318",
"m  c #6C3B1D",
"M  c #7D3215",
"N  c #743519",
"B  c #7C311A",
"V  c #481C26",
"C  c #5A1827",
"Z  c #671628",
"A  c #75132A",
"S  c #422523",
"D  c #472828",
"F  c #4C2D2C",
"G  c #562624",
"H  c #4C302E",
"J  c #5D3422",
"K  c #462C32",
"L  c #582A34",
"P  c #453535",
"I  c #4C3635",
"U  c #493839",
"Y  c #583637",
"T  c #5F3634",
"R  c #523B3D",
"E  c #5C3B3A",
"W  c #692425",
"Q  c #6C2E2A",
"!  c #792A25",
"~  c #683529",
"^  c #793228",
"/  c #682B38",
"(  c #772739",
")  c #633936",
"_  c #673837",
"`  c #633D3B",
"'  c #7B3A36",
"]  c #5C413F",
"[  c #63403F",
"{  c #74483B",
"}  c #513C40",
"|  c #663742",
" . c #783947",
".. c #434343",
"X. c #4C4343",
"o. c #4F4749",
"O. c #4D4C4C",
"+. c #534545",
"@. c #5B4443",
"#. c #564649",
"$. c #544B4C",
"%. c #5B4D4C",
"&. c #5A504F",
"*. c #555454",
"=. c #5B5353",
"-. c #5C5B5B",
";. c #634543",
":. c #674647",
">. c #624D4C",
",. c #764D4A",
"<. c #63504F",
"1. c #635453",
"2. c #6C5759",
"3. c #625B5B",
"4. c #625F60",
"5. c #626161",
"6. c #8B0D07",
"7. c #8C0E08",
"8. c #831813",
"9. c #82370C",
"0. c #8C3E0D",
"q. c #903F0C",
"w. c #813413",
"e. c #853A13",
"r. c #8B3B12",
"t. c #82331B",
"y. c #88391B",
"u. c #933F16",
"i. c #8A0E2A",
"p. c #950E2D",
"a. c #8D122F",
"s. c #881933",
"d. c #981533",
"f. c #A8072C",
"g. c #B4052D",
"h. c #B40A32",
"j. c #AC1337",
"k. c #8A2521",
"l. c #8E2A25",
"z. c #85243A",
"x. c #8B3B38",
"c. c #983A36",
"v. c #A43F3B",
"b. c #8E410C",
"n. c #93420D",
"m. c #9B450D",
"M. c #8D4313",
"N. c #89461C",
"B. c #954312",
"V. c #994513",
"C. c #94441B",
"Z. c #98491A",
"A. c #A44D15",
"S. c #AC4E15",
"D. c #A44D1A",
"F. c #AB4E1B",
"G. c #A75119",
"H. c #AB5119",
"J. c #B75B17",
"K. c #B3551B",
"L. c #B65C1C",
"P. c #BC5C1D",
"I. c #8C4720",
"U. c #9A4523",
"Y. c #9C4B21",
"T. c #A44B22",
"R. c #A45626",
"E. c #AA5522",
"W. c #B35523",
"Q. c #B65922",
"!. c #BD5C23",
"~. c #BA5925",
"^. c #BE6122",
"/. c #AB6336",
"(. c #C05E1E",
"). c #C2621D",
"_. c #CE631E",
"`. c #C15E22",
"'. c #C85F26",
"]. c #C55E2A",
"[. c #C46223",
"{. c #CD6625",
"}. c #CE6825",
"|. c #C56329",
" X c #CE6728",
".X c #CE682A",
"XX c #D16726",
"oX c #D26A25",
"OX c #D16629",
"+X c #D16A2A",
"@X c #DB6D29",
"#X c #8D374C",
"$X c #9C4844",
"%X c #A24F4B",
"&X c #AD5955",
"*X c #986966",
"=X c #A46A66",
"-X c #B48987",
";X c #B18F8D",
":X c #BDB5B4",
">X c #C39D9B",
",X c #C1BFBF",
"<X c #D3BBB9",
"1X c #C6C5C4",
"2X c #D5CDCC",
"3X c #DFCECD",
"4X c gray84",
"5X c #DBDBDB",
"6X c #E2D8D7",
"7X c #E4E3E3",
"8X c #EBE6E5",
"9X c #EBEAEA",
"0X c #F2EFEE",
"qX c #F9F7F6",
"wX c #FEFCFB",
/* pixels */
"D.H.H.H.S.H.H.H.H.H.H.H.H.H.S.H.H.H.H.H.H.H.H.H.F.H.S.H.H.H.H.H.H.H.H.H.F.F.H.A.0.0.w.x c b.B.S.F.F.",
"|.}..X+X.X+X+X.X+X}.}.+X.X+X+XOX.X+X+X}..X+X+X+X+X.X+X+X.X+XOX.X+X+X+X+X@X{..XOX{.H.V.b.l x r.[..XOX",
"[.{.{.{.}.{.}.}.}.}.{.{.}.}.}.}.}.OX{.}.}.}.}.}.{.}.}.XX}.{.}.}.{.{.}.{.|.m.~.}.XX XP.n.B r.0.[.{.{.",
"[. X}.XXXX{.XXXXOXOXXXXXXXXX}.XXoXOX+Xs 1 1 1 1 1 1 1 1 1 1 E. X.XXXXX.X.X.X.X{.].Q.F.9.z b.V.[. X{.",
"[.{.{. XXX X X+X+X{.OX+XOX XOX X{.s s < 6 P P P P P P P 5 < > > E. X.XP.B.H.}.}.}.{.].b.b x y.K.!.|.",
"[.{.OXOX.XXXOX{. X X X X X X XOXJ 6 K H I $.%.%.*.&.&.%.O.P 9 < 1 G..X!.A.J.}.{.XX_.[.n.y.0.b.{.{.{.",
"[..XXX.X{.OX X XXX X{.OX X XOXJ 6 U &.%.@.-.3.-.-.3.-.3.-.] $.X.8 , E. X{.{.{.].'.`.K.9.z r.V.[.{.{.",
"[.{.{. X+X X.XXX X X+X X XOXn S ] *.5.1.T <.1.1.&.<.<.=.&.H %.-.o.9 > Z.W.W.E.F.T.U.u.x l z M W.!.|.",
"^..X{..XXXOX X X X X X X{.J D F -.3.<.>.) &.1.=.1.1.1.1.<.T @.$.*.w < , G.}.OXoXOX.X`.n.B r.u.[.XX{.",
"|.{.XXOXOXOXOXOXOXOX XOX XG 9 E >.<.<.3.@.<.5.5.5.5.5.5.<.%.=.%.%.P 8 ; Y.}.}.{.).S.V.b.x q.q.H.J.`.",
"~.).).[.(.`.`.).[.(.[.^.n 9 8 ] ~ 2.5.5.<.[ 3.3.3.3.3.3.[ <.3.5.%.D 5 2 < Z.^.A.n.B.n.M.j e.n.P.).[.",
"b z z b b b b b b b z b d 8 9 Y [ 1.3.3.%.T <.<.<.<.<.<.) >.3.3.&.I 7 3 @ d x b x z b c l l b x x c ",
"M x w.M M M M M w.x M M y H F ] 2.;.<.>.<.E <.3.1.3.2.<.[ >.>.<.] X.8 5 = k w.M M M w.x M B M M M M ",
"Q.P.!.`.(.`.`.`.(.(.(.`.D G K O.&.) ` 1.5.@.=.3.5.5.5.>.<.3.3.[ Y +.q 8 - C.!.P.(.(.(.(.`.!.(.(.P.!.",
"[.{.{.{.XX{..X+XOX+X+X.XS G q $.` 8._ 3.5.1.:.1.1.3.2.:.2.5.3.b T I 0 8 - Z..XOX+X+XXXOX X.X+X.XoX{.",
"[.{.}.+X{.{.[.`.`.[.`.`.S d F H 8.>Xl.[ <.>.) >.<.1.>.` >.1.k.-Xx.G 6 : - Y..X.X{.XX{.{.{.{. X X_.}.",
"[.{.{. X{.{.[.[.!.P.K.s 6 S H u >X0X;Xl.) 1.;.<.3.5.:.>.>.! =X6X<Xx.V - = > G.{.{.}..X.X X XXX X}..X",
"[.{.OXOX XOXXXXX X X X4 5 5 9 7.2XwX7X;Xy +.%.[ 1.2.[ %.d *X2XqX7Xv.t = ; ; N.).{.{.}..X{.XXOX.X}.{.",
"|.{.{.}.{.{.XXXXOX}.{.*.8 : 4 6.2XwXwX8Xk./ ` ) >.[ ` E u <XqXwX7Xv.t O 2 } { m.{.XX}..X}.XX|.H.}.}.",
"|.[. X[.[.[.!.~.~.Q.W.5.X.> @ 7.2XwXwXwX;Xk T ) ` ` E y *X8XwXwX9XU.> @ 8 =./._. X X.X X.XoX!.S.[..X",
"|. X{.@X X X'. X[.[.`.U o.t 3 7.2X7XwXwX9Xk.E ` Q ~ ) u <XqXwX9X5Xv.> + q ..R.{.{.{.XXOXOXOXXX.X+XOX",
"[.{. X{. XOXOX.XoXXX+X. 9 : S 7.2X5XqXwXwX;XW _ Q W y *X8XwXwX7X4Xv.t - 3 @ I.}. X X}.{.OXXX}..X.X{.",
"[.{.{. X{.{..XL.H.|.}.C.% & a 6.:X4X7X7XqX0Xl.r T y u <XqX9X7X5X1Xc.t % o n L.{..X.X X.XH.P.}.}.XX{.",
"|.{..X{.oXOX XK.S.{.{.K.g $ 1 W $X:X,X4X7X=Xl.^ P E ^ &X3X5X1X,X=Xl > o g K.XXoX{.XXXX}.H.K.OX}.OX}.",
"!.[.[.[.[.'._.[.[.K.m.b.M.g > 9 l $X$X&X&Xx.{ ,.q U ;.^ %X&X$X$Xl a = n K.[.[.).[.[.{.).[.`.{.[.[.[.",
"M M w.w.w.9.w.w.w.w.w.t.M x % S K ! ! ^ x.,.,.2.w X.1.[ ' Q Q W a < X k w.w.w.w.9.w.M M w.9.w.t.h w.",
"b b b b v b b b v v b x b x i t G I ` >.<. .:.:.R @.%.[ [ +.+.I 6 - e j b b v v b v b v b v v v z l ",
"e.b.b.b.b.b.b.b.q.q.b.0.0.n.r.g # X 7 R @.) ;.@.@.+.@.] T U 4 + o p 0.b.b.b.b.b.b.b.M.b.b.n.q.q.r.c ",
"~.(.[.[.[.[.[.^.[.[.^.[.^.(.f f o . . O F G R I I I I K F + . . . s E.^.(.[.[.).[.[.[.).[.[.L.Z.e.z ",
"[.}. XOX X X X}.XX{.{.{.{.^ A Z C - O O + % = + = = = O # O + : C C ~ Q.+X+XoXOX+XOXOXoXoX.X|.Z.t.v ",
"|.}.}.{.{.{.{.}.OX X X Xm F d.f.f.i.A D 4 ; O O O O O @ 3 K Z d.d.z.L f C.G.H.G.G.A.D.A.A.A.A.V.n.M ",
"[.{.XX{.+X.XOX X{.{.XX~ ; I :. .#Xa.g.p.1.O.w 6 3 5 q O.*.z.h.d. .| Y 2 N.[.[.{.[.{.{. X[.{.[.A.M.M ",
"[.{.{..XOX{.+XOX XOXm @ 2 0 O.*...6 p.g.2.4.o.L C L o.-.5.j.A V o.O.w @ m Z.C.y.y.t.B x B x t.c j l ",
"|.{.{..X X X X{. X XO 4 4 4 w w 4 o D f. .=.} / a./ O.*.| j.V 2 w w 0 @ Y.OX X XOX X{.'.].!.W.C.M B ",
"[.{.{..X X X X+X{.m @ 0 4 2 O O .   2 A a. .} | a.C } | s.Z 0 0 w ..w 4 s V.K.H.F.D.A.Z.V.V.C.u.r.M ",
"|.{.XXXXOXXXOXOX{.O 2 2 4 O n n n o 2 F Z d./ L / L L a.A ; 0 4 ..*.-.} O M.[.[.[.{.{.{.{.[.[.V.e.M ",
"|.[.{.{.{.{.{.{.{.. 2 2 O   !.{.}.+ 2 4 P  .s.E o.} ( s.} 2 @ O 0 *.4.o.O I.}.}. X.X[.^.~.W.T.b k j ",
"r.B.n.b.B.b.b.n.b.i . .   i b.n.n.+ 2 w O.#.( / o./ ( | O.} 2 . 2 w ..2 & h b.n.n.n.V.B.q.m.B.n.h ! ",
"x v M B x M B v B x * * * z x M B o 2 O.O.O.6 Z L ( | O.O.O.0 . O @ O & k M M M b B x M N M x M z j ",
"j v z z z z z z z z z z z z z z l   . o.O.O.@ + V D } O.O.O.@   + $ & l v z z z z z z c z z z z z b ",
"L.).).[.P.`.(.).^.P.(.(.(.P.[.(.).o O X.O.-.O.2 O @ 4 ..O.O.@ . d x q.q.0.V.L.[.(.L.P.(.`.(.[.P.`.!.",
"|.[.H.[. X X X X X.X X X X X X{.}.m ; w O.5.5.0 . . . q ..w 2 , z h B.0.S.[.XXXX.XH.P..XXX{.{..X}. X",
"[.|.(.{..X{.+X{.{.+X{. X{.OX X X}.}.m 3 w *.-.0 .   . 2 4 O . d j M 0.D.{.{.{.OX{.+XXX{.XX{.{..X{.{.",
"[. X.X.XOX{.{.}.}.{.{.XXOX{.}.}.}.oXoX- 2 w ..4 @ i o @ @ . i h h B 0.P.}.}..X X{.XX{.{.}.}.XX{. X{.",
"[.[.}.{.{.+X{.{._.}.}.}.}.oX}._.oX}.oX< @ w w 2 O E.N ~ ~ g G.B.e.M n.!.OXP.K.+XXX}.}.XX{.}.}.XX X{.",
"{.{.XXXX XOX X{.[.{.[.[.`.!.~.~.L.L.L.f J { { ~ J I.Y.Z.U.U.C.N z M e.T.~.L.K.|.].[.[.[.[.}.{.{. X{.",
"{.[.{.OX{.{.{.oXoXOXOXoXoXOXoXoXoXoXoXoXoX@XoXoXoX}.OX@X@XoX@XV.r.M b.L.}.}.}.}.}._.XXOXOXXX}.{.OX{.",
"[.{.XX{.{.}.XX}.XX}.}.{.}.}.{.oX}.}.}.}.}.oX}.}.}.S.H..X{.{.'.q.r.M n.!.{.}.}.}.}.}.}.}.}.{.}.{.XX{.",
"|..XOX}.}.}.}.{.}.}.}.}..X}.}.}.}..X}.}.}.}..X}..X{.{.{.'.`.W.r.b B 9.T.W.W.`.].].'.'. X X XXX}.XX}.",
"M.B.V.B.V.B.V.V.V.V.V.V.V.V.V.V.V.m.V.V.V.V.V.V.V.Z.Z.V.V.V.Z.u.t.z e.B.u.B.u.u.q.A.V.V.V.V.B.B.B.V."
};
