/* XPM */
static char *result[] = {
/* columns rows colors chars-per-pixel */
"50 50 225 2 ",
"   c gray1",
".  c #0D0602",
"X  c #180C0A",
"o  c #151414",
"O  c #1B1513",
"+  c #1C1C1C",
"@  c #28090B",
"#  c #34080E",
"$  c #28130B",
"%  c #38170A",
"&  c #271717",
"*  c #241D1B",
"=  c #361D19",
"-  c #3D2616",
";  c #3D231A",
":  c #351B20",
">  c #232323",
",  c #2F2525",
"<  c #2C2C2B",
"1  c #332222",
"2  c #372627",
"3  c #342B2B",
"4  c #3C2E2D",
"5  c #3E302F",
"6  c #323131",
"7  c #3D3333",
"8  c #3C3B3B",
"9  c #47230D",
"0  c #52280C",
"q  c #4C2512",
"w  c #45261A",
"e  c #4D2D1B",
"r  c #542A12",
"t  c #592916",
"y  c #5F351C",
"u  c #7D320B",
"i  c #6D2817",
"p  c #6C251C",
"a  c #732C16",
"s  c #7A2E16",
"d  c #7C221C",
"f  c #752D1A",
"g  c #792D19",
"h  c #69371B",
"j  c #7D3215",
"k  c #773718",
"l  c #7C311A",
"z  c #4D1D28",
"x  c #770C25",
"c  c #69192B",
"v  c #79192B",
"b  c #472724",
"n  c #432D2D",
"m  c #4C2C2A",
"M  c #552B24",
"N  c #532E2C",
"B  c #5D2E2C",
"V  c #49312A",
"C  c #573329",
"Z  c #5D2F3A",
"A  c #4B3331",
"S  c #463A3A",
"D  c #4A3D3D",
"F  c #543534",
"G  c #5C3432",
"H  c #5A3836",
"J  c #533A3B",
"K  c #5D3C3A",
"L  c #692C29",
"P  c #762C26",
"I  c #653529",
"U  c #76302F",
"Y  c #633432",
"T  c #6D3A37",
"R  c #633A38",
"E  c #693838",
"W  c #713936",
"Q  c #7A3835",
"!  c #7E3934",
"~  c #733D3A",
"^  c #7F421E",
"/  c #56413F",
"(  c #7A4328",
")  c #64413F",
"_  c #68413F",
"`  c #73413E",
"'  c #7D423E",
"]  c #444343",
"[  c #4B4242",
"{  c #4F4847",
"}  c #4D4C4C",
"|  c #534343",
" . c #5C4443",
".. c #5D454A",
"X. c #534C4B",
"o. c #5C4B4A",
"O. c #525252",
"+. c #5C5251",
"@. c #5C5C5C",
"#. c #634543",
"$. c #6C4543",
"%. c #644E4D",
"&. c #694848",
"*. c #6A4B4A",
"=. c #744543",
"-. c #7B4542",
";. c #744947",
":. c #7C4946",
">. c #744C4A",
",. c #7C4E4B",
"<. c #65504E",
"1. c #75514F",
"2. c #7C514E",
"3. c #654C51",
"4. c #645453",
"5. c #6D5453",
"6. c #675A5A",
"7. c #735452",
"8. c #7C5553",
"9. c #775958",
"0. c gray39",
"q. c #831A15",
"w. c #901F1A",
"e. c #82350D",
"r. c #8D3E0D",
"t. c #903F0C",
"y. c #87231E",
"u. c #813413",
"i. c #863A13",
"p. c #8B3C12",
"a. c #82331B",
"s. c #88391B",
"d. c #933F16",
"f. c #931532",
"g. c #B3052E",
"h. c #A51132",
"j. c #8D2D2C",
"k. c #843935",
"l. c #A03F20",
"z. c #C23B2A",
"x. c #8E410C",
"c. c #93420D",
"v. c #9B450C",
"b. c #95480E",
"n. c #8D4313",
"m. c #86471E",
"M. c #944312",
"N. c #994513",
"B. c #984719",
"V. c #A44D15",
"C. c #AC4E15",
"Z. c #A44D1A",
"A. c #AB4E1B",
"S. c #AA5116",
"D. c #AB5119",
"F. c #B75B17",
"G. c #B3551B",
"H. c #B65B1C",
"J. c #BC5C1D",
"K. c #854724",
"L. c #894625",
"P. c #954423",
"I. c #9B4724",
"U. c #934C23",
"Y. c #9C4922",
"T. c #944A29",
"R. c #8A413D",
"E. c #974A31",
"W. c #A54B23",
"Q. c #AC4C25",
"!. c #B34025",
"~. c #AB5624",
"^. c #B35423",
"/. c #B65A24",
"(. c #BC5C23",
"). c #B95826",
"_. c #BE6122",
"`. c #C05F1E",
"'. c #C2621D",
"]. c #CE631E",
"[. c #C25E22",
"{. c #C85F26",
"}. c #C55E2A",
"|. c #C46223",
" X c #CD6625",
".X c #CE6825",
"XX c #C56329",
"oX c #CE6728",
"OX c #CE692A",
"+X c #D16726",
"@X c #D26A25",
"#X c #D16629",
"$X c #D16A2A",
"%X c #DB6D29",
"&X c #813344",
"*X c #844542",
"=X c #894642",
"-X c #844945",
";X c #8D4946",
":X c #824E4B",
">X c #8B4D4A",
",X c #954A46",
"<X c #994945",
"1X c #944D49",
"2X c #83514E",
"3X c #8B514D",
"4X c #835452",
"5X c #8D5754",
"6X c #945956",
"7X c #A25C59",
"8X c #AF6763",
"9X c #B47C79",
"0X c #B88683",
"qX c #BF8C8A",
"wX c #B2908D",
"eX c #C7928F",
"rX c #CBA9A7",
"tX c #C1B4B3",
"yX c #D0CFCF",
"uX c #DAD9D8",
"iX c #E4DCDB",
"pX c #EAE9E8",
"aX c #F1EFEF",
"sX c #F5F4F3",
"dX c #FEFCFB",
/* pixels */
"Z.D.D.D.A.S.D.D.S.D.D.D.S.D.D.D.D.D.S.D.S.S.D.D.D.S.D.D.D.D.S.D.D.D.D.D.A.A.D.V.r.r.e.s i t.d.Z.G.C.",
"XX.X.X$X$XOX$X$X$X$XOX$X$X$X$X$X$XOX$X$X$X$X$XOX$X$X$X$X$X$X$XOX$X$X$X$X$X XOX+XXXG.M.r.p s p.|.OX#X",
"|. X X X.X X.X X.X X.X X X.X X X X.X.X X.X.X.X@X.X.X X X+X X.X X X X.X XXXv.(.+X+X#XJ.c.l p.r.}.{. X",
"XX X.X+X+X.X+X+X+X+X+X+X+X+X+X.X+X+X+X+XY.K.K.L.K.K.K.K.K.~.oXOXoX X+XOX$XOX$X X|.).A.u.a r.b. X#XoX",
"XX X X#X X#X X$X#X.XoXOX XOXOX.XOXoXU.^ V 6 A C B N A n 4 I Y.(.OXOXOXJ.M.D.+X X X X}.x.s s s.G.[.|.",
"XX X+XoX$XoXoXoXoX+XoX#X$XOX.X XU.^ b 3 / _ >.' -X,X;X' ` T R ( U._.OX_.V.J.]..X X+X'.c.s.r.x. X X X",
"|. X+XOX#X X#X X#XOXoX+X X#XOXU.; , F ;.,.>.o.+.9.5X1X>X>X,X-X#.A I ~. X.X XXX}.}.`.G.e.a p.M.|. X X",
"XX XoX+XOXoXoX$X XOX#XOXoXoXU.; 7 K R.1X:X>.*.7.2X8.5.6.6.4X6X:X/ 3 C U./.^.^.D.Z.I.l.a p a j ^.(.XX",
"_..X XOX#XoXoXoXoXoXoXoXOXU.; 4 G ` :.;.1.:X1X<X2X5.4.6.7.4X2.:X,.#.4 C ~..X+X@X+X+X[.c.g p.d.|.+X X",
"XX X X+X#X#X#X#X#X#X#X#XOXe 5 H T =.o.X.%.:.;X>X8.8.2.2X4X7.+.<.2X>X$.4 ( .X.X X|.C.M.x.l t.t.D.F.[.",
").'.'.|.`.`.|.[.|.`.|._.B.M B T =.o.{ X.*.&.4.4.5.2X<X1X4X4.+.%.,.3X:XK I ~._.V.c.c.t.n.p i.c.(.'.[.",
"a g a g g g g g g g g a ; N U Q $.o.o.*.>. .X.X.4.,.:X:X8.8.8.-X>.5.1.$.M e a s g a g f p p f s f f ",
"j j u.j j j j u.s u.j i w B ! k.-.>.-X-X:.#. .%.1.>.4.+.6.8.1X<X:.<.%.,.T i u.j j j u.s u.l j u u.j ",
"^.J.(.[.[.`.J.[.`.`.J.- b Y ~ R *.;.*X*X:.;.;.-X>X:X5.$.#.1.2X4X8.8.2.2.` T.(.J.[.`.`.`.[.J.`.[.J.(.",
"XX X.X.X+X XOX$X#X$X$Xw N Y R F | X.&.$. . .$.-.;X2XR.<X,X;.7.5.7.4X1X4X) T.$X.XoX$X+X+X+X$X#XOX@X+X",
"|. X.X+X X X|.[.[.[.|.w m Y Y A [ | #./ D ] | #.*.=.<XrX9X*X1.9.8.>X1X3XT T.OXOX X+XoX XOXXXoX#X]. X",
"XX X X.X#X|.|.|.J.J.G.- m Y B A D | ) R [ ] [  .#.d qXaXuX9X=.+.9.>X;X=Xk.W. X X X X+XOXoXoX XoX.X+X",
"XX X#X#X#X#X+X+X+X X.Xw m Y G A 4 S H F n 8 D ) ) d qXaXdXiX6XR 6.7.:.R.j.Q._._. X.X.XOX#X+X$XOX.X X",
"|. XOX+X+X X+X+X.X X+Xw N Y G A 4 4 b ; & < D #.#.d eXaXdXdXeX=.+.7.:.k.j./.v.v.XX+X XOX.X+X_.G..XOX",
"XX|.|. X|.|.(.).)./.Q.; m R G A 4 1 n F 3 o A #.$.y.qXpXsXdXpX6XE 7.=XQ E.%X X X$X XOX#XoX+X(.S.|..X",
"XX.X X$X#XoX{.oX|.|.[.w b Y R F 4 = F >.D 2 J ;.-Xy.qXuXaXdXdXeX~ :.=XW T.OX.X.X+X X+X#X#X#X+XOXOX#X",
"|. X+X XoX#X#XOX@X+X#Xh e Y E H S : Y :X~ ;.*X=XR.y.0XuXpXsXdXuX4XP -.W T..X X.X#X+X.X X$X+XOXOX$X X",
"|. X.X$X.X X$XG.D.XX].@XB L ! ! Q L L ! ~ #.o.#.$.y.7XtXyXuXpXiX8XR | R P.|.|. XOXOXoXOXD.J.+X X+X X",
"XXoX+X X+X+XoXG.C.oXoXG.r w P ! G 7 = b N J ] [  .*.y.6XwXqXrX7X=.4.5.$.L.(.+X@X X+X+X.XD.G.+X.X+XOX",
"(.|.|.|.|.].|.|.|.G.v.x.x.% M Y G n < = z H | |  .:.R.j.w.q.q.` 6.4X5X>.n ^ '.|.|.[.|.'.'.|. X|.|.|.",
"j j u.u.u.u.u.u.u.u.u.a.j % & b Y G 4 3 A E ~ -.;.:.-X:.` / { o.2.3X9.o.< q u.u.i.u.i.u.u.u.u a.u u.",
"f f g g g f g g f f f s f a % O b B G F H T k.k.=.| [  .=.;.$.;.,.1./ < * r f f g f a f f l f l a L ",
"r.r.x.x.x.x.r.c.t.r.t.r.t.x.r.% O 1 I k.~ K F E ~ ) | [ | =.;X-X/ / < O 0 x.x.x.x.x.n.n.x.x.t.t.p.f ",
").`.|.|.|.|.|.|.[.|.|.|.|.|._._.q $ = M B n 3 4 G ~ *X=.` ' -.#.n * & ^ '.|.'.|.|.|.|.|.'.[.).B.e.p ",
"XX XoXoX X X X.X+X X X X X X X X|.|.t $ X O * 2 n B P L L B b 1 = - B..X$X$X$X$X#X#X+X@X.XOXXXB.a.s ",
"XX.X.X X.X X.X.XoXOXOXoXOX XoX+X+X.X+X).b o O O # # # & & X X $ k G.G.G.D.D.D.S.S.V.Z.V.V.V.V.c.c.u.",
"|. X+XOX#XoXoXoXoX+X X+X+X X XOX$X+X$Xe > ] &.&Xh.g.h.Z S 7 , h ~.(._.).XX|.|.|.XX X X X X X|.V.n.j ",
"XX X.X.X$XoXoX$XOX+X+XOXOX X XoX#X X$Xe , ] O.@.{ c g.j.4.6...2 P ^.Q.Q.Y.B.d.s.s.a.a.a.s s a.f p p ",
"XX X.X X X#X#X XoXoXZ.M.H. X X#XOX#XoXe > ] } 8 > + x f.3.3.Z c l.@X@X$X@X+X#XOXOX#X XXX}.(.^.d.j s ",
"|. X XOX XOX+XOX X XS.b.J.$X X#XOX XOXy + < 6 6 6 + z c Z J v g.z.|. X`.`.J.G.G.A.A.V.N.N.M.B.d.p.u.",
"XX X X+X#X#X#X#X X+X+X+X.X XoX#X#X#X#X$X9 + < 6 > + + o : z z v !. X|.].|.'.|.|.XX|.{. X X|.}.B.i.j ",
"XX|. X X X X XoXoX X X X X X XoX X XoX_.% + < < 6 ] O.] > : : k  X X.X]. X+X+X XOXXXXX_.).Q.W.l i a ",
"d.M.c.x.c.c.x.c.c.M.c.c.c.c.c.c.c.c.c.% + + + < ] @.0.O.8 + o q p.c.x.d.x.c.t.b.c.c.N.M.t.v.b.c.a f ",
"a s j g g j l f s s f j s l s s j g j $     o + 8 O.@.O.< o + O q s s s s j j s l s j j j s s j a i ",
"a p a a a a a a a a a a a a a f a a a & < 6 o     + < < o   # @ % p f f f a a a a a a i a a a a a f ",
"H.'.'.|.J.[.`.'._.J.[.'.J.[.'.(._.`.J.e > 6 ] O.} +     o > > + q a p.x.r.N.J._._.G.J.(.`.'.|.J.[.(.",
"|.XXC.XXoXoXoXoXoXoXoXoXoXoX#X XoX X$Xe < ] @.0.] O . o + > + > + q x.x.C.XX+X+XoXG.J..X+X XoXoX XoX",
"XX|.`. XOX XOX X#X$X X X.X+XoX X.X.X'.e > ] @.@.6 m.|.0 o > > + + o r V. X X X#XoX$X X+X X.XoX XoX X",
"|.OXOXOX#X X X.X.X X X+X X+XOX.X X X9 > 6 ] } < m.|. XXXq o > + < < + h ]..XOXoX X+X X X+X X+XoXoX X",
"|. X X X+X#XoX.X].+X X@X+X.X@X].].@X9 > 6 6 6 < + m.+X#X0 O * < < > + h +XJ.G.OX+X.X.X+X.X X X+X#X X",
"|. X+X+XoXoX X X X|.|.|.[.(._.)./.J./.% > ] } } < h W.I.I.9 o * + o r ~.(./.G.XX{.|.|.|.|. X X X X X",
"XX|. X+X XoX.X+X+X@X+X$X$X+X@X@X@X@X@X@X@X@X$X@X%X$X+X@X%X@X+XN.p.j d.H..X.X.X.X.X].$X$X+X.X X+X#X X",
"|. X+X X.X.X+X.X.X.X.X X.X X#X X.X.X.X.X.X.X.X]..XZ.C.#X X+X|.d.i.u.t.J. X.X X.X.X.X X.X.X.X X.X X X",
"XX.XOX.X.X.X.X X X X.X.XOX.X.X.X.X.X.X.X.X.X.X.X.X.X X X|.}./.i.g l u W.^.^.[.}.}.}.{.{.oX#X X.X@X X",
"M.N.M.N.N.N.N.N.N.N.N.N.N.N.N.N.N.N.N.N.N.N.N.B.N.B.B.N.N.M.N.M.a.g i.M.M.M.N.d.N.N.N.N.N.B.N.N.N.b."
};
