/* XPM */
static char *result[] = {
/* columns rows colors chars-per-pixel */
"40 40 212 2 ",
"   c #17120F",
".  c #181414",
"X  c #1C1B1C",
"o  c #351B0C",
"O  c #200F13",
"+  c #271615",
"@  c #231E1D",
"#  c #371717",
"$  c #28201D",
"%  c #33241C",
"&  c #3D241C",
"*  c #341A20",
"=  c #242424",
"-  c #2C2625",
";  c #2C2C2C",
":  c #332525",
">  c #3D2221",
",  c #392925",
"<  c #342B2A",
"1  c #392C28",
"2  c #35312F",
"3  c #392F30",
"4  c #333333",
"5  c #3E3535",
"6  c #3B3A3A",
"7  c #461719",
"8  c #442515",
"9  c #482217",
"0  c #4D2B1B",
"q  c #562A14",
"w  c #5C2C15",
"e  c #5A301C",
"r  c #662C0F",
"t  c #682916",
"y  c #6D2C14",
"u  c #732C16",
"i  c #7A2E16",
"p  c #73271A",
"a  c #742B19",
"s  c #792E18",
"d  c #6B361C",
"f  c #7D3314",
"g  c #773817",
"h  c #74331B",
"j  c #451D24",
"k  c #6A182B",
"l  c #7B192F",
"z  c #452B25",
"x  c #4C2C2A",
"c  c #532924",
"v  c #522D2B",
"b  c #483026",
"n  c #44312F",
"m  c #49312E",
"M  c #593126",
"N  c #54322F",
"B  c #593328",
"V  c #4E2B32",
"C  c #4C3332",
"Z  c #4A3632",
"A  c #453C3C",
"S  c #563332",
"D  c #5C3331",
"F  c #5B3A37",
"G  c #533D3C",
"H  c #5B3E3C",
"J  c #632F26",
"K  c #622E2A",
"L  c #63332E",
"P  c #673B28",
"I  c #763926",
"U  c #702C3B",
"Y  c #643432",
"T  c #6A3736",
"R  c #653B36",
"E  c #6A3935",
"W  c #653C3A",
"Q  c #773A35",
"!  c #743B36",
"~  c #7C3D3A",
"^  c #7A411F",
"/  c #43403F",
"(  c #54443D",
")  c #59403F",
"_  c #73412B",
"`  c #64413C",
"'  c #6C413E",
"]  c #774235",
"[  c #75413F",
"{  c #7D423D",
"}  c #583C42",
"|  c #713442",
" . c #424242",
".. c #4A4141",
"X. c #4D4C4C",
"o. c #544342",
"O. c #5B4443",
"+. c #564A49",
"@. c #5E4A4B",
"#. c #594E51",
"$. c #575454",
"%. c #624442",
"&. c #634647",
"*. c #6C4543",
"=. c #6E4947",
"-. c #654C4A",
";. c #6B4D4B",
":. c #734543",
">. c #7A4643",
",. c #754947",
"<. c #7B4845",
"1. c #734D4B",
"2. c #7C4D4A",
"3. c #6E504E",
"4. c #75504E",
"5. c #7A514E",
"6. c #645352",
"7. c #6C5553",
"8. c #745553",
"9. c #7C5452",
"0. c #83360D",
"q. c #8C3D0E",
"w. c #833613",
"e. c #863914",
"r. c #8B3C12",
"t. c #85391A",
"y. c #8C0C29",
"u. c #92112E",
"i. c #8C222A",
"p. c #913B2E",
"a. c #863C38",
"s. c #933B37",
"d. c #93440E",
"f. c #82431C",
"g. c #89471B",
"h. c #8E4519",
"j. c #964212",
"k. c #9C4614",
"l. c #9D4916",
"z. c #93441B",
"x. c #9B4619",
"c. c #944B1F",
"v. c #9B4C1D",
"b. c #A24B16",
"n. c #A54B1A",
"m. c #A94E19",
"M. c #AC5217",
"N. c #A5521D",
"B. c #AD541A",
"V. c #B2551C",
"C. c #B8571C",
"Z. c #B6581C",
"A. c #BB5B1D",
"S. c #824422",
"D. c #8F4923",
"F. c #8D4729",
"G. c #964C20",
"H. c #964826",
"J. c #954C2B",
"K. c #9B5021",
"L. c #82413C",
"P. c #955230",
"I. c #A44A20",
"U. c #AC4E22",
"Y. c #A65323",
"T. c #AD5322",
"R. c #AE5925",
"E. c #A2532A",
"W. c #B35522",
"Q. c #B95325",
"!. c #B45A23",
"~. c #BC5B23",
"^. c #B55A28",
"/. c #C05D1E",
"(. c #C2611E",
"). c #C25E23",
"_. c #C15927",
"`. c #C56224",
"'. c #CD6625",
"]. c #CE6825",
"[. c #CE6728",
"{. c #CF6828",
"}. c #D06626",
"|. c #D06825",
" X c #D16729",
".X c #D06828",
"XX c #844542",
"oX c #854A46",
"OX c #8B4945",
"+X c #824E4B",
"@X c #8C4E4A",
"#X c #944B47",
"$X c #84514E",
"%X c #8A504D",
"&X c #835452",
"*X c #975C58",
"=X c #8E6462",
"-X c #A16D6B",
";X c #AD7371",
":X c #BB918F",
">X c #B9A1A0",
",X c #C59A99",
"<X c #C8A09F",
"1X c #CBA9A7",
"2X c #D1BDBB",
"3X c #C8C0BF",
"4X c #D8CBC9",
"5X c #DAD9D8",
"6X c #E9E8E8",
"7X c #F3EEED",
"8X c #F2F0EF",
"9X c #F8F6F5",
/* pixels */
"B.V.V.V.V.V.V.B.V.V.V.V.V.B.V.V.V.V.V.V.V.V.V.V.V.V.V.V.V.V.V.m.j.q.0.p q.b.B.V.",
"`.'.{..X'.{.{.{..X.X'.{.{.{. X X'.'.{.'..X.X{.{.{.{.{..X{.`.`. X).V.j.i w.b.`.[.",
"`.'.'.'.'.|.'.|.{.'.{.{.].|.|.`.!.Y.Y.Y.Y.Y.Y.R.`.{.'.'.{.`.).'.`.~.j.i q.b.'.[.",
"`.[.{.{. X|.'.|.'.{.[.{.'.`.^.J._ R ~ ] Q ] W P S.R.`.{.Z.n.`.'.'.`.k.i w.x.).`.",
"`.[.'.[.[..X[. X{.{.'.`.^.D.] { XXXX#XoX9.;.1.*.` B S.!.A.B.`.'.].(.b.r.q.m.`.].",
"`.'.|. X X'.{.[.{.[.'.R._ ) 2.%X9.8.8.9.9.;.;.2.oX[ N P Y.`.~.~.Q.U.r.u w.b.).'.",
"`.[.'.[.[.[.[.[.{.'.Z._ G :.2.$X9.7.6.8.$X@X+X2.<.>.W m P Y.).`.).~.j.a w.b.`.`.",
"`.'. X[. X|. X[.{.`.D.) 2.2.-.6.8.$X$X9.9.+X<.;.+.@.' Y x S.`.'.A.M.j.f r.k.Z.).",
"R.V.V.Z.Z.Z.W.Z.V.G.P :.2.2.4.7.8.%X#X$X6.#.-.;.@.+.&.! Y J c.b.r.r.r.a w.k.V.V.",
"a i i i s s i i s a E ;.6.1.oX%X9.7.3.1.;.+.O.*.,.=.*.~ Q K d f s i s a a i f s ",
"n.n.n.n.n.n.m.n.n.H.{ 2.4.4.$X$X;.-.;.5.+X<.,.<.L.<.,.' ! L c t.n.n.n.n.n.n.m.n.",
").'.'.'.'.[.[.[.{.E.[ $X%X9.8.4.oX#XOX+XoX:.%.%.=.&.O.( D D M c.'.'.'.'.'.'.].`.",
"`.'.'.{.`.`.)./.A.K.{ oX@X&X8.2.-X1X;X>.*.O. ./ } O.o.C D D M c.'.|.[.[.[.'.'.'.",
"`.'.[.[.'.`.`.)._.U.p.XX+X8.-.=X2X6X,Xa.W O.A A H H A Z S D M v.'.[.[.[.'. X[.'.",
"`.[.{.[.|.|.|.'.'.Q.p.L.,.7.2.:X7X9X<Xa.W } 5 : z z n n S D c c.'.'.[.'.|.).'.'.",
"`.`.'.`.`.~.~.~.W.W.p.{ 2.*.=X4X9X8X<Xa.%.} - - z z , m S D M K.'.[.[.[.'.Z.A.'.",
"`.}.}.}.'.'.}.`.).~.F.~ L.<.:X7X9X6X,Xs.L.W C C %.x : Z D D M K.'.'.|. X|. X[.'.",
").'.[.}.}.'.).`. X`.H.! ! *X4X7X7X5X:Xp.a.>.:.:.{ Y c F T Y I R.{.'.'.`.`.{.|.'.",
"`.[.|.|.'.).M.`.'.Z.F.` O.$X,X4X3X>X*X~ %.o.o.R K v D Q Q J v.`..X|.{.B.A.].].|.",
").`.).'.`.`.`.Z.m.z.E 1.9.7.oX#Xs.s.s.:.O...G x > : x T J h V.`.`.'.(.`./.'.`.`.",
"s f f w.f f f f f w n ;.&X9.-.H ! | XX>.:.' R V 1 z S v 9 q i 0.f f w.f f w.f f ",
"f w.w.f f f w.w.f y 8 3 -.,.,.*.*.-.O.O.[ a.! R S S x & q u f f f f f f f f s p ",
"m.V.B.B.B.M.M.B.B.M.g.0 1 G <.oX:.) %.' R S S W T c 0 g l.M.B.B.B.B.B.V.B.b.r.a ",
"`.`.[.'.'.'.'.'.'.'.`.Y.d z C E ! E Q E C : : & d g N.~.].|.|..X|.|..X{.`.W.r.u ",
"`.[.{.'.{.{.'.[.'.'.'.`.~.H.8 + # 7 7 7 # + . 8 t.N.Z.V.V.V.B.B.B.m.B.m.m.b.j.w.",
"`.'.[.[.[.[.[.|.|.{.|.[.[.~.I , 4 V l y.l Y A 1 ^ W.~.!.!.W.W.W.T.W.T.B.U.n.e.i ",
"`.'.{.{. X[.[.'.V.V.(.'.[.T.L o.@.| u.k } #.X.2 ^ `.`.`.).~.!.W.W.U.U.U.I.z.s a ",
"`.[.{.[.'. X'.'.b.b.'.].'.Q.i.U &.U k * ; 6 6 1 f.`.`.`.(.A.A.Z.B.M.m.b.l.x.r.w.",
"`.].'.'. X'.'.'.{.].].].[._.i.k V j * @ ; ; ; 0 Y.'.'.`.'.`.`.'.'.`.`.`.).B.e.f ",
"V.C.V.A.Z.C.C.C.A.Z.C.C.C.W.t.j * < 6 4 4 ; = 0 N.A.C.A.Z.Z.C.C.C.Z.V.B.n.z.u a ",
"f w.w.w.w.w.w.w.w.w.w.w.w.w.q + ;  .$.$.6 = X + r e.w.w.w.0.w.0.w.w.w.e.w.w.f y ",
"t a u h u u u a u u p p y t # O @ 6 X. .; . .   9 a t p a i u i u u u p u u p a ",
"~.A.`.(.`.)./.).).(.`.(.A.z.o O   X = = = = = - e f f q.d.d.V./.A.Z./.(././.(.).",
"`.).).'.'.'.|.|.|.'.'.'.!.d $ $ X . o $  .X. .; e g y d.l.A.].}.[.~.'.|.'.'.|.|.",
"`.`.'.'.'.'.'.|.'.|.'.^._ % = @ $ e h.f.( $.X.4 0 t i d.C.].{.'.'.'.'.'.].'.].'.",
"`.'.'.'.'.].].|.'.'.`.g.& = = X 8 K.`.!._ 6  .4 % r f q./.`.A.[..X].'.'.'.}.'.'.",
"`.{.'.|.'.'.'.`.`.`.~.c.b b b 0 d B.~.Y.M Z ( n 0 y i w.T.).~.~.`.`.`.`.].'.'.'.",
"`.].].].'.|.|.|.{.{.].`.Z.Y.K.N.Z.]..X`.g.P.J.H.h.q.w.r.A.'.{.{.|..X X[.].|.'.'.",
"`.{.{.{.|.'.'.'.].{.].{.].].{.].{.{.'.{.(.`.'.).Z.e.f 0.T._.)._.`.).}.[.].].].'.",
"l.l.b.l.b.b.b.b.b.b.b.b.b.b.b.b.b.b.b.b.v.b.b.l.k.e.s w.j.k.l.b.b.b.n.b.b.b.b.b."
};
