/* XPM */
static char *result[] = {
/* columns rows colors chars-per-pixel */
"40 40 216 2 ",
"   c #100E0E",
".  c #1C130F",
"X  c #141414",
"o  c #1C1313",
"O  c #181817",
"+  c #1B1B1B",
"@  c #221212",
"#  c #2A1716",
"$  c #2B1913",
"%  c #251B1A",
"&  c #341C16",
"*  c #3D1A1B",
"=  c #2F201C",
"-  c #3A2216",
";  c #34231B",
":  c #242323",
">  c #2C2422",
",  c #2C2827",
"<  c #2C2C2C",
"1  c #322424",
"2  c #3A2522",
"3  c #3E2C25",
"4  c #342C2C",
"5  c #3C2C2B",
"6  c #3A302E",
"7  c #353534",
"8  c #3B3536",
"9  c #3B3B3B",
"0  c #751E1E",
"q  c #58280F",
"w  c #422316",
"e  c #4A2719",
"r  c #4B271C",
"t  c #4E2A1A",
"y  c #532514",
"u  c #5A2512",
"i  c #562917",
"p  c #5F301D",
"a  c #75320D",
"s  c #652913",
"d  c #6A2A16",
"f  c #6A251A",
"g  c #732C15",
"h  c #792E16",
"j  c #73271A",
"k  c #742B19",
"l  c #7A2D18",
"z  c #63351C",
"x  c #6B351A",
"c  c #6F3918",
"v  c #733413",
"b  c #7D3314",
"n  c #76361A",
"m  c #793D1E",
"M  c #5C1122",
"N  c #731329",
"B  c #7D1B31",
"V  c #432322",
"C  c #472A24",
"Z  c #4A2923",
"A  c #432C2B",
"S  c #4C2D2C",
"D  c #532527",
"F  c #542B25",
"G  c #5B2A24",
"H  c #522E2B",
"J  c #5D2D2A",
"K  c #45322C",
"L  c #4D312E",
"P  c #543426",
"I  c #53312D",
"U  c #5C332D",
"Y  c #5C392E",
"T  c #5F2F38",
"R  c #453232",
"E  c #4C3332",
"W  c #453739",
"Q  c #423B3B",
"!  c #543332",
"~  c #5B3533",
"^  c #543D37",
"/  c #5C3B34",
"(  c #5A363A",
")  c #533D3C",
"_  c #5D3D3B",
"`  c #642223",
"'  c #6C2626",
"]  c #642C2A",
"[  c #6C2929",
"{  c #772725",
"}  c #663724",
"|  c #6B3C23",
" . c #64322F",
".. c #68322E",
"X. c #723C24",
"o. c #763B29",
"O. c #6C2533",
"+. c #722733",
"@. c #643432",
"#. c #693432",
"$. c #623A35",
"%. c #6F323F",
"&. c #643D3B",
"*. c #6A3D3C",
"=. c #7A3737",
"-. c #723E32",
";. c #703D3A",
":. c #52403D",
">. c #5C413F",
",. c #7E4222",
"<. c #6D413F",
"1. c #764034",
"2. c #75443D",
"3. c #454141",
"4. c #4A4343",
"5. c #4C4B4B",
"6. c #544444",
"7. c #5D4241",
"8. c #544B4B",
"9. c #5C4E4C",
"0. c #5E504F",
"q. c #555353",
"w. c #5E5352",
"e. c #644543",
"r. c #6A4543",
"t. c #6B4947",
"y. c #634848",
"u. c #6B4D4B",
"i. c #734441",
"p. c #7B4541",
"a. c #744843",
"s. c #744D4A",
"d. c #794F4C",
"f. c #65504F",
"g. c #6A504F",
"h. c #70514F",
"j. c #7C504E",
"k. c #645453",
"l. c #6B5453",
"z. c #645A59",
"x. c #6B5B5A",
"c. c #735452",
"v. c #7B5553",
"b. c #725957",
"n. c #755A58",
"m. c #871B1B",
"M. c #8D1D1D",
"N. c #83360D",
"B. c #8C3D0E",
"V. c #823513",
"C. c #853914",
"Z. c #8B3C12",
"A. c #823F1D",
"S. c #8A3C18",
"D. c #88172E",
"F. c #961735",
"G. c #862525",
"H. c #8C2222",
"J. c #88252C",
"K. c #8A2A2A",
"L. c #842337",
"P. c #823535",
"I. c #95460F",
"U. c #8A4215",
"Y. c #84431C",
"T. c #8D461B",
"R. c #954213",
"E. c #9C4614",
"W. c #9D4916",
"Q. c #94441C",
"!. c #9A461A",
"~. c #974A1E",
"^. c #9B4B1D",
"/. c #A24B16",
"(. c #AA4F15",
"). c #A44B1A",
"_. c #A84D1C",
"`. c #AC5217",
"'. c #A3511E",
"]. c #AD541A",
"[. c #B2551C",
"{. c #B8571C",
"}. c #B6581C",
"|. c #BC5C1D",
" X c #8D4623",
".X c #8E4924",
"XX c #894828",
"oX c #944B23",
"OX c #974C24",
"+X c #A44A20",
"@X c #AC4E20",
"#X c #A75527",
"$X c #AD5322",
"%X c #A45529",
"&X c #AC572A",
"*X c #B25522",
"=X c #B85723",
"-X c #B45A24",
";X c #BC5D23",
":X c #BF6025",
">X c #C05D1E",
",X c #C1611F",
"<X c #C25E23",
"1X c #C15F28",
"2X c #C56224",
"3X c #CD6626",
"4X c #CE6825",
"5X c #CE6628",
"6X c #CF6828",
"7X c #D06626",
"8X c #D16824",
"9X c #D16729",
"0X c #D06828",
"qX c #804946",
"wX c #84514E",
"eX c #815351",
/* pixels */
"].[.[.[.[.[.[.[.[.[.[.[.[.[.].[.[.[.[.[.[.[.[.[.[.[.[.[.[.[.[.].R.B.N.k B.E.].{.",
"2X3X4X0X5X5X5X4X0X5X4X5X5X4X5X5X4X5X5X4X5X5X5X4X5X4X5X5X5X2X1X0X<X{.R.l V./.2X5X",
"2X3X3X4X8X0X4X3X3X7X4X5X2X-X#X$X&X&X&X&X&X&X-X2X5X6X5X3X4X2X<X3X2X|.R.h B.(.3X6X",
"2X5X5X0X3X3X0X0X3X6X6X:XOX1.1.2.2.a.2.a.a.2.1.XX#X2X5X6X[.(.2X3X3X<XE.l V.!.<X<X",
"2X3X7X3X3X6X3X6X5X6X;XXX$.*.qXd.c.c.g.c.c.c.j.p.-.oX;X6X:X].2X3X3X<X/.Z.Z.(.3X3X",
"2X3X5X9X0X0X6X3X5X;XXX/ <.s.wXv.x.k.x.k.x.b.v.wXa.*..X;X2X2X<X=X=X*XZ.g V.W.<X2X",
"2X6X3X9X5X9X6X3X2XOXP _ u.l.v.c.k.w.k.w.w.z.n.n.b.y.Y T.1X2X2X<X<X=XR.k V.).2X3X",
"2X3X5X5X9X5X5X5X-XX.$.e.f.k.c.v.k.f.f.f.f.l.wXn.x.x._ } -X4X3X4X>X`.I.b B.R.}.<X",
"$X[.}.[.[.}.[.'.X.Y *.t.w.k.v.wXl.g.g.u.f.v.eXv.x.z.e.U m [.*X/.B.B.Z.g V.R.].[.",
"k l l l l l l b Z I <.u.k.l.v.eXk.w.0.9.0.l.eXv.b.x.t.~ r l l l l g l j k l b k ",
")._._._._._.'.).X.I ^ s.c.l.l.v.l.q.q.q.q.k.v.l.c.c.r.E p !._.(._._._._._._./._.",
"<X2X3X3X3X3X6X5XOXI E p.s.w.z.v.c.z.k.0.0.h.c.z.k.a.;.K | ;X3X2X3X3X3X3X3X3X3X3X",
"2X3X3X3X3X2X<X}. XH ! i.t.w.k.v.v.c.g.g.l.d.d.0.9.a.;.A } -X6X6X3X7X5X5X5X3X3X3X",
"2X3X3X6X3X2X;XOXo.I ~ e.e.y.u.d.j.k.l.f.l.j.a.y.e.t._ H P  X:X2X3X3X6X5X3X6X3X3X",
"2X6X6X3X3X3X-XX.] ] E W r.i.e.t.u.9.8.8.6.t.e.e.a.r.R S F P Y.(.6X3X6X3X3X1X3X5X",
"2X2X3X2X2X;X$X/ ~ G A R 2.i.6.6.y.6.3.3.6.e.6.7.;.&.5 A  .^ Y.,X6X3X6X3X3X{.|.3X",
"2X7X0X0X5X2X-X} ! G 5 E $.e.6.6.r.e.) :.7.e.:.) $.~ E 3 J E Y.3X3X3X7X0X7X0X0X0X",
"2X3X3X7X5X3X-XX.F G ! ! R ! 7._ i.<.>.7.r.*.) ( R E ~ D G z '.3X3X4X6X2X2X3X7X7X",
"2X6X7X8X3X<X`.[.A.G @.H 4 S #.( / $.W E $.~ ~ #.A 6 ! G k ].2X3X4X0X4X].|.3X4X7X",
";X2X2X2X<X3X>X{.R.x D ! 5 S ..U E ( 5 A ~ R J #.A 5 H X.'.,X2X2X2X3X,X2X<X3X2X,X",
"l l V.b N.b b b b s * I ! ! S ! ! ~ ! ! ~ S ! S ! ~ Z s b b b b b b b b b b a b ",
"V.V.b V.b b V.b b g y Z @.S 5 ! #.#.~ @.#.@.S 5 ~ U i a b b V.b V.b b V.V.V.l j ",
"].`.].].].].].].].].W.c r V A S #.#.@.@.#.@.S 2 C p U.`.].].].].].].].].]./.Z.j ",
"2X2X6X3X3X3X3X3X3X2X-Xn * @ @ = A #.@.@.H 1 # o # e ,.-X4X4X4X8X7X7X3X3X5X*XS.b ",
"2X3X3X7X3X3X6X6X5X-X.XF.N M * @ @ Z ..F @ o # V D O.B j ^.[.].].[.]._.`.(.).R.V.",
"2X6X3X5X0X0X5X7X2XT.*.%.+.D.L.+.` f 0 N ` #.( T B F.F.O.} OX*X[.@X*X*X].@X^.C.l ",
"2X6X6X5X9X5X5X5X$X1.7 :.9 4.y.p.K.H.M.H.J.P.y.4.7 Q W 4 , G oX*X*X@X@X_.+XQ.l l ",
"2X6X6X6X3X5X3X3XoXK < < : 9 >.=.K.M.M.H.H.P.7.8 % ; < 9 :.5 x [.[.].(.).!.E.Z.V.",
"2X3X7X3X9X3X3X3X.X3 < : + : A [ G.H.m.M.H.' S , i c ; 9 q.5.L '.3X<X2X<X<X].C.b ",
"*X}.}.{.{.{.{.{.T.e : : + = A { H.M.m.M.H.{ S > p T.t 7 q.q.6 ,.}.}.}._.).Q.g j ",
"b V.C.V.V.V.V.V.b u & $ X : W #.G.M.m.m.G.o.E , i a y = 9 3.K v V.C.C.V.C.V.b j ",
"d j g g g g g j g d u u - < Q ! ' [ N ' [ ..Q 4 t d s * = ; y a g g g g g g g g ",
"|.|.2X,X2X<X,X2X>X,X>X[.m $ O o o = : , 4 2 O . q b v a a U.(.>X;X}.>X<X,X,X,X<X",
"2X;X<X4X3X3X7X3X6X3X3X3X;Xc 1 < < + O + X X O w A.C.b B.E.|.3X7X6X;X3X7X3X3X7X3X",
"2X3X3X3X3X3X0X8X3X3X7X3X4XOXC 7 7 =   . O : + t Z.C.l B.{.8X3X5X4X3X3X3X3X3X4X3X",
"2X3X3X3X7X3X8X,X3X8X3X8X,X,Xc 9 5.7 = y - ; - v `.Z.b B.<X2X{.5X8X4X3X3X3X3X8X3X",
"2X3X6X6X6X3X3X3X2X2X2X;X2X;X,.:.9.:.x ~.^.^.!.OXQ.l l C._.<X=X<X2X3X2X2X3X3X3X3X",
"2X3X4X3X3X3X8X0X8X0X4X8X8X8X|.#X%X%X#X4X<X3X8X7X2XR.V.B.|.3X7X3X4X3X0X3X3X8X3X3X",
"2X4X4X4X3X3X3X4X3X4X4X4X4X4X4X4X3X4X3X3X|.2X3X<X*XC.b N.*X<X1X1X<X3X3X3X3X4X4X3X",
"W.W.W./././././././././././././././././.).)././.W.S.l C.Z./.E./././.!.)././././."
};
