/* XPM */
static char *result[] = {
/* columns rows colors chars-per-pixel */
"50 50 195 2 ",
"   c #7C3307",
".  c #7E320F",
"X  c #7C380F",
"o  c #6D2517",
"O  c #6F2C13",
"+  c #6C251C",
"@  c #602B1D",
"#  c #6C2B1B",
"$  c #732C16",
"%  c #7B2E16",
"&  c #72241B",
"*  c #752D1A",
"=  c #792C19",
"-  c #763010",
";  c #7D3214",
":  c #77301B",
">  c #7C321A",
",  c #592C24",
"<  c #712520",
"1  c #762C21",
"2  c #754127",
"3  c #764629",
"4  c #7D4C2D",
"5  c #734A32",
"6  c #704E3E",
"7  c #81350D",
"8  c #82380D",
"9  c #8C3D0C",
"0  c #913E0D",
"q  c #9B3B0F",
"w  c #8E2E17",
"e  c #82241E",
"r  c #852D1D",
"t  c #8C2C1A",
"y  c #942B1C",
"u  c #9E281E",
"i  c #813313",
"p  c #863A12",
"a  c #8B3B12",
"s  c #83341B",
"d  c #8A331B",
"f  c #863A19",
"g  c #903F12",
"h  c #9D3F13",
"j  c #93351C",
"k  c #9D3B19",
"l  c #A2261C",
"z  c #A9271E",
"x  c #A02C19",
"c  c #AC2D1C",
"v  c #BA2C1D",
"b  c #A43712",
"n  c #AB3818",
"m  c #B03216",
"M  c #873324",
"N  c #9A3821",
"B  c #BE2421",
"V  c #B42B20",
"C  c #B42C2B",
"Z  c #A73620",
"A  c #AF3524",
"S  c #A7342B",
"D  c #B33024",
"F  c #B63D23",
"G  c #CB2816",
"H  c #CB251D",
"J  c #C32D1B",
"K  c #D4241E",
"L  c #DD201F",
"P  c #C0301E",
"I  c #D4321F",
"U  c #D51F21",
"Y  c #DC1E21",
"T  c #E51D23",
"R  c #E91C23",
"E  c #C22524",
"W  c #CA2221",
"Q  c #C72E22",
"!  c #CF2924",
"~  c #D32223",
"^  c #DC2323",
"/  c #D42D23",
"(  c #DE2C24",
")  c #DC2F28",
"_  c #CB3525",
"`  c #C53C24",
"'  c #CE3B25",
"]  c #CD3A29",
"[  c #D63422",
"{  c #DD3425",
"}  c #D73827",
"|  c #DB3A25",
" . c #DF332A",
".. c #DB3B29",
"X. c #E52424",
"o. c #E22B24",
"O. c #E32E29",
"+. c #E03824",
"@. c #E1312A",
"#. c #8F4007",
"$. c #8E410B",
"%. c #93420D",
"&. c #9A440D",
"*. c #95480E",
"=. c #834014",
"-. c #8D4213",
";. c #944312",
":. c #994513",
">. c #9D4915",
",. c #96431B",
"<. c #9C461A",
"1. c #9E4C1A",
"2. c #A14B0E",
"3. c #A34C15",
"4. c #AC4E15",
"5. c #A4431C",
"6. c #AA411E",
"7. c #A44D1A",
"8. c #AB4E1B",
"9. c #B9441D",
"0. c #B84F1D",
"q. c #AC5115",
"w. c #AB5119",
"e. c #B75B17",
"r. c #B3551B",
"t. c #B65B1C",
"y. c #BD5D1D",
"u. c #BF621E",
"i. c #8C4F29",
"p. c #974222",
"a. c #9C4623",
"s. c #9D4822",
"d. c #9E4F2D",
"f. c #995627",
"g. c #824A33",
"h. c #865131",
"j. c #8C5938",
"k. c #985836",
"l. c #A34B22",
"z. c #AC4E23",
"x. c #B74A2D",
"c. c #A45727",
"v. c #AF5123",
"b. c #A65D2D",
"n. c #B35423",
"m. c #BA5524",
"M. c #B55923",
"N. c #BD5C23",
"B. c #BB5C29",
"V. c #BE6122",
"C. c #B7632E",
"Z. c #BE632C",
"A. c #AA6133",
"S. c #B66737",
"D. c #C15E1E",
"F. c #C2611E",
"G. c #CE631E",
"H. c #CB4424",
"J. c #CB4C24",
"K. c #C54A29",
"L. c #D34426",
"P. c #DA4427",
"I. c #D54B25",
"U. c #D84926",
"Y. c #D74329",
"T. c #DA432D",
"R. c #D44E29",
"E. c #C25622",
"W. c #CD5325",
"Q. c #C25D22",
"!. c #CB5C25",
"~. c #C45528",
"^. c #CC5329",
"/. c #C45E29",
"(. c #CF5C2A",
"). c #D55326",
"_. c #D15B26",
"`. c #D3542A",
"'. c #D85328",
"]. c #D15C29",
"[. c #C46223",
"{. c #CD6625",
"}. c #CE6826",
"|. c #C46429",
" X c #CE6628",
".X c #CE682A",
"XX c #D16626",
"oX c #D26925",
"OX c #D06629",
"+X c #D16A2A",
"@X c #D86B2A",
"#X c #C76C35",
"$X c #CB6833",
"%X c #D36131",
"&X c #B06E45",
/* pixels */
"7.w.8.w.w.w.w.w.w.w.w.w.w.w.w.w.w.w.w.w.w.w.w.w.w.w.w.4.w.w.w.w.w.w.4.w.8.w.w.3.9 9 i % & %.g 4.w.8.",
"|.}.}.+X.X+X.X+X.XoX+X+X+X}..X+XoX.X+X+X+X+XoX.X+X+X+X+X+X.X+X+X+X+X.X+X@X{..XXX|.r.;.9 + $ a [..XOX",
"[.{.{.}.}.{.}.{.}.{. X}.}.{.{.{.}.{.}.{.{.{. X X X{.{.{. X}.{.{. X{.}. X[.&.V.}. X XD.%.> 9 9 /.{.|.",
"[. X}.XX{.oXXXXXXXXX XXXoX XoXXXXXXX XoXXX XXXXX X XXXXXXXXX X.X XXXXX+X.X.X.X.XQ.m.8.7 $ 9 *.{..X X",
"[.{. X XoX XXX X}. XOXXX.XXX XoX X}..XXX X X X}. X.X X X X X XXX{. X.Xt.;.r.{.{. X{.[.$.= % f t.Q.[.",
"[. XXX X X XXX.XXX X X.X X X X XXX X XOX X XXX X XXX}.{. X}.}.}.{. X.XD.>.e.}.}.oXG.[.%.f a ;.[.XX X",
"[.{.oX X XoX X.X X XXX.XOX X X X XOX X}. X XXX}.oX X X X X{.{.XX X{.{..X X{.{./.[.E.r.8 $ a ;.[. X{.",
"[.{. X X X X XXX+X X X XOX}.XX X#X}. X|. X X}.{.}..X.X.X}.{.{.[.[.Q.M.m.t.n.v.8.l.s.N - + % ; M.M.{.",
"Z.}. X XOXOX X X X X X X X X}.{.&XOXA.|.OXOX{.}.[.;.2.}. XoX X{.b. X{.C.oX{.oXoXoXoXQ.*.: p h {.XXXX",
"|.{. XXXOXOXOXOX+XOXOXOXOXOX Xk.|.{.5 XX.X}.oXXX[.>.w..X X+XXX Xc.b. Xh.{. X}. XQ.4.;.$.% 9 9 w.e.D.",
"B.F.F.F.D.D.Q.F.[.D.[.u.Q.F.N.2 Q.Q.F D.[.[.Q.[.{.[.F.[.D.D.u.F.r.N D.f.i.[.N.3.%.-.0 -.+ p &.t.D.Q.",
"$ $ $ = = = = = = = = $ $ = y t = u t $ % $ > $ $ $ $ $ = = = $ = W = = e $ $ % % $ > & + + = $ * * ",
"; % ; ; i ; ; ; ; ; ; ; i ; E & * E > > ; i ; ; i i i ; ; ; ; ; ; v t ; V i i ; ; ; i ; ; > ; . i ; ",
"M.y.N.Q.Q.Q.Q.y.D.D.y.Q.N.0.~ < 0 L #.#.>.y.y.y.D.N.y.y.D.D.D.D.y.J.H.Q.H.} y.y.Q.D.D.D.D.y.D.Q.y.N.",
"[.{.}.XX XXXoX+XOX+X+X.X+XH.H + c ! %.w.{. X X XXXoX}.oX}.oXXXXX+X].X.oX_.X. X XoX X XXX X X+X XXX}.",
"[.{.oX}. X[.[.[.Q.[.Q.[.[._ m ; J G y.+X X XOX X.X X X X X{. X X}._.T ]._.X..X.X XXX X X.X.X X XG.}.",
"[.{. X X X X[.Q.N.y.r.q.w.^ k 9 K [ }.{.XX_.].OXOX X X X X`. X X X].R ).XXX._.{.XXXX}..X X X X X{.}.",
"[.{. XoX XXXXX XXXOXXX X XT w 9 Q T | { { O.X.].^. X|./.T.o.{ { { o.X.]..Xo.H.D. X{. X X XXXOX.XoX X",
"[.}.{.XX{.{.XXXXXX X{.XX].T j ; $.!.OX XI.`.$XX.O.{ T.R ..OXU.].{. X X XXX( J &.{.XX X.X}.oX|.w.}.}.",
"V.{. X[.[.[.N.B.N.M.z.n.` R M e c / ( { {  .O.R R R R R X.@.{ +.{ o.| ).OX( o. X X X X X{.oXN.4.[.}.",
"|..X X@X.X X!. X!.[.Q.B.x.X.Y ~ V K.!.[.(.].R.R R R R R @.R.'.`..X(.R.@.X.T L.{. X{.XXXXOXOXOX.X.X}.",
"[. X X{. XXXOX.XoXXXOXXX+X~.V p g t./.o.( | ) R R R R R T ..o.T R. X X{.`.Y. X}. X X}. XOXXX}.}..XOX",
"[.{.{. X}.{. Xr.8..XG.oX.Xw.p 9 0 :.T A ;.5.R _ R R R / ^ ] w.m.T K.y.y.Q.[.{.{.}..X X}.w.t.oX XXX{.",
"[.{. X{.XX}. Xr.4. X Xr.&.9 f 8 6.o.`.{.`.X.%XY.R R R X.(......X XO...}.XX{.G.XX}.XXXX}.w.t.XX X X+X",
"N.[.{.[.[.D.[.[.[.r.&.-.%.0 % D ~ ~.D.} T ^.[.X.R R R R L.!.( ( [.[...{ /.[.[.[.[.[.{.F.F.[.{.[.[.[.",
"; ; i i i i i p ; i p ; ; = C ~ s 7 7 H Y p i U R R R R x i V Y p ; ; c ^ j 7 ; 7 ; ; i i . 7 s   i ",
"* * = : * = = = * * % $ M ~ E * > * $ W R r = B R R R R r $ W U : = = = S R C : > * : $ : : * : * + ",
"a #.#.$.$.$.#.0 0 0 0 K T Q -.g -.$.0 H T h 0 m R R R Y %.%.H Y #.$.$.#.$.k T X.b #.-.-.#.0 0 9 p = ",
"B.D.[.F.[.[.[.[.F.[.[.o.( [.F.[.[.[.u.[ R E.F.Q.R R R | [.u.( X.[.[.[.[.[.[.J.R W.[.Q.[.[.[.M.<.p + ",
"[.{.oX X.X X X}.{. X{.X.o. X}. X X{.{.Y.X.OX X Xo.R R `. X{.{ X.OXXXoX+XXXOX'.R '.OXXXoX}.{.[.<.s * ",
"[.{.}. X X X}. XXX X Xo.o.{. X XXXXX XU.X.}. X X..R R E.N.t.' X.t.r.e.w.w.w.9.R 8.q.7.3.3.3.7.*.%.i ",
"[. X X X}. X}. X X{.XX| o.XX X X X X XU.X.XX[.[.W.R { Q.N.y.H.X.N.B.B.V./.[.J.T [.[. X X{.{.[.3.-.; ",
"[.{.}..XXX X X X.XXXXX'.o.{. X XXX X XI.X.OX XXX{.P.(.{.{.!.H.X.m.n.z.z.a.,.Z ~ s s s > > % M & + + ",
"|.{. X X X X+X X X X3.h ( XX{. X X X X`.X. X X X}.}. X X}. XI.{ oX}.oXXX@XoXR.| .X.X[.[./.N.M.;.. : ",
"[.{.}. X XOX X XXX{.q.%.^ XX X X XOX{.].X. X X X}.{.XX{.}.{.I I [.F.[.F.y.e.I P 8.4.>.>.:.:.,.a a i ",
"[.{. XXX XXXOXXX X XoX{.@._.XXXX XOXOX{.X. X{.XXXX X X X X X{ P. X{.{.[.[.G.+.W.[.{.{.{.{.[.[.>.p > ",
"|.[. X{.{.{. X XXX|. X{.P.I.{.{. X X{.{.X.!.{. X X X X{.{. Xo.I.}. X{.G. X{.X.{. X{.[.V.m.z.s.s o O ",
"g ;.;.#.%.$.%.$.%.%.%.%.h J %.%.%.;.%.%.K h %.%.%.%.%.%.%.0 K n -.;.%.;.#.q P %.%.:.;.%.%.&.*.$.- 1 ",
"$ = % % ; $ ; > % % % ; ; z % % = ; % = v u % > % = ; % % r Y t % ; % $ % u d % = = % ; ; ; = > $ o ",
"$ # $ * * $ * O $ * $ $ $ @ # $ O * $ * l l $ $ $ $ # * * $ U $ + o * * : , $ $ $ $ * * # O $ $ O : ",
"t.F.F.[.y.D.D.u.N.F.F.y.D.M.j.u.D.F.y.D.J.[ y.D.D.F.y.F.D.D.{ %.* % a $.=.3 t.u.u.e.y.Q.D.D.[.y.[.N.",
"[.[.w.[. X X X X X X X X X XS.{. X X X X X|  X X X XoXoXXX].I.:.> X %.9 1.[.XXXX.Xw.e. XoX X X XG. X",
"|.[.y.{.+X X}.{. X X XXX X}. X X X X}.}. X.. X X X{.!.Q.m.` 5.* o ; 9 w. X X X X X.XXX}.}. X{. X X{.",
"[..X}. X X X X}.}. X{.{. X X}.}.}.}.}.}.{.J.|. X X{.{. X[.| /.;.8 > 0 t.G.}..X}. XXX X{.{.{.}. X X{.",
"[.G.{.{. XXX X}.G.{.{.}.}.}.XXG.G.oX}.}.{.Z.4 {.{.OXOXOXB.d.[.;.a . %.N.oXy.r.+X+X}.}. X}.G.XXXXXX X",
"{. X X XXX{. X{.[.{.[.[.D.N.N.B.M.N.M.v.w.v.6 l.7.s.l.a.g.p.,.: * : p l.Q.M.M./.!.[.F.[.[.{.{. X}.{.",
"[.G. X X X X XoXoXoXXXoXoXXXoXoXoXoXoXoXoXoXoXoXoX.XoXoX.XoXOX:.a % $.u.[.}.}.}.}.G.+X+X}.}.}.}. X{.",
"[.{.{.{. X}.}.{.oXoX}.}.}.{.{.XX}.}.oX}.}.oX}.}.oX4.w..X{.{.{.;.p X 0 M.}.}.{.}.}.}. XoX}.}.G.{. X X",
"|..X+X.X}.oX X}.}.}.}.}.}.}.}.}.}.+X}.}.}.}.}.}.}.}.}..X/.Q.m.p % : 7 l.n.m.m.~././.{.{.{. X}.}.oX}.",
"-.*.:.;.:.;.:.;.:.:.:.:.:.:.:.:.:.:.:.:.:.:.>.:.:.,.>.;.>.;.:.g s = a ;.g :.:.;.:.:.:.,.:.;.:.;.:.;."
};
