/* XPM */
static char *result[] = {
/* columns rows colors chars-per-pixel */
"50 50 198 2 ",
"   c #030303",
".  c #0C0C0C",
"X  c #180D07",
"o  c #17120F",
"O  c #141414",
"+  c #1C1C1C",
"@  c #27150C",
"#  c #331309",
"$  c #3E1F0B",
"%  c #241E1A",
"&  c #2F1E18",
"*  c #321D11",
"=  c #342017",
"-  c #392316",
";  c #3B251B",
":  c #361C24",
">  c #242424",
",  c #2B2424",
"<  c #2C2C2C",
"1  c #372525",
"2  c #322C2D",
"3  c #333333",
"4  c #3B3B3B",
"5  c #491D0A",
"6  c #4D081B",
"7  c #4B1D10",
"8  c #44200E",
"9  c #58250D",
"0  c #4D2516",
"q  c #4B2913",
"w  c #452C1C",
"e  c #4C2E1C",
"r  c #532B13",
"t  c #582C13",
"y  c #4E301B",
"u  c #52321D",
"i  c #5D341B",
"p  c #69320C",
"a  c #7D320B",
"s  c #6C2517",
"d  c #6B2C15",
"f  c #6C251C",
"g  c #742C15",
"h  c #792D16",
"j  c #73261B",
"k  c #752C1A",
"l  c #792C19",
"z  c #613312",
"x  c #663517",
"c  c #6F3915",
"v  c #6D3B1D",
"b  c #7D3215",
"n  c #763814",
"m  c #77301B",
"M  c #7B311A",
"N  c #713D1B",
"B  c #7A3D19",
"V  c #551627",
"C  c #591E2E",
"Z  c #4D3222",
"A  c #553522",
"S  c #5F3A23",
"D  c #4E2832",
"F  c #562734",
"G  c #5E2B39",
"H  c #50373E",
"J  c #693D21",
"K  c #7F3121",
"L  c #76401E",
"P  c #7D451F",
"I  c #734122",
"U  c #7A4625",
"Y  c #703949",
"T  c #414141",
"R  c #4B4B4B",
"E  c #55494C",
"W  c #514F50",
"Q  c #535353",
"!  c #5C5C5C",
"~  c #784D5A",
"^  c #67555A",
"/  c #74585F",
"(  c #5F605F",
")  c #7A5D65",
"_  c #666565",
"`  c #6C6B6B",
"'  c #706F6F",
"]  c #747374",
"[  c #787677",
"{  c #7C7B7C",
"}  c #81340D",
"|  c #82380C",
" . c #8C3E0D",
".. c #913F0C",
"X. c #813413",
"o. c #863A13",
"O. c #8A3B12",
"+. c #81321A",
"@. c #873A19",
"#. c #913F14",
"$. c #9A3F11",
"%. c #8E410C",
"&. c #93420D",
"*. c #97460D",
"=. c #834217",
"-. c #8D4314",
";. c #83441B",
":. c #8D461A",
">. c #8E481D",
",. c #944313",
"<. c #994513",
"1. c #974319",
"2. c #954A1B",
"3. c #9C4A1A",
"4. c #A34C14",
"5. c #AD4E15",
"6. c #A44E1B",
"7. c #AB4E1B",
"8. c #AC5016",
"9. c #A3521E",
"0. c #AB5119",
"q. c #B3551C",
"w. c #B75C19",
"e. c #BC5C1D",
"r. c #8B4821",
"t. c #974020",
"y. c #9A4523",
"u. c #934B20",
"i. c #9E4923",
"p. c #975022",
"a. c #A34A21",
"s. c #AB4E24",
"d. c #AA5523",
"f. c #AA5724",
"g. c #B45522",
"h. c #BA5623",
"j. c #B55A23",
"k. c #BC5C23",
"l. c #BA5E28",
"z. c #BE6324",
"x. c #C15E1D",
"c. c #C2621D",
"v. c #CE631E",
"b. c #C15D21",
"n. c #C85F26",
"m. c #C55E2A",
"M. c #C46224",
"N. c #CD6625",
"B. c #CE6926",
"V. c #C56329",
"C. c #CE6728",
"Z. c #CE682A",
"A. c #D16726",
"S. c #D26925",
"D. c #D16629",
"F. c #D16A2A",
"G. c #DB6D29",
"H. c #87384E",
"J. c #824F5D",
"K. c #9F4C63",
"L. c #8A5765",
"P. c #945C6C",
"I. c #A55169",
"U. c #986774",
"Y. c #84777B",
"T. c #A47985",
"R. c #858484",
"E. c #888686",
"W. c #8C8B8B",
"Q. c #918B8D",
"!. c #928F90",
"~. c #949393",
"^. c #989697",
"/. c #9B9A9B",
"(. c #A19E9F",
"). c #A4A3A4",
"_. c #A8A6A7",
"`. c #ACAAAB",
"'. c #B0AEAF",
"]. c #B1AFB0",
"[. c #B4B2B3",
"{. c #BAB7B8",
"}. c #BCBABB",
"|. c #C0BDBE",
" X c #C5C3C4",
".X c #C9C6C7",
"XX c #CAC7C8",
"oX c #CDCACB",
"OX c #D1CECF",
"+X c #D4D3D4",
"@X c #D9D5D6",
"#X c #DCDBDB",
"$X c #DFE0DF",
"%X c #E3E3E3",
"&X c #EBECEC",
"*X c #EFF0F0",
"=X c #F3F3F3",
"-X c #FCFEFC",
/* pixels */
"6.8.0.0.0.0.5.0.8.0.0.0.0.0.0.0.0.0.0.0.0.0.0.0.0.0.9.0.0.0.0.0.0.0.0.0.0.0.0.4. . .} h j &.,.5.7.5.",
"V.B.Z.F.F.F.F.Z.F.F.F.F.F.Z.F.F.A.F.Z.j.U I U U U U U U U U U V.Z.Z.F.Z.F.Z.C.A.V.g.<. .f h O.V.Z.C.",
"V.v.B.N.B.N.B.N.B.N.B.N.B.B.N.B.N.d.P S < < < < < < < < < > < I ;.k.B.B.Z.*.k.F.A.D.e.&.m  . .V.V.N.",
"V.N.N.B.A.A.B.A.N.A.A.A.A.A.A.N.d.A < < 4 4 4 4 4 4 4 4 4 4 4 < > J k.F.Z.C.F.N.M.h.6.} g  .*.M.D.C.",
"M.C.A.C.C.Z.D.B.D.C.C.D.Z.D.N.f.u < 4 4 T T T T T T T T T T T 4 3 < I 9.,.8.N.A.N.N.b.,.g h o.h.b.V.",
"M.N.N.D.C.A.C.C.N.F.F.N.A.Z.f.Z < 4 4 T T T T T T T T T T T T T T 3 > J ,.w.A.Z.N.A.x.&.@.O.,.M.N.N.",
"M.Z.F.N.F.C.D.Z.C.C.D.C.C.f.Z < 4 T T T T T T T T T T T T T T T T 4 3 < J j.M.n.n.b.q.| h O.<.M.N.N.",
"M.N.N.D.N.C.C.A.C.A.Z.C.N.u < T R R T T T T T 4 T 4 T T T T T T R R W 4 > v g.0.6.y.t.h f g b g.k.V.",
"z.N.C.C.C.C.C.C.C.C.C.C.j.e < [ W.Q T T 4 T T T T T 4 T T T T T 4 Q `._ < J M.S.A.B.b.&.M o.$.M.A.N.",
"V.N.D.D.D.D.D.D.D.D.D.F.u > R {.@X] T T T T T T T T T T T T T T T ` #X_.T > U B.c.5.,.%.h  ...7.w.x.",
"l.c.c.M.b.x.M.b.M.b.M.c.y < /.&X%XW.Q T T T T T T T T T T T T T R OX-X#X` > I 4.&.,.,.-.s @.<.e.c.b.",
"g g h g l h h l g l l g = < W.%X-X-X_.T T T T T T T T T T T T T [ $X-X%X' > 0 k l g l j f s k h l g ",
"h b b b b b b b h X.b b - < /.&X-X-X{.Q 4 T T T T T T T T T T R.&X-X-X-X{ , r b b b b b b M b a X.M ",
"g.k.z.b.x.x.x.b.b.b.x.b.e T }.-X-X-X*X].! T T T T T T T T T T [.=X-X-X-XR.> N x.b.x.x.x.b.e.x.b.e.k.",
"M.B.N.A.D.N.Z.F.F.F.F.F.u > !.&X-X-X-X*X).T 4 T T T T T 4 R ].=X-X-X-X&X` + ;.F.F.Z.B.A.N.C.D.F.S.B.",
"M.N.B.A.N.N.M.b.b.M.x.u + + ] @X-X-X-X-X%X/.R Q R T T Q 4 R.&X-X-X-X-X$X( + % U N.A.N.C.Z.Z.Z.C.v.N.",
"M.N.N.Z.N.N.M.b.k.e.q.w > > ).=X-X-X-X-X-X$X).` Q T R { _ %X-X-X-X-X-X@X! + > L N.N.B.Z.C.Z.A.C.B.B.",
"M.N.A.D.D.D.A.A.B.A.Z.Z > > ~.&X-X-X-X-X-X-X*X XR 4 T $X%X-X-X-X-X-X-X$X! > > I Z.N.N.Z.A.A.D.Z.A.N.",
"M.Z.N.A.N.N.D.N.A.B.N.Z > + 4 W.$X-X-X-X-X-X-XOX3 < 4 _.-X-X-X-X-X-X=X~.4 + > z Z.A.Z.Z.N.A.z.q.B.Z.",
"M.V.C.M.M.M.k.k.k.g.0.w > + > ` OX-X-X-X-X-X%XR.< < < ( -X-X-X-X-X-X+X! > + > I N.C.C.C.C.A.k.8.M.B.",
"V.C.A.F.D.C.n.C.M.M.b.* + + + (  X-X-X-X-X*X`.T < < < 4 +X-X-X-X-X-X/.4 + + O c N.N.A.A.D.D.A.Z.Z.Z.",
"M.N.A.N.C.A.D.Z.S.D.D.3.* . + 4 { +X-X-X*X[.Q < 3 < 3 3 ` %X-X-X&X_.Q < O . q 9.C.C.B.C.D.A.Z.Z.Z.A.",
"M.N.N.F.N.N.F.q.7.V.v.G.>.X O < 4 [ |.@X/.! 3 3 < < 3 < 3 E.%X XW.R 3 > . $ 9.V.Z.C.C.Z.0.e.B.N.A.N.",
"V.C.A.N.S.A.Z.q.5.C.N.B i @ . + 2 ^ W.[ R < < < < 3 < < < 4 R._ ! D 2 + . w I 9.A.A.N.B.0.q.A.B.B.A.",
"k.M.N.c.V.n.v.M.M.N t 1 > > . + H J.) T < < < < < < < 2 < < 3 ] ~ L.H . O > < Z J u.M.c.c.V.N.M.N.b.",
"b b X.X.} X.X.X.r , < 3 3 3 O O T ) L./ ^ G R F _ F W C ] C W U.P.Y.3 . > 3 3 < < ; d X.X.a } +.a X.",
"k k l k l k k k % 2 T T 4 3 + O + ! ) Y U.H.) I.T.K.~ H.T.K.) V Y.T O O > 3 4 R 4 < - k m m k m k f ",
" . .%.%.%.%.&.p > < 4 4 4 3 3 + . O > : F E D T.G Q.V ^ 6 Q.C , > O . > 3 3 4 4 3 < - n %.&.....o.k ",
"k.x.M.M.M.M.M.% > > 3 3 3 3 < < + . O O O O O + + > + O O O O O O o + < 3 3 3 3 < < > e c.z.j.1.o.s ",
"V.N.Z.C.B.C.d.% 3 3 3 3 4 3 > < 3 4 > O + + .   .   . . . > + . < 3 3 > < 3 T 3 3 3 < w j.Z.V.3.+.k ",
"M.N.B.N.N.N.+ > 4 4 3 3 4 3 > , 4 4 4 ! ^.T.< > > + , > < (.Q.R 4 4 3 > > 3 4 3 3 4 2 > - 4.4.<.&.X.",
"M.N.B.B.Z.Z.+ < 4 4 > < < > + , 3 4 ` `.OX].Q T T 3 R 4 ( XXOX).! 3 3 > + < < < < 4 3 < w N.M.4.-.b ",
"V.N.Z.Z.C.l.+ 3 4 3 < + O + , < > Q ).XXoX X^.] ^.R.^.' ).XXXXoX!.T > < > + O > < 4 4 < = m K s f f ",
"M.N.N.N.V.O 3 4 4 3 3 + . > < < T R.}.|. X X|. X+X@X+X|.|. X X}.}.` 4 < < O . > 3 3 4 3 < w j.1.h b ",
"M.N.B.C.M.+ 3 T T 3 3 >   O < < ! _. X.X X X{.'.|.@X|.'.|. X.X.X X(.T 3 < . O > 3 4 T 4 < - 1.O.O.b ",
"V.N.N.C.M.+ 3 4 T 3 + + p.N.S < [ }.XX_.{ _.}.).oX@X.X(. X(.' |.oX[.! > ;.V.x O > 4 T 4 < w M.3.o.b ",
"V.M.N.N.b.+ > 3 4 3 .   :.N.A < { XX[.[ T Q { '.#X@X@X).` R R R. X X! > r.N.9   + 3 3 < + w i.M s g ",
"#.,.,.%. .+ 3 4 T 4 < . p &.q < ' }./.R 3 T R E.#X#X+X[ H 4 3 R {.'.R > z ,.5 O 3 4 T 4 < - *.%.h m ",
"g m b h g + 3 4 T , 2 . 9 h # O W (.E.3 < 3 T _ OX#XXXE 4 < + 3 _.!.4 . 5 b # + < 3 T 4 < & h M g s ",
"g f g g d + 3 4 3 + < . 7 g @ O 4 { [ < > < < R [.@X_.2 < < > < ~._ 3 . 7 g # + > > 4 4 < & g g d m ",
"w.c.c.M.e.2.. 3 3 + . c q.x.q + < ! ( 3 < > O + [ }.! . + > < < ] R < O 9 <.3.q O > 3 < * 9.c.e.b.k.",
"V.M.8.V.C.N.:.o O . N k.F.C.r + < T T 3 < > O + T ] 3 O + < < 3 W 3 < O p Z.S.q.r . . = 9.N.N.Z.N.C.",
"V.V.x.N.Z.C.F.2.:.>.M.N.F.B.r + < < < < < + O . O + O . O , < < 3 < < O >.B.B.N.j.>.:.9.N.N.N.N.D.N.",
"M.N.Z.C.C.C.N.B.Z.N.N.N.B.Z.t + < < < < > o @ ;.;.;.;.N . O + < < < < O =.B.B.Z.N.B.B.v.B.B.N.Z.C.N.",
"M.v.N.N.N.F.N.N.B.v.N.B.B.A.r + < < < > - B >.N.N.D.D.C.B n X , < < < . :.w.w.Z.A.B.B.A.N.A.N.A.N.N.",
"V.N.A.N.D.N.C.N.N.V.V.M.b.k.q o + > + O 8 s.d.d.a.6.i.y.y.1.X O > > + . B j.g.m.n.V.M.M.N.M.N.N.D.N.",
"M.N.N.D.N.A.N.S.S.S.A.S.A.B.2.c L L L N 2.S.S.S.G.F.A.G.G.G.B t r 0 r z 9.B.B.N.B.v.F.F.S.B.N.B.C.N.",
"M.N.A.N.N.B.N.S.N.N.N.N.B.N.N.N.N.B.N.N.B.B.N.N.B.4.5.Z.N.M.V...o.X.&.k.N.B.N.B.B.B.N.B.B.B.v.N.N.N.",
"V.Z.Z.B.B.N.B.B.B.B.B.B.B.B.B.B.B.B.B.B.B.B.B.B.F.B.B.N.n.m.h.O.l m } a.g.h.h.m.m.n.n.N.N.N.N.B.S.B.",
"-.,.<.<.<.<.,.<.<.<.<.<.<.<.<.<.<.<.<.<.<.<.<.<.<.2.<.1.<.<.<.#.+.h o.,.,.,.1.,.<.<.1.<.<.1.<.<.<.*."
};
