/* XPM */
static char *result[] = {
/* columns rows colors chars-per-pixel */
"40 40 188 2 ",
"   c #0E0E0E",
".  c #100D0C",
"X  c #141414",
"o  c #191615",
"O  c #1D1917",
"+  c #1D1C1C",
"@  c #2A180E",
"#  c #351B0C",
"$  c #271C16",
"%  c #221C1B",
"&  c #3C1E10",
"*  c #27221E",
"=  c #32221B",
"-  c #3C261A",
";  c #3D271B",
":  c #242424",
">  c #2A2624",
",  c #2C2827",
"<  c #2C2C2C",
"1  c #382727",
"2  c #3C2B23",
"3  c #332529",
"4  c #332E2D",
"5  c #36312E",
"6  c #3B312E",
"7  c #332F30",
"8  c #3E2D32",
"9  c #343434",
"0  c #3A3534",
"q  c #3C3C3C",
"w  c #461D0E",
"e  c #52250B",
"r  c #492615",
"t  c #452A1F",
"y  c #4E2E1E",
"u  c #572A16",
"i  c #522E1B",
"p  c #4F301F",
"a  c #5A331B",
"s  c #5C331D",
"d  c #78360F",
"f  c #6B2D14",
"g  c #662A19",
"h  c #732B16",
"j  c #792D16",
"k  c #73271A",
"l  c #742B19",
"z  c #7A2D18",
"x  c #6B3415",
"c  c #65351C",
"v  c #6B3419",
"b  c #6B391C",
"n  c #763516",
"m  c #7D3314",
"M  c #7C3814",
"N  c #753C1B",
"B  c #793E1B",
"V  c #412E27",
"C  c #492F23",
"Z  c #463127",
"A  c #4B3124",
"S  c #43332C",
"D  c #4B352A",
"F  c #553624",
"G  c #502E37",
"H  c #443335",
"J  c #463A34",
"K  c #4C3C35",
"L  c #673723",
"P  c #653A22",
"I  c #6C3C23",
"U  c #763F20",
"Y  c #7C421F",
"T  c #4C423E",
"R  c #724225",
"E  c #794428",
"W  c #4B3E41",
"Q  c #5F3743",
"!  c #593942",
"~  c #633A46",
"^  c #6F3F4C",
"/  c #723F4D",
"(  c #414141",
")  c #4A4646",
"_  c #4D4C4C",
"`  c #574349",
"'  c #534E4D",
"]  c #504F50",
"[  c #555454",
"{  c #5B5B5B",
"}  c #67434D",
"|  c #604F54",
" . c #6A4B54",
".. c #7B4756",
"X. c #68595D",
"o. c #7D5D66",
"O. c #636363",
"+. c #6D6566",
"@. c #6D6C6D",
"#. c #736E6E",
"$. c #737273",
"%. c #797778",
"&. c #7B7B7B",
"*. c #8D3D0E",
"=. c #823513",
"-. c #853B16",
";. c #8B3C12",
":. c #833A1C",
">. c #8B3C1A",
",. c #95460F",
"<. c #874117",
"1. c #86421C",
"2. c #8C461C",
"3. c #964212",
"4. c #9C4614",
"5. c #9D4816",
"6. c #9C4719",
"7. c #96491D",
"8. c #9C4B1C",
"9. c #A24B16",
"0. c #AA4F15",
"q. c #A44B1B",
"w. c #A84D1C",
"e. c #AF5417",
"r. c #A5521D",
"t. c #AD531C",
"y. c #B2551C",
"u. c #B5591C",
"i. c #BC5C1D",
"p. c #814522",
"a. c #8A4923",
"s. c #894824",
"d. c #944C22",
"f. c #9A4E22",
"g. c #995124",
"h. c #A54D21",
"j. c #AF4F20",
"k. c #A55321",
"l. c #AC5421",
"z. c #B15522",
"x. c #B85723",
"c. c #B45B24",
"v. c #BC5C23",
"b. c #BE6023",
"n. c #C05D1E",
"m. c #C1611F",
"M. c #C25E23",
"N. c #C15F28",
"B. c #C56224",
"V. c #CD6625",
"C. c #CE6825",
"Z. c #CE6728",
"A. c #CF6828",
"S. c #D06625",
"D. c #D16925",
"F. c #D16729",
"G. c #D06828",
"H. c #8B5765",
"J. c #905D6B",
"K. c #858484",
"L. c #8C8B8C",
"P. c #918E8E",
"I. c #959494",
"U. c #999798",
"Y. c #9C9B9B",
"T. c #A19F9F",
"R. c #A3A3A3",
"E. c #A9A6A7",
"W. c #AAA7A8",
"Q. c #ACABAB",
"!. c #B1AFB0",
"~. c #B3B2B2",
"^. c #BDBBBC",
"/. c #C0BEBF",
"(. c #C2BFC0",
"). c #C4C2C3",
"_. c #C9C6C7",
"`. c #CECDCD",
"'. c #D1CECF",
"]. c #D5D5D5",
"[. c #D9D6D7",
"{. c #DCDDDC",
"}. c #E3E4E3",
"|. c #EBECEB",
" X c #EEF0EF",
".X c #F2F3F2",
"XX c #F7F9F7",
"oX c #FBFDFB",
/* pixels */
"t.y.y.y.y.e.y.y.y.y.e.y.y.e.c.g.R R R R R R R R E r.t.u.t.y.y.t.3.*.=.k *.4.t.j.",
"B.V.Z.G.Z.Z.Z.Z.Z.G.G.Z.Z.c.a.F 5 5 9 5 5 9 9 5 S R g.B.A.B.B.G.B.y.,.j =.9.V.A.",
"B.V.V.C.S.C.C.C.G.G.Z.A.v.E S 0 q q ( q q ( q q q 5 S d.B.B.b.B.V.x.*.j *.9.V.V.",
"B.Z.G.Z.V.G.V.D.G.G.B.b.p.J q ( ( ( ( T ( ( ( ( ( q 0 S a.9.B.S.S.M.9.j =.6.M.M.",
"B.Z.V.A.G.A.V.F.A.Z.c.E J q q ( ( ( ( ( ( ( ( ( ( ( ( 0 S Y b.Z.V.M.0.;.;.9.S.m.",
"B.V.S.Z.S.A.F.A.Z.B.s.K ] ] ( ( ( ( ( ( ( ( ( ( ( ( ( [ ) D 8.v.x.w.;.h =.9.B.B.",
"B.V.V.F.A.A.V.A.Z.c.R ] P.$._ q ( ( ( ( ( ( ( ( ( ( _ L.K.T a.M.N.v.3.j -.9.B.V.",
"B.V.F.Z.Z.A.F.A.A.a.J L.`.Y.] ( ( q ( ( ( q ( ( ( ( O.).).+.E B.n.0.,.z *.4.u.B.",
"l.y.y.y.y.u.y.u.y.B ) E.|.{.L._ ( ( ( ( ( ( ( ( ( _ P.|.}.&.D <.*.;.;.k =.4.y.y.",
"l z z z z z z z z u ) W. XoX(.O.( ( ( ( ( ( ( ( _ K.].XX XL.6 x j j z l k n j z ",
"q.q.w.w.w.w.w.q.w.N ' /.XXoX|.Q.{ ( ( ( ( ( ( ( O.^..XoX.XL.D 2.w.q.w.w.q.w.9.q.",
"B.V.V.S.B.A.A.V.v.N J T. XoXoX}.U._ ( ( ( ( ( [ Q. XoXoX}.&.2 2.B.V.V.F.V.V.C.V.",
"B.V.G.Z.B.B.M.n.d.V q Y.|.oXoXoX{.Y.O.] ( [ { I.}.oXoXoX{.$.: p c.S.A.B.V.Z.V.V.",
"B.B.S.V.V.V.B.n.d.; q R..XoXoXoXoX}.~.[ ( @.^.{.XXoXoXoX{.@.> A c.V.A.A.V.A.V.A.",
"B.Z.G.V.C.C.C.S.d.2 : O./..XoXoXoXXX`.[ 9 { [.oXoXoXoX.X~.] : y l.S.A.V.V.N.V.V.",
"B.B.V.B.B.v.v.x.d.; + q Y. XoXoXoX|.Y.( < ( ~.oXoXoXoX{.&.7 + p c.V.F.V.S.y.n.V.",
"B.S.F.F.V.V.S.M.l.i + < %.{.XXoX X~.{ 9 < 9 %.{.oXoX|.Q.] + $ U v.G.S.G.S.G.S.V.",
"B.V.S.S.Z.V.M.V.V.:.@ + ( P.].}.~.@.9 < 7 < ( I.{.{.Q.{ 7 O u k.B.A.V.B.V.A.V.V.",
"B.A.S.S.V.M.0.v.t.N @ o < | P.L.{ 9 9 < < 7 < _ P.K.O.H * o a k.B.V.V.t.u.D.G.C.",
"v.B.M.V.m.M.t.2.P 2 % X 3  .o.[ q 7 7 9 7 7 9 7 _ O.o.! + o 1 F a.c.m.B.M.m.V.B.",
"m m z =.m m c 2 9 9 < X : [ o. .` ! Q  .Q !  .^ ~ o.#.] o + 7 0 6 P M m m m m m ",
"m =.=.=.=.x t 9 q 0 9 + X 9 ! ~ ../ H.J.H.^ ..J.} G ` : O : 9 q q 5 s z =.m n k ",
"r.y.e.e.r.Y 2 7 9 9 9 < + X o % 3 3 H H W 3 3 8 8 % X X : 9 9 q 0 < y <.0.9.;.h ",
"N.B.V.V.v.I < 9 9 q 9 : < : : o : X       X   : % X : < : < 9 9 9 < 1 E B.z.>.j ",
"B.V.G.V.d.Z 0 0 9 9 < : 7 q ( O.&._ : : + : > @.%._ q 9 , : 7 9 9 9 9 A r.9.3.=.",
"B.V.G.B.p.6 q 7 > < : : < ( @.W.^.L._ _ _ _ { T.(.U.[ 9 < : : < < 9 9 6 s.8.-.m ",
"B.Z.G.c.P 0 q 7 : X + > < [ Y.(._.~.I.R.Y.Y.U.^._./.K.q < : + + < 9 q 9 L >.j l ",
"B.Z.V.f.J q q 7 : X + < ( &.~.).).(.^._.'.(.^.(.(.(.Q.{ 9 <   X < 9 q 9 C -.;.m ",
"M.V.V.d.S q q < % s E S ] Y./.W.Y.!.!.).'.^.!.Q.I.^./.&.9 P N - : 9 ( 9 V m -.m ",
"y.u.u.1.2 9 q : . b r.a ] W.!.%.[ $.T.`.[./.K.O.[ P./.K.0 U q.- X 7 9 7 ; v j k ",
"=.=.=.g 4 q q 7 X e M - ) U.I.] 0 ) $._.[.!.{ q 0 O.Q.%., u d # : 0 q 0 2 x m f ",
"k k h s 6 q 9 < & e f @ < %.&.q < 9 [ !.'.P.( < : ) P.{ O w f & + < q 0 1 g h h ",
"v.i.m.r.L 0 4 t Y 8.7.r > [ +.0 : : 7 K.~.X.: > < q @.( % x 7.<.- : 5 S Y c.i.B.",
"B.v.B.C.z.R c 2.c.B.v.v : q _ 9 < % + ) #.0 o : < 0 _ 0 y 8.B.M.7.c c 1.x.B.Z.B.",
"B.B.B.Z.V.v.i.V.B.C.v.b : 7 7 < , = i b E L r > : 7 9 7 s v.V.V.B.i.v.b.C.V.Z.V.",
"V.V.V.V.V.V.C.m.C.C.i.b : < < > C B r.B.B.b.f.N ; : < < c u.u.Z.Z.C.C.Z.S.C.V.V.",
"B.C.V.V.V.G.V.V.B.B.v.N t Z Z y 2.c.l.z.h.h.h.w.N > : > s x.v.N.B.B.B.V.V.V.S.V.",
"B.V.Z.V.C.G.S.C.C.Z.V.u.k.k.k.r.i.D.G.D.m.V.D.S.r.c a a B b.S.V.C.G.A.A.V.V.S.D.",
"B.Z.C.C.C.C.C.C.Z.C.C.Z.C.Z.A.Z.V.G.V.V.n.B.V.M.t.>.:.;.h.v.N.N.V.V.V.V.V.C.C.m.",
"5.5.9.9.9.9.9.9.9.9.9.9.9.9.9.9.9.9.9.9.q.q.9.9.5.-.z -.3.6.4.4.4.9.9.q.4.9.9.9."
};
