/* XPM */
static char *result[] = {
/* columns rows colors chars-per-pixel */
"40 40 76 1 ",
"  c #5D1E01",
". c #4F240A",
"X c #562205",
"o c #5C2606",
"O c #5E2906",
"+ c #50280E",
"@ c #5C2C0C",
"# c #552E12",
"$ c #5C2E10",
"% c #573213",
"& c #5D3112",
"* c #632504",
"= c #6B2601",
"- c #642A06",
"; c #6C2C05",
": c #642D0A",
"> c #692E08",
", c #732C02",
"< c #7A2E01",
"1 c #6E3006",
"2 c #65320E",
"3 c #6A320D",
"4 c #743105",
"5 c #7C3203",
"6 c #73360B",
"7 c #79390A",
"8 c #602F10",
"9 c #633311",
"0 c #6B3611",
"q c #643917",
"w c #6C3915",
"e c #613719",
"r c #653919",
"t c #6D3D1A",
"y c #733C15",
"u c #7A3F17",
"i c #733E19",
"p c #6F411E",
"a c #774017",
"s c #7C4116",
"d c #74421C",
"f c #7B441C",
"g c #7F481E",
"h c #774320",
"j c #7C4720",
"k c #7E4920",
"l c #823502",
"z c #863A05",
"x c #8B3B04",
"c c #843B08",
"v c #923D02",
"b c #814317",
"n c #80461B",
"m c #844A1E",
"M c #8A4D1E",
"N c #8D501F",
"B c #95531F",
"V c #9A551F",
"C c #844C22",
"Z c #8A4E21",
"A c #8E5123",
"S c #945423",
"D c #9A5723",
"F c #975826",
"G c #9C5925",
"H c #965728",
"J c #975829",
"K c #9D5B29",
"L c #A25C25",
"P c #A85E23",
"I c #A15E29",
"U c #A76027",
"Y c #AB6126",
"T c #A5612A",
"R c #AA6229",
"E c #B06629",
/* pixels */
"#mDDGGKGGGGGJDGGGGKIIPILLLLLDLLDGGGGVGmq",
"AtCSAZSANMmmmmMMZSZSHSGKGGLLLDLDDDSDGApN",
"GApmmpSUPPPPPVLVDDGDDDSSSAANMZCMmfqdfdNG",
"LGMqABLUYPYYPPVLDDSSAMMZmmmmMMmmmAmdtmVU",
"KSZfqdmmadasauauyyywwww9wwwwwwtimAfpCALG",
"USpjddNNg2@1>>4,>45,X X -*->*O$hAGmfSdDD",
"GKSmfCZABmw1,4ll5zvl; *=<;,,;0hZSGSMGAGF",
"UTGAgAZdmSM6;,zz<xvl= =,<,,;3fSZmSSCLDLF",
"GTKSdfSCmSVmy;5zllvl= ,<<,>3uAKDSSjfLHLF",
"KTGSt#fJSASDC645<vvl=*<5<-8uAKLLDf#iLHLJ",
"KTUSt.2mDSBBDMy4=lvl,=55>2iZDKLGn$.iLHKK",
"JTTJio-2mSSSDDM0=lxl==,;0uADKLHC2OoiLHLK",
"ATRGd-,-2nBDVDGm0,ll,=-2uMFGKDC8-;;uKHTK",
"kTTJi>l<-8fSSDGGC0;,,*:uZFKKDj9-1<,fLJKK",
"jTTJw-ll,O2sBSBDKn0--:uCSDKHn9o;<<1bKHHK",
"pTTSt;ll4;-2fNANDFd@:iMSGKSf9O;,l<;fLHHT",
"hPLSw;ll555>2fAZjCAipmgkJAf2:1,5l,=fLHCI",
"jLKAi=ll54l5-:fZddACfZdgCf2-45,5c<>uIHCL",
"CLKAy;<l<,cz5o$dCCChpACkf8@4l5,5l<;iIDCL",
"NLDAu1ll545xz>o#ihiepjhp%.4ll555c5*uIHCK",
"BVBNi6ll515xz,o9dkdrpkpp+X,ll555zc*iLDZL",
"BLBAi,<l5,,zl;9CSSAgATJkw@>5ll5lz5oiKLNL",
"MVBZu;5ll=,l<wCAZCSMAKCkCi9;555lxc iKLDD",
"ZVAAi;ll5,*60CDHCkDgjJCCACd9145zx7*iGLDV",
"cKAAu;lll;*0mSDGDVM2#fFKKSChw>,zvz*ySLDV",
"CIAAy=l<5;0jDDKDDM0Oo8fKIJHZdw>5bc-wALBV",
"CIASi><410fSKDDSmw-;,O$hGKHZZf04cc*wZDAV",
"ZRADi;,>0fSKKSZn0>;<5= OhKKAZCfu7c:wZLAV",
"HPSGh:;0fSDLFMf0>455<==o8jHGZCCCy6-wMGAG",
"HEDGi*3hZDGSMa9-455<<,==*$jHHCCCmy@9MGJG",
"HEDDi8uZDDSCi2>45l<<<=,,,o8jHSCiCg90NDKU",
"DRDShiCCSSMa$O45ll<l,,,<<=*8jHSfdmfdNDTU",
"SELSfCAdgma&X-55cl<<<=,ll,= eCHCthCnNDTU",
"DPDAgASgft2O*;,5cll<,=;ll,,= 9jACCfmNSTU",
"DIiCfkAgt&@;>=;47556=>=65,,3*@&nSCyfgdGU",
"DPZfpfgfdaasussbuCccchucnubuhttijCiwfmGP",
"LRNdCAKFSSSSBSSBSSSDSSDDHHDSDHHLGFCCtMLU",
"LDfmCdSGDFSSSSSSSHSASSSSHGGGLLLLKShCCtNU",
"MdCJJZJJKFSSSASAAZCCmmMMASBAZZmmZCdfZfrA",
"&gSSGDFGKGJKJFHSSSSSDDDDDVVVSDBBSBSBSSC%"
};
