/* XPM */
static char *result[] = {
/* columns rows colors chars-per-pixel */
"50 50 92 1 ",
"  c #3F1E09",
". c #431B04",
"X c #4D1D02",
"o c #411E09",
"O c #551D02",
"+ c #591D01",
"@ c #611F01",
"# c #44220C",
"$ c #4C250A",
"% c #4D290F",
"& c #542205",
"* c #5B2404",
"= c #5E2905",
"- c #52260B",
"; c #582709",
": c #542A0D",
"> c #5B2C0C",
", c #5F310F",
"< c #422610",
"1 c #482710",
"2 c #472910",
"3 c #4D2B13",
"4 c #532E13",
"5 c #553016",
"6 c #5B3316",
"7 c #5D3619",
"8 c #632502",
"9 c #6A2602",
"0 c #642A04",
"q c #6C2B03",
"w c #622E0C",
"e c #732C02",
"r c #7A2E01",
"t c #65310E",
"y c #6B340D",
"u c #743104",
"i c #7C3203",
"p c #72360B",
"a c #79390A",
"s c #633514",
"d c #6B3713",
"f c #643917",
"g c #6D3A16",
"h c #613719",
"j c #653A1A",
"k c #6C3D1A",
"l c #713B15",
"z c #713E1A",
"x c #6E401D",
"c c #75421C",
"v c #7B451D",
"b c #7E481F",
"n c #6E4220",
"m c #754320",
"M c #7D4720",
"N c #7E4921",
"B c #823503",
"V c #843905",
"C c #8B3B04",
"Z c #843B09",
"A c #883D09",
"S c #933E02",
"D c #914107",
"F c #934309",
"G c #81471D",
"H c #844A1E",
"J c #8A4D1E",
"K c #904E1E",
"L c #95521E",
"P c #9B561F",
"I c #844B21",
"U c #8A4E21",
"Y c #875025",
"T c #8D5123",
"R c #945424",
"E c #995723",
"W c #975827",
"Q c #9C5925",
"! c #935628",
"~ c #975829",
"^ c #9C5B29",
"/ c #A35D25",
"( c #AA5F24",
") c #A25E29",
"_ c #A76027",
"` c #AB6126",
"' c #A3602B",
"] c #AB642A",
"[ c #B16425",
"{ c #B1662A",
"} c #B5692C",
"| c #A96630",
/* pixels */
"<HEEQQ//''_'))/^^^_^)^)'']'___////Q/P//QPQP/QPQQK3",
"T3I^W!!TYYIbvvvbHJJKTTT!!WQQ^QQQQ^QQQQQEQQQQ/^^K5T",
"/Y6bWRcIPPPPPPLLKJHHJJJYTRTR!EQ^/)'///Q/QEJHREHfTQ",
"/QL6vH7v_`{[[[``[(````_'/QQRLRUJHGHvGvvvzz63xg7H_Q",
"_^_b6TW/````[]``(PPPEEPLJRKJJJHJJHUJJJJURRTJHfHW_/",
"_WPYcfcGHHHHIJJJJJHHHHHHHbHGHGHHHHUTUURTURTGjHTW_Q",
"_Wb7bb46x,f3<$%-$$-$$$--$#oooo###$$$##37jkj5vLhI_P",
"_~LxYTfvYLLc:&qq00uu0quuq*XOOOq8*q00-:kJR^RkJ/cT_R",
"Q^]TUTkHTRERvtuierBCuBSSBq+@9@BeqirqtzU!//QzU(R^_R",
"/)`WTUk!TcvRRGyqeBCCrBSSBe+@eeBeuiqszURNI^QkU(!E_T",
"^'`ETTkRWckJQEGt8eCCrBSSB9+@reBe9qwlUE!vb^!kU(R^'R",
")']Q!I5kRWTULEEGtqVAeiSSBe+9rrB98wlIE))EQQz3U`R^_W",
"^']EWY3 xW^RKLQEIteBeBSSBe+eBBi0;lUE^'_/!c##J_!Q_W",
"~']^WI%.;cE^RJPQRIdu9iSSB9@eBiqwfJ!Q//)Rc$.$J_R^'~",
"!'|^^I:&0>cR^RLEQEIt+rSSBe@erqwzJ!Q^/)Wc;&&*J(!Q'^",
"Y'})WN4*u0=cRQRLQ/Ev>eBCBe9qq>dI!WQ//!c:=q0>J/!^')",
"N)})^M-8Bi0>cRERR//RcyeBir98=gHR!^)/!c>*urq>J(!^^'",
"m^})!v$8BBu=-gRELR//!vwque8;gHRQ^))!c:*qiie=J/!Q~'",
"k^}^!v#8BBBq&>cLEKK/)Rz>88=gJREQ^^!v>*quBue,J/^~~'",
"k^{QRv$8BBBuq0>zRRUUQ)!l-:lJRE^^^Tz5&9uiBeu=H)^!T]",
"k^{ETG#0BBBrriw>lR!IGU!UssTINT^!Tz>0qeiiBeq=J_^!T'",
"x){RRJ-8BBBrrViw:zKRcjI^ccLvjN!Ym:*uieriVe0=J'^YI|",
"z^`RRT-qBBBruZCi*:zUUzMENcRImNTz:0rVirriCe8;J_^II]",
"U/(RRE;qBBBiuBACe;-zURIImc!!!Tc-*uBVarrBCe8;J_'IN'",
"LQ(URE>qBBBreaACiq&%xcxx67Mnmj#$qVVVrrrZCe+;J')HI_",
"LQ(KRQwqBBBrquCSVq=:xcvx5jNnj5#OeBVViBrVDu+;K'/UY_",
"LQ/UTEwqBiViqeACi=,cTQETmY|^Uvs;0uVZiiiVDu&&I'/!J/",
"KL/JRE>qBBVi9qCVq,vTWTYEIY{^IIvf>qrZiiBZFuO$H'/QT/",
"JK(IR!wqBrBiq0iutvR^IxI/HI]TnMUNk>qiuiBADiO$H^//RP",
"HJ(HRR>9BBBB90upv!^ETbL/vkW!I!!YIz,quiBCFBO&IQ/_RP",
"GL/HRR:0BiViq&tvT)Q^^EPJ:$z~)')!UIz,trBAFZO$H!/`PP",
"GQ/H!U:9iiBrq>c!EE)EEPH,&&-k!))^!!UctquCFZO$HRQ`JP",
"v)(G!I;8BriyyzRE/^EERJt&qe*-kR))!TTYmtqZSA+:IUQ(HP",
"I)/I~U:9BeqtcT^^QERUGs0qrBe&$z!))!YYUvypAA*-MIQ(bP",
"Y((I^U:0rqscUE/^ERJvtwurrie8O3mR)ETIIUGlaZ8;vIQ(b/",
"Y{(U^U:0qwgI^Q)EJHc6=qirBree9*;x!)!YGIUGlp+:vIQ)IQ",
"T}(R^U%OtgIRQ)EUGzt=eBBrrree9r@-mR^!IvGUGd;&zJE/T_",
"T}(R^I1:lIRQ/EUGk>0uBrBrBr@eere+:m!^!ImIKG4#GJEQ!_",
"T}`RQI4dIKR/EUIg4=uiZiBrBr9eeBB@+5vT/RIxIUv4zJ/Q)_",
"T}`EEI7vKIvUUIl:&qiBViBBrree9BB9q+:mT)TjhGUfGJQQ'_",
"T[`ERYfJRIkIvz>O+eiiBBBBBe9eeBBreq;:c~WckzHfHJQQ|_",
"L[`WRHxTQUGzg:089eeiVVBire99eBBeeeq;6c!!RUv6JJQQ{_",
"R[ENTHxTRIzg:;qq8qqeuiiie9989Bieqeq0&2cTRRGsJIHR[_",
"W{J7Iv5xghh74,dtwyttyyppywwwtpyytw,t:#47hh5#vI6v`_",
"P]_bMfMTTU!TURRRRRKRRRKKLUURKTTJUIIIIMbNHbvcfcHT]/",
"E[`HfI!~^Q!E!RRRRLRERREEEEEE^EWWEQ!QEQQ^Q^RTvfHQ__",
"E]/fITkN^QQEEREERREEEEQEEQEE^EE^QQ/^^/__'^NxTHfb]/",
"QW7Y!!kI^^^ERRRRRRRRRUUUIUUIJKRREQQQ/^^^^QbkY!I5L_",
"K5NW^^~~WWWW!!!!T!YWTYYHbGGGJJKLKIJHGvvvvvvvIIIM5H",
"2bLLPEEE/))^)E^EEWWWWW!!^^Q_/Q/PP/PPPQPPEPEEREEEH%"
};
